G04 #@! TF.GenerationSoftware,KiCad,Pcbnew,(5.1.0)-1*
G04 #@! TF.CreationDate,2019-11-06T00:15:10-05:00*
G04 #@! TF.ProjectId,ESP32-Pi,45535033-322d-4506-992e-6b696361645f,1.0*
G04 #@! TF.SameCoordinates,Original*
G04 #@! TF.FileFunction,Soldermask,Bot*
G04 #@! TF.FilePolarity,Negative*
%FSLAX46Y46*%
G04 Gerber Fmt 4.6, Leading zero omitted, Abs format (unit mm)*
G04 Created by KiCad (PCBNEW (5.1.0)-1) date 2019-11-06 00:15:10*
%MOMM*%
%LPD*%
G04 APERTURE LIST*
%ADD10C,0.100000*%
G04 APERTURE END LIST*
D10*
G36*
X182213158Y-104861238D02*
G01*
X182822818Y-105113768D01*
X182822820Y-105113769D01*
X183371500Y-105480385D01*
X183838115Y-105947000D01*
X184204732Y-106495682D01*
X184457262Y-107105342D01*
X184586000Y-107752552D01*
X184586000Y-108412448D01*
X184457262Y-109059658D01*
X184244305Y-109573780D01*
X184204731Y-109669320D01*
X183838115Y-110218000D01*
X183371500Y-110684615D01*
X182822820Y-111051231D01*
X182822819Y-111051232D01*
X182822818Y-111051232D01*
X182213158Y-111303762D01*
X181565948Y-111432500D01*
X180906052Y-111432500D01*
X180258842Y-111303762D01*
X179649182Y-111051232D01*
X179649181Y-111051232D01*
X179649180Y-111051231D01*
X179100500Y-110684615D01*
X178633885Y-110218000D01*
X178267269Y-109669320D01*
X178227695Y-109573780D01*
X178014738Y-109059658D01*
X177886000Y-108412448D01*
X177886000Y-107752552D01*
X178014738Y-107105342D01*
X178267268Y-106495682D01*
X178633885Y-105947000D01*
X179100500Y-105480385D01*
X179649180Y-105113769D01*
X179649182Y-105113768D01*
X180258842Y-104861238D01*
X180906052Y-104732500D01*
X181565948Y-104732500D01*
X182213158Y-104861238D01*
X182213158Y-104861238D01*
G37*
G36*
X124213158Y-104861238D02*
G01*
X124822818Y-105113768D01*
X124822820Y-105113769D01*
X125371500Y-105480385D01*
X125838115Y-105947000D01*
X126204732Y-106495682D01*
X126457262Y-107105342D01*
X126586000Y-107752552D01*
X126586000Y-108412448D01*
X126457262Y-109059659D01*
X126444044Y-109091570D01*
X126436931Y-109115019D01*
X126434529Y-109139406D01*
X126436931Y-109163792D01*
X126444044Y-109187241D01*
X126455595Y-109208851D01*
X126471141Y-109227793D01*
X126490083Y-109243338D01*
X126511693Y-109254889D01*
X126535142Y-109262002D01*
X126559529Y-109264404D01*
X126583915Y-109262002D01*
X126607364Y-109254889D01*
X126618437Y-109249651D01*
X126622480Y-109247490D01*
X126735580Y-109213182D01*
X126853200Y-109201597D01*
X126970821Y-109213182D01*
X127083921Y-109247490D01*
X127188155Y-109303204D01*
X127279517Y-109378183D01*
X127354496Y-109469545D01*
X127410210Y-109573779D01*
X127444518Y-109686879D01*
X127453200Y-109775026D01*
X127453200Y-110533974D01*
X127444518Y-110622121D01*
X127410210Y-110735221D01*
X127354496Y-110839455D01*
X127279517Y-110930817D01*
X127188154Y-111005796D01*
X127083920Y-111061510D01*
X126970820Y-111095818D01*
X126853200Y-111107403D01*
X126735579Y-111095818D01*
X126622479Y-111061510D01*
X126518245Y-111005796D01*
X126426883Y-110930817D01*
X126351904Y-110839454D01*
X126296190Y-110735220D01*
X126261882Y-110622120D01*
X126253200Y-110533973D01*
X126253200Y-110008848D01*
X126250798Y-109984462D01*
X126243685Y-109961013D01*
X126232134Y-109939402D01*
X126216589Y-109920460D01*
X126197647Y-109904915D01*
X126176036Y-109893364D01*
X126152587Y-109886251D01*
X126128201Y-109883849D01*
X126103815Y-109886251D01*
X126080366Y-109893364D01*
X126058755Y-109904915D01*
X126039813Y-109920460D01*
X126024269Y-109939401D01*
X125838115Y-110218000D01*
X125371500Y-110684615D01*
X124822820Y-111051231D01*
X124822819Y-111051232D01*
X124822818Y-111051232D01*
X124213158Y-111303762D01*
X123565948Y-111432500D01*
X122906052Y-111432500D01*
X122258842Y-111303762D01*
X121649182Y-111051232D01*
X121649181Y-111051232D01*
X121649180Y-111051231D01*
X121100500Y-110684615D01*
X120633885Y-110218000D01*
X120267269Y-109669320D01*
X120227695Y-109573780D01*
X120014738Y-109059658D01*
X119886000Y-108412448D01*
X119886000Y-107752552D01*
X120014738Y-107105342D01*
X120267268Y-106495682D01*
X120633885Y-105947000D01*
X121100500Y-105480385D01*
X121649180Y-105113769D01*
X121649182Y-105113768D01*
X122258842Y-104861238D01*
X122906052Y-104732500D01*
X123565948Y-104732500D01*
X124213158Y-104861238D01*
X124213158Y-104861238D01*
G37*
G36*
X133970820Y-109213182D02*
G01*
X134083920Y-109247490D01*
X134188154Y-109303204D01*
X134279517Y-109378183D01*
X134354496Y-109469545D01*
X134410210Y-109573779D01*
X134444518Y-109686879D01*
X134453200Y-109775026D01*
X134453200Y-110533974D01*
X134444518Y-110622121D01*
X134410210Y-110735221D01*
X134354496Y-110839455D01*
X134279517Y-110930817D01*
X134188155Y-111005796D01*
X134083921Y-111061510D01*
X133970821Y-111095818D01*
X133853200Y-111107403D01*
X133735580Y-111095818D01*
X133622480Y-111061510D01*
X133518246Y-111005796D01*
X133426884Y-110930817D01*
X133351905Y-110839455D01*
X133296190Y-110735221D01*
X133261882Y-110622121D01*
X133253200Y-110533974D01*
X133253200Y-109775027D01*
X133261882Y-109686880D01*
X133296190Y-109573780D01*
X133351904Y-109469546D01*
X133426883Y-109378183D01*
X133518245Y-109303204D01*
X133622479Y-109247490D01*
X133735579Y-109213182D01*
X133853200Y-109201597D01*
X133970820Y-109213182D01*
X133970820Y-109213182D01*
G37*
G36*
X173348843Y-109463214D02*
G01*
X173439837Y-109500905D01*
X173439839Y-109500906D01*
X173521731Y-109555625D01*
X173591375Y-109625269D01*
X173632545Y-109686883D01*
X173646095Y-109707163D01*
X173683786Y-109798157D01*
X173703000Y-109894753D01*
X173703000Y-109993247D01*
X173683786Y-110089843D01*
X173683785Y-110089845D01*
X173646094Y-110180839D01*
X173591375Y-110262731D01*
X173521731Y-110332375D01*
X173439839Y-110387094D01*
X173439838Y-110387095D01*
X173439837Y-110387095D01*
X173348843Y-110424786D01*
X173252247Y-110444000D01*
X173153753Y-110444000D01*
X173057157Y-110424786D01*
X172966163Y-110387095D01*
X172966162Y-110387095D01*
X172966161Y-110387094D01*
X172884269Y-110332375D01*
X172814625Y-110262731D01*
X172759906Y-110180839D01*
X172722215Y-110089845D01*
X172722214Y-110089843D01*
X172703000Y-109993247D01*
X172703000Y-109894753D01*
X172722214Y-109798157D01*
X172759905Y-109707163D01*
X172773456Y-109686883D01*
X172814625Y-109625269D01*
X172884269Y-109555625D01*
X172966161Y-109500906D01*
X172966163Y-109500905D01*
X173057157Y-109463214D01*
X173153753Y-109444000D01*
X173252247Y-109444000D01*
X173348843Y-109463214D01*
X173348843Y-109463214D01*
G37*
G36*
X133064675Y-106757361D02*
G01*
X133196616Y-106812012D01*
X133315360Y-106891355D01*
X133416345Y-106992340D01*
X133495688Y-107111084D01*
X133550339Y-107243025D01*
X133578200Y-107383092D01*
X133578200Y-107525908D01*
X133550339Y-107665975D01*
X133495688Y-107797916D01*
X133416345Y-107916660D01*
X133315360Y-108017645D01*
X133196616Y-108096988D01*
X133064675Y-108151639D01*
X132924608Y-108179500D01*
X132781792Y-108179500D01*
X132641725Y-108151639D01*
X132509784Y-108096988D01*
X132391040Y-108017645D01*
X132290055Y-107916660D01*
X132210712Y-107797916D01*
X132156061Y-107665975D01*
X132128200Y-107525908D01*
X132128200Y-107383092D01*
X132156061Y-107243025D01*
X132210712Y-107111084D01*
X132290055Y-106992340D01*
X132391040Y-106891355D01*
X132509784Y-106812012D01*
X132641725Y-106757361D01*
X132781792Y-106729500D01*
X132924608Y-106729500D01*
X133064675Y-106757361D01*
X133064675Y-106757361D01*
G37*
G36*
X128064675Y-106757361D02*
G01*
X128196616Y-106812012D01*
X128315360Y-106891355D01*
X128416345Y-106992340D01*
X128495688Y-107111084D01*
X128550339Y-107243025D01*
X128578200Y-107383092D01*
X128578200Y-107525908D01*
X128550339Y-107665975D01*
X128495688Y-107797916D01*
X128416345Y-107916660D01*
X128315360Y-108017645D01*
X128196616Y-108096988D01*
X128064675Y-108151639D01*
X127924608Y-108179500D01*
X127781792Y-108179500D01*
X127641725Y-108151639D01*
X127509784Y-108096988D01*
X127391040Y-108017645D01*
X127290055Y-107916660D01*
X127210712Y-107797916D01*
X127156061Y-107665975D01*
X127128200Y-107525908D01*
X127128200Y-107383092D01*
X127156061Y-107243025D01*
X127210712Y-107111084D01*
X127290055Y-106992340D01*
X127391040Y-106891355D01*
X127509784Y-106812012D01*
X127641725Y-106757361D01*
X127781792Y-106729500D01*
X127924608Y-106729500D01*
X128064675Y-106757361D01*
X128064675Y-106757361D01*
G37*
G36*
X146826627Y-102426299D02*
G01*
X146906742Y-102450601D01*
X146986855Y-102474903D01*
X146986857Y-102474904D01*
X147134518Y-102553831D01*
X147263949Y-102660051D01*
X147370169Y-102789482D01*
X147449096Y-102937143D01*
X147497701Y-103097373D01*
X147514112Y-103264000D01*
X147497701Y-103430627D01*
X147449096Y-103590857D01*
X147370169Y-103738518D01*
X147263949Y-103867949D01*
X147134518Y-103974169D01*
X146986857Y-104053096D01*
X146986855Y-104053097D01*
X146906742Y-104077399D01*
X146826627Y-104101701D01*
X146701752Y-104114000D01*
X146618248Y-104114000D01*
X146493373Y-104101701D01*
X146413258Y-104077399D01*
X146333145Y-104053097D01*
X146333143Y-104053096D01*
X146185482Y-103974169D01*
X146056051Y-103867949D01*
X145949831Y-103738518D01*
X145870904Y-103590857D01*
X145822299Y-103430627D01*
X145805888Y-103264000D01*
X145822299Y-103097373D01*
X145870904Y-102937143D01*
X145949831Y-102789482D01*
X146056051Y-102660051D01*
X146185482Y-102553831D01*
X146333143Y-102474904D01*
X146333145Y-102474903D01*
X146413258Y-102450601D01*
X146493373Y-102426299D01*
X146618248Y-102414000D01*
X146701752Y-102414000D01*
X146826627Y-102426299D01*
X146826627Y-102426299D01*
G37*
G36*
X149366627Y-102426299D02*
G01*
X149446742Y-102450601D01*
X149526855Y-102474903D01*
X149526857Y-102474904D01*
X149674518Y-102553831D01*
X149803949Y-102660051D01*
X149910169Y-102789482D01*
X149989096Y-102937143D01*
X150037701Y-103097373D01*
X150054112Y-103264000D01*
X150037701Y-103430627D01*
X149989096Y-103590857D01*
X149910169Y-103738518D01*
X149803949Y-103867949D01*
X149674518Y-103974169D01*
X149526857Y-104053096D01*
X149526855Y-104053097D01*
X149446742Y-104077399D01*
X149366627Y-104101701D01*
X149241752Y-104114000D01*
X149158248Y-104114000D01*
X149033373Y-104101701D01*
X148953258Y-104077399D01*
X148873145Y-104053097D01*
X148873143Y-104053096D01*
X148725482Y-103974169D01*
X148596051Y-103867949D01*
X148489831Y-103738518D01*
X148410904Y-103590857D01*
X148362299Y-103430627D01*
X148345888Y-103264000D01*
X148362299Y-103097373D01*
X148410904Y-102937143D01*
X148489831Y-102789482D01*
X148596051Y-102660051D01*
X148725482Y-102553831D01*
X148873143Y-102474904D01*
X148873145Y-102474903D01*
X148953258Y-102450601D01*
X149033373Y-102426299D01*
X149158248Y-102414000D01*
X149241752Y-102414000D01*
X149366627Y-102426299D01*
X149366627Y-102426299D01*
G37*
G36*
X151906627Y-102426299D02*
G01*
X151986742Y-102450601D01*
X152066855Y-102474903D01*
X152066857Y-102474904D01*
X152214518Y-102553831D01*
X152343949Y-102660051D01*
X152450169Y-102789482D01*
X152529096Y-102937143D01*
X152577701Y-103097373D01*
X152594112Y-103264000D01*
X152577701Y-103430627D01*
X152529096Y-103590857D01*
X152450169Y-103738518D01*
X152343949Y-103867949D01*
X152214518Y-103974169D01*
X152066857Y-104053096D01*
X152066855Y-104053097D01*
X151986742Y-104077399D01*
X151906627Y-104101701D01*
X151781752Y-104114000D01*
X151698248Y-104114000D01*
X151573373Y-104101701D01*
X151493258Y-104077399D01*
X151413145Y-104053097D01*
X151413143Y-104053096D01*
X151265482Y-103974169D01*
X151136051Y-103867949D01*
X151029831Y-103738518D01*
X150950904Y-103590857D01*
X150902299Y-103430627D01*
X150885888Y-103264000D01*
X150902299Y-103097373D01*
X150950904Y-102937143D01*
X151029831Y-102789482D01*
X151136051Y-102660051D01*
X151265482Y-102553831D01*
X151413143Y-102474904D01*
X151413145Y-102474903D01*
X151493258Y-102450601D01*
X151573373Y-102426299D01*
X151698248Y-102414000D01*
X151781752Y-102414000D01*
X151906627Y-102426299D01*
X151906627Y-102426299D01*
G37*
G36*
X154446627Y-102426299D02*
G01*
X154526742Y-102450601D01*
X154606855Y-102474903D01*
X154606857Y-102474904D01*
X154754518Y-102553831D01*
X154883949Y-102660051D01*
X154990169Y-102789482D01*
X155069096Y-102937143D01*
X155117701Y-103097373D01*
X155134112Y-103264000D01*
X155117701Y-103430627D01*
X155069096Y-103590857D01*
X154990169Y-103738518D01*
X154883949Y-103867949D01*
X154754518Y-103974169D01*
X154606857Y-104053096D01*
X154606855Y-104053097D01*
X154526742Y-104077399D01*
X154446627Y-104101701D01*
X154321752Y-104114000D01*
X154238248Y-104114000D01*
X154113373Y-104101701D01*
X154033258Y-104077399D01*
X153953145Y-104053097D01*
X153953143Y-104053096D01*
X153805482Y-103974169D01*
X153676051Y-103867949D01*
X153569831Y-103738518D01*
X153490904Y-103590857D01*
X153442299Y-103430627D01*
X153425888Y-103264000D01*
X153442299Y-103097373D01*
X153490904Y-102937143D01*
X153569831Y-102789482D01*
X153676051Y-102660051D01*
X153805482Y-102553831D01*
X153953143Y-102474904D01*
X153953145Y-102474903D01*
X154033258Y-102450601D01*
X154113373Y-102426299D01*
X154238248Y-102414000D01*
X154321752Y-102414000D01*
X154446627Y-102426299D01*
X154446627Y-102426299D01*
G37*
G36*
X157670000Y-104114000D02*
G01*
X155970000Y-104114000D01*
X155970000Y-102414000D01*
X157670000Y-102414000D01*
X157670000Y-104114000D01*
X157670000Y-104114000D01*
G37*
G36*
X173348843Y-102463214D02*
G01*
X173377065Y-102474904D01*
X173439839Y-102500906D01*
X173481063Y-102528451D01*
X173521730Y-102555624D01*
X173591376Y-102625270D01*
X173646095Y-102707163D01*
X173683786Y-102798157D01*
X173703000Y-102894753D01*
X173703000Y-102993247D01*
X173683786Y-103089843D01*
X173683785Y-103089845D01*
X173646094Y-103180839D01*
X173591375Y-103262731D01*
X173521731Y-103332375D01*
X173439839Y-103387094D01*
X173439838Y-103387095D01*
X173439837Y-103387095D01*
X173348843Y-103424786D01*
X173252247Y-103444000D01*
X173153753Y-103444000D01*
X173057157Y-103424786D01*
X172966163Y-103387095D01*
X172966162Y-103387095D01*
X172966161Y-103387094D01*
X172884269Y-103332375D01*
X172814625Y-103262731D01*
X172759906Y-103180839D01*
X172722215Y-103089845D01*
X172722214Y-103089843D01*
X172703000Y-102993247D01*
X172703000Y-102894753D01*
X172722214Y-102798157D01*
X172759905Y-102707163D01*
X172814624Y-102625270D01*
X172884270Y-102555624D01*
X172924937Y-102528451D01*
X172966161Y-102500906D01*
X173028935Y-102474904D01*
X173057157Y-102463214D01*
X173153753Y-102444000D01*
X173252247Y-102444000D01*
X173348843Y-102463214D01*
X173348843Y-102463214D01*
G37*
G36*
X180037127Y-96330299D02*
G01*
X180117242Y-96354602D01*
X180197355Y-96378903D01*
X180197357Y-96378904D01*
X180345018Y-96457831D01*
X180474449Y-96564051D01*
X180580668Y-96693481D01*
X180659597Y-96841145D01*
X180683899Y-96921258D01*
X180708201Y-97001373D01*
X180724612Y-97168000D01*
X180708201Y-97334627D01*
X180708200Y-97334629D01*
X180665142Y-97476576D01*
X180659596Y-97494857D01*
X180580669Y-97642518D01*
X180474449Y-97771949D01*
X180345018Y-97878169D01*
X180197357Y-97957096D01*
X180197355Y-97957097D01*
X180117242Y-97981398D01*
X180037127Y-98005701D01*
X179912252Y-98018000D01*
X179828748Y-98018000D01*
X179703873Y-98005701D01*
X179623758Y-97981398D01*
X179543645Y-97957097D01*
X179543643Y-97957096D01*
X179395982Y-97878169D01*
X179266551Y-97771949D01*
X179160331Y-97642518D01*
X179081404Y-97494857D01*
X179075859Y-97476576D01*
X179032800Y-97334629D01*
X179032799Y-97334627D01*
X179016388Y-97168000D01*
X179032799Y-97001373D01*
X179057101Y-96921258D01*
X179081403Y-96841145D01*
X179160332Y-96693481D01*
X179266551Y-96564051D01*
X179395982Y-96457831D01*
X179543643Y-96378904D01*
X179543645Y-96378903D01*
X179623758Y-96354602D01*
X179703873Y-96330299D01*
X179828748Y-96318000D01*
X179912252Y-96318000D01*
X180037127Y-96330299D01*
X180037127Y-96330299D01*
G37*
G36*
X173366790Y-96028519D02*
G01*
X173431189Y-96041329D01*
X173613178Y-96116711D01*
X173776963Y-96226149D01*
X173916251Y-96365437D01*
X174025689Y-96529222D01*
X174101071Y-96711211D01*
X174139500Y-96904409D01*
X174139500Y-97101391D01*
X174101071Y-97294589D01*
X174025689Y-97476578D01*
X173916251Y-97640363D01*
X173776963Y-97779651D01*
X173613178Y-97889089D01*
X173431189Y-97964471D01*
X173366790Y-97977281D01*
X173237993Y-98002900D01*
X173041007Y-98002900D01*
X172912210Y-97977281D01*
X172847811Y-97964471D01*
X172665822Y-97889089D01*
X172502037Y-97779651D01*
X172362749Y-97640363D01*
X172253311Y-97476578D01*
X172177929Y-97294589D01*
X172139500Y-97101391D01*
X172139500Y-96904409D01*
X172177929Y-96711211D01*
X172253311Y-96529222D01*
X172362749Y-96365437D01*
X172502037Y-96226149D01*
X172665822Y-96116711D01*
X172847811Y-96041329D01*
X172912210Y-96028519D01*
X173041007Y-96002900D01*
X173237993Y-96002900D01*
X173366790Y-96028519D01*
X173366790Y-96028519D01*
G37*
G36*
X180720500Y-95478000D02*
G01*
X179020500Y-95478000D01*
X179020500Y-93778000D01*
X180720500Y-93778000D01*
X180720500Y-95478000D01*
X180720500Y-95478000D01*
G37*
G36*
X170702627Y-90297799D02*
G01*
X170782742Y-90322101D01*
X170862855Y-90346403D01*
X170862857Y-90346404D01*
X171010518Y-90425331D01*
X171139949Y-90531551D01*
X171246169Y-90660982D01*
X171325096Y-90808643D01*
X171373701Y-90968873D01*
X171390112Y-91135500D01*
X171373701Y-91302127D01*
X171325096Y-91462357D01*
X171246169Y-91610018D01*
X171139949Y-91739449D01*
X171010518Y-91845669D01*
X170862857Y-91924596D01*
X170862855Y-91924597D01*
X170782742Y-91948899D01*
X170702627Y-91973201D01*
X170577752Y-91985500D01*
X170494248Y-91985500D01*
X170369373Y-91973201D01*
X170289258Y-91948899D01*
X170209145Y-91924597D01*
X170209143Y-91924596D01*
X170061482Y-91845669D01*
X169932051Y-91739449D01*
X169825831Y-91610018D01*
X169746904Y-91462357D01*
X169698299Y-91302127D01*
X169681888Y-91135500D01*
X169698299Y-90968873D01*
X169746904Y-90808643D01*
X169825831Y-90660982D01*
X169932051Y-90531551D01*
X170061482Y-90425331D01*
X170209143Y-90346404D01*
X170209145Y-90346403D01*
X170289258Y-90322101D01*
X170369373Y-90297799D01*
X170494248Y-90285500D01*
X170577752Y-90285500D01*
X170702627Y-90297799D01*
X170702627Y-90297799D01*
G37*
G36*
X168162627Y-90297799D02*
G01*
X168242742Y-90322101D01*
X168322855Y-90346403D01*
X168322857Y-90346404D01*
X168470518Y-90425331D01*
X168599949Y-90531551D01*
X168706169Y-90660982D01*
X168785096Y-90808643D01*
X168833701Y-90968873D01*
X168850112Y-91135500D01*
X168833701Y-91302127D01*
X168785096Y-91462357D01*
X168706169Y-91610018D01*
X168599949Y-91739449D01*
X168470518Y-91845669D01*
X168322857Y-91924596D01*
X168322855Y-91924597D01*
X168242742Y-91948899D01*
X168162627Y-91973201D01*
X168037752Y-91985500D01*
X167954248Y-91985500D01*
X167829373Y-91973201D01*
X167749258Y-91948899D01*
X167669145Y-91924597D01*
X167669143Y-91924596D01*
X167521482Y-91845669D01*
X167392051Y-91739449D01*
X167285831Y-91610018D01*
X167206904Y-91462357D01*
X167158299Y-91302127D01*
X167141888Y-91135500D01*
X167158299Y-90968873D01*
X167206904Y-90808643D01*
X167285831Y-90660982D01*
X167392051Y-90531551D01*
X167521482Y-90425331D01*
X167669143Y-90346404D01*
X167669145Y-90346403D01*
X167749258Y-90322101D01*
X167829373Y-90297799D01*
X167954248Y-90285500D01*
X168037752Y-90285500D01*
X168162627Y-90297799D01*
X168162627Y-90297799D01*
G37*
G36*
X168162627Y-87757799D02*
G01*
X168242742Y-87782101D01*
X168322855Y-87806403D01*
X168322857Y-87806404D01*
X168470518Y-87885331D01*
X168599949Y-87991551D01*
X168706169Y-88120982D01*
X168785096Y-88268643D01*
X168833701Y-88428873D01*
X168850112Y-88595500D01*
X168833701Y-88762127D01*
X168785096Y-88922357D01*
X168706169Y-89070018D01*
X168599949Y-89199449D01*
X168470518Y-89305669D01*
X168322857Y-89384596D01*
X168322855Y-89384597D01*
X168242742Y-89408899D01*
X168162627Y-89433201D01*
X168037752Y-89445500D01*
X167954248Y-89445500D01*
X167829373Y-89433201D01*
X167749258Y-89408899D01*
X167669145Y-89384597D01*
X167669143Y-89384596D01*
X167521482Y-89305669D01*
X167392051Y-89199449D01*
X167285831Y-89070018D01*
X167206904Y-88922357D01*
X167158299Y-88762127D01*
X167141888Y-88595500D01*
X167158299Y-88428873D01*
X167206904Y-88268643D01*
X167285831Y-88120982D01*
X167392051Y-87991551D01*
X167521482Y-87885331D01*
X167669143Y-87806404D01*
X167669145Y-87806403D01*
X167749258Y-87782101D01*
X167829373Y-87757799D01*
X167954248Y-87745500D01*
X168037752Y-87745500D01*
X168162627Y-87757799D01*
X168162627Y-87757799D01*
G37*
G36*
X170702627Y-87757799D02*
G01*
X170782742Y-87782101D01*
X170862855Y-87806403D01*
X170862857Y-87806404D01*
X171010518Y-87885331D01*
X171139949Y-87991551D01*
X171246169Y-88120982D01*
X171325096Y-88268643D01*
X171373701Y-88428873D01*
X171390112Y-88595500D01*
X171373701Y-88762127D01*
X171325096Y-88922357D01*
X171246169Y-89070018D01*
X171139949Y-89199449D01*
X171010518Y-89305669D01*
X170862857Y-89384596D01*
X170862855Y-89384597D01*
X170782742Y-89408899D01*
X170702627Y-89433201D01*
X170577752Y-89445500D01*
X170494248Y-89445500D01*
X170369373Y-89433201D01*
X170289258Y-89408899D01*
X170209145Y-89384597D01*
X170209143Y-89384596D01*
X170061482Y-89305669D01*
X169932051Y-89199449D01*
X169825831Y-89070018D01*
X169746904Y-88922357D01*
X169698299Y-88762127D01*
X169681888Y-88595500D01*
X169698299Y-88428873D01*
X169746904Y-88268643D01*
X169825831Y-88120982D01*
X169932051Y-87991551D01*
X170061482Y-87885331D01*
X170209143Y-87806404D01*
X170209145Y-87806403D01*
X170289258Y-87782101D01*
X170369373Y-87757799D01*
X170494248Y-87745500D01*
X170577752Y-87745500D01*
X170702627Y-87757799D01*
X170702627Y-87757799D01*
G37*
G36*
X168162627Y-85217799D02*
G01*
X168242742Y-85242101D01*
X168322855Y-85266403D01*
X168322857Y-85266404D01*
X168470518Y-85345331D01*
X168599949Y-85451551D01*
X168706169Y-85580982D01*
X168785096Y-85728643D01*
X168833701Y-85888873D01*
X168850112Y-86055500D01*
X168833701Y-86222127D01*
X168785096Y-86382357D01*
X168706169Y-86530018D01*
X168599949Y-86659449D01*
X168470518Y-86765669D01*
X168322857Y-86844596D01*
X168322855Y-86844597D01*
X168242742Y-86868899D01*
X168162627Y-86893201D01*
X168037752Y-86905500D01*
X167954248Y-86905500D01*
X167829373Y-86893201D01*
X167749258Y-86868899D01*
X167669145Y-86844597D01*
X167669143Y-86844596D01*
X167521482Y-86765669D01*
X167392051Y-86659449D01*
X167285831Y-86530018D01*
X167206904Y-86382357D01*
X167158299Y-86222127D01*
X167141888Y-86055500D01*
X167158299Y-85888873D01*
X167206904Y-85728643D01*
X167285831Y-85580982D01*
X167392051Y-85451551D01*
X167521482Y-85345331D01*
X167669143Y-85266404D01*
X167669145Y-85266403D01*
X167749258Y-85242101D01*
X167829373Y-85217799D01*
X167954248Y-85205500D01*
X168037752Y-85205500D01*
X168162627Y-85217799D01*
X168162627Y-85217799D01*
G37*
G36*
X170702627Y-85217799D02*
G01*
X170782742Y-85242101D01*
X170862855Y-85266403D01*
X170862857Y-85266404D01*
X171010518Y-85345331D01*
X171139949Y-85451551D01*
X171246169Y-85580982D01*
X171325096Y-85728643D01*
X171373701Y-85888873D01*
X171390112Y-86055500D01*
X171373701Y-86222127D01*
X171325096Y-86382357D01*
X171246169Y-86530018D01*
X171139949Y-86659449D01*
X171010518Y-86765669D01*
X170862857Y-86844596D01*
X170862855Y-86844597D01*
X170782742Y-86868899D01*
X170702627Y-86893201D01*
X170577752Y-86905500D01*
X170494248Y-86905500D01*
X170369373Y-86893201D01*
X170289258Y-86868899D01*
X170209145Y-86844597D01*
X170209143Y-86844596D01*
X170061482Y-86765669D01*
X169932051Y-86659449D01*
X169825831Y-86530018D01*
X169746904Y-86382357D01*
X169698299Y-86222127D01*
X169681888Y-86055500D01*
X169698299Y-85888873D01*
X169746904Y-85728643D01*
X169825831Y-85580982D01*
X169932051Y-85451551D01*
X170061482Y-85345331D01*
X170209143Y-85266404D01*
X170209145Y-85266403D01*
X170289258Y-85242101D01*
X170369373Y-85217799D01*
X170494248Y-85205500D01*
X170577752Y-85205500D01*
X170702627Y-85217799D01*
X170702627Y-85217799D01*
G37*
G36*
X170702627Y-82677799D02*
G01*
X170782742Y-82702102D01*
X170862855Y-82726403D01*
X170862857Y-82726404D01*
X171010518Y-82805331D01*
X171139949Y-82911551D01*
X171246169Y-83040982D01*
X171325096Y-83188643D01*
X171373701Y-83348873D01*
X171390112Y-83515500D01*
X171373701Y-83682127D01*
X171325096Y-83842357D01*
X171246169Y-83990018D01*
X171139949Y-84119449D01*
X171010518Y-84225669D01*
X170862857Y-84304596D01*
X170862855Y-84304597D01*
X170782742Y-84328898D01*
X170702627Y-84353201D01*
X170577752Y-84365500D01*
X170494248Y-84365500D01*
X170369373Y-84353201D01*
X170289258Y-84328898D01*
X170209145Y-84304597D01*
X170209143Y-84304596D01*
X170061482Y-84225669D01*
X169932051Y-84119449D01*
X169825831Y-83990018D01*
X169746904Y-83842357D01*
X169698299Y-83682127D01*
X169681888Y-83515500D01*
X169698299Y-83348873D01*
X169746904Y-83188643D01*
X169825831Y-83040982D01*
X169932051Y-82911551D01*
X170061482Y-82805331D01*
X170209143Y-82726404D01*
X170209145Y-82726403D01*
X170289258Y-82702102D01*
X170369373Y-82677799D01*
X170494248Y-82665500D01*
X170577752Y-82665500D01*
X170702627Y-82677799D01*
X170702627Y-82677799D01*
G37*
G36*
X168846000Y-84365500D02*
G01*
X167146000Y-84365500D01*
X167146000Y-82665500D01*
X168846000Y-82665500D01*
X168846000Y-84365500D01*
X168846000Y-84365500D01*
G37*
G36*
X136476127Y-68136299D02*
G01*
X136556242Y-68160602D01*
X136636355Y-68184903D01*
X136636357Y-68184904D01*
X136784018Y-68263831D01*
X136913449Y-68370051D01*
X137019669Y-68499482D01*
X137098596Y-68647143D01*
X137147201Y-68807373D01*
X137163612Y-68974000D01*
X137147201Y-69140627D01*
X137098596Y-69300857D01*
X137019669Y-69448518D01*
X136913449Y-69577949D01*
X136784018Y-69684169D01*
X136636357Y-69763096D01*
X136636355Y-69763097D01*
X136556242Y-69787399D01*
X136476127Y-69811701D01*
X136351252Y-69824000D01*
X136267748Y-69824000D01*
X136142873Y-69811701D01*
X136062758Y-69787399D01*
X135982645Y-69763097D01*
X135982643Y-69763096D01*
X135834982Y-69684169D01*
X135705551Y-69577949D01*
X135599331Y-69448518D01*
X135520404Y-69300857D01*
X135471799Y-69140627D01*
X135455388Y-68974000D01*
X135471799Y-68807373D01*
X135520404Y-68647143D01*
X135599331Y-68499482D01*
X135705551Y-68370051D01*
X135834982Y-68263831D01*
X135982643Y-68184904D01*
X135982645Y-68184903D01*
X136062758Y-68160602D01*
X136142873Y-68136299D01*
X136267748Y-68124000D01*
X136351252Y-68124000D01*
X136476127Y-68136299D01*
X136476127Y-68136299D01*
G37*
G36*
X136557435Y-65616664D02*
G01*
X136712124Y-65680739D01*
X136712126Y-65680740D01*
X136851344Y-65773762D01*
X136969738Y-65892156D01*
X137062760Y-66031374D01*
X137062761Y-66031376D01*
X137126836Y-66186065D01*
X137159500Y-66350281D01*
X137159500Y-66517719D01*
X137126836Y-66681935D01*
X137062761Y-66836624D01*
X137062760Y-66836626D01*
X136969738Y-66975844D01*
X136851344Y-67094238D01*
X136712126Y-67187260D01*
X136712125Y-67187261D01*
X136712124Y-67187261D01*
X136557435Y-67251336D01*
X136393219Y-67284000D01*
X136225781Y-67284000D01*
X136061565Y-67251336D01*
X135906876Y-67187261D01*
X135906875Y-67187261D01*
X135906874Y-67187260D01*
X135767656Y-67094238D01*
X135649262Y-66975844D01*
X135556240Y-66836626D01*
X135556239Y-66836624D01*
X135492164Y-66681935D01*
X135459500Y-66517719D01*
X135459500Y-66350281D01*
X135492164Y-66186065D01*
X135556239Y-66031376D01*
X135556240Y-66031374D01*
X135649262Y-65892156D01*
X135767656Y-65773762D01*
X135906874Y-65680740D01*
X135906876Y-65680739D01*
X136061565Y-65616664D01*
X136225781Y-65584000D01*
X136393219Y-65584000D01*
X136557435Y-65616664D01*
X136557435Y-65616664D01*
G37*
G36*
X124213158Y-55861238D02*
G01*
X124822818Y-56113768D01*
X124822820Y-56113769D01*
X125371500Y-56480385D01*
X125838115Y-56947000D01*
X126197648Y-57485079D01*
X126204732Y-57495682D01*
X126457262Y-58105342D01*
X126586000Y-58752552D01*
X126586000Y-59412448D01*
X126457262Y-60059658D01*
X126239896Y-60584424D01*
X126204731Y-60669320D01*
X125838115Y-61218000D01*
X125371500Y-61684615D01*
X124822820Y-62051231D01*
X124822819Y-62051232D01*
X124822818Y-62051232D01*
X124213158Y-62303762D01*
X123565948Y-62432500D01*
X122906052Y-62432500D01*
X122258842Y-62303762D01*
X121649182Y-62051232D01*
X121649181Y-62051232D01*
X121649180Y-62051231D01*
X121100500Y-61684615D01*
X120633885Y-61218000D01*
X120267269Y-60669320D01*
X120232104Y-60584424D01*
X120014738Y-60059658D01*
X119886000Y-59412448D01*
X119886000Y-58752552D01*
X120014738Y-58105342D01*
X120267268Y-57495682D01*
X120274353Y-57485079D01*
X120633885Y-56947000D01*
X121100500Y-56480385D01*
X121649180Y-56113769D01*
X121649182Y-56113768D01*
X122258842Y-55861238D01*
X122906052Y-55732500D01*
X123565948Y-55732500D01*
X124213158Y-55861238D01*
X124213158Y-55861238D01*
G37*
G36*
X182213158Y-55861238D02*
G01*
X182822818Y-56113768D01*
X182822820Y-56113769D01*
X183371500Y-56480385D01*
X183838115Y-56947000D01*
X184197648Y-57485079D01*
X184204732Y-57495682D01*
X184457262Y-58105342D01*
X184586000Y-58752552D01*
X184586000Y-59412448D01*
X184457262Y-60059658D01*
X184239896Y-60584424D01*
X184204731Y-60669320D01*
X183838115Y-61218000D01*
X183371500Y-61684615D01*
X182822820Y-62051231D01*
X182822819Y-62051232D01*
X182822818Y-62051232D01*
X182213158Y-62303762D01*
X181565948Y-62432500D01*
X180906052Y-62432500D01*
X180258842Y-62303762D01*
X179649182Y-62051232D01*
X179649181Y-62051232D01*
X179649180Y-62051231D01*
X179100500Y-61684615D01*
X178633885Y-61218000D01*
X178267269Y-60669320D01*
X178232104Y-60584424D01*
X178014738Y-60059658D01*
X177886000Y-59412448D01*
X177886000Y-58752552D01*
X178014738Y-58105342D01*
X178267268Y-57495682D01*
X178274353Y-57485079D01*
X178633885Y-56947000D01*
X179100500Y-56480385D01*
X179649180Y-56113769D01*
X179649182Y-56113768D01*
X180258842Y-55861238D01*
X180906052Y-55732500D01*
X181565948Y-55732500D01*
X182213158Y-55861238D01*
X182213158Y-55861238D01*
G37*
G36*
X156161997Y-59510780D02*
G01*
X156173422Y-59511905D01*
X156234684Y-59530489D01*
X156295947Y-59549073D01*
X156408867Y-59609430D01*
X156507843Y-59690657D01*
X156589070Y-59789632D01*
X156649427Y-59902552D01*
X156686595Y-60025078D01*
X156696000Y-60120568D01*
X156696000Y-60584431D01*
X156686595Y-60679922D01*
X156649427Y-60802448D01*
X156589070Y-60915368D01*
X156507843Y-61014343D01*
X156408868Y-61095570D01*
X156295948Y-61155927D01*
X156234685Y-61174511D01*
X156173423Y-61193095D01*
X156161998Y-61194220D01*
X156046000Y-61205645D01*
X155930003Y-61194220D01*
X155918578Y-61193095D01*
X155857316Y-61174511D01*
X155796053Y-61155927D01*
X155683133Y-61095570D01*
X155584158Y-61014343D01*
X155502930Y-60915368D01*
X155442573Y-60802448D01*
X155405405Y-60679922D01*
X155396000Y-60584432D01*
X155396000Y-60120569D01*
X155405405Y-60025079D01*
X155405406Y-60025077D01*
X155442573Y-59902554D01*
X155442573Y-59902553D01*
X155502930Y-59789633D01*
X155584157Y-59690657D01*
X155683132Y-59609430D01*
X155796052Y-59549073D01*
X155857315Y-59530489D01*
X155918577Y-59511905D01*
X155930002Y-59510780D01*
X156046000Y-59499355D01*
X156161997Y-59510780D01*
X156161997Y-59510780D01*
G37*
G36*
X158701997Y-59510780D02*
G01*
X158713422Y-59511905D01*
X158774684Y-59530489D01*
X158835947Y-59549073D01*
X158948867Y-59609430D01*
X159047843Y-59690657D01*
X159129070Y-59789632D01*
X159189427Y-59902552D01*
X159226595Y-60025078D01*
X159236000Y-60120568D01*
X159236000Y-60584431D01*
X159226595Y-60679922D01*
X159189427Y-60802448D01*
X159129070Y-60915368D01*
X159047843Y-61014343D01*
X158948868Y-61095570D01*
X158835948Y-61155927D01*
X158774685Y-61174511D01*
X158713423Y-61193095D01*
X158701998Y-61194220D01*
X158586000Y-61205645D01*
X158470003Y-61194220D01*
X158458578Y-61193095D01*
X158397316Y-61174511D01*
X158336053Y-61155927D01*
X158223133Y-61095570D01*
X158124158Y-61014343D01*
X158042930Y-60915368D01*
X157982573Y-60802448D01*
X157945405Y-60679922D01*
X157936000Y-60584432D01*
X157936000Y-60120569D01*
X157945405Y-60025079D01*
X157945406Y-60025077D01*
X157982573Y-59902554D01*
X157982573Y-59902553D01*
X158042930Y-59789633D01*
X158124157Y-59690657D01*
X158223132Y-59609430D01*
X158336052Y-59549073D01*
X158397315Y-59530489D01*
X158458577Y-59511905D01*
X158470002Y-59510780D01*
X158586000Y-59499355D01*
X158701997Y-59510780D01*
X158701997Y-59510780D01*
G37*
G36*
X161241997Y-59510780D02*
G01*
X161253422Y-59511905D01*
X161314684Y-59530489D01*
X161375947Y-59549073D01*
X161488867Y-59609430D01*
X161587843Y-59690657D01*
X161669070Y-59789632D01*
X161729427Y-59902552D01*
X161766595Y-60025078D01*
X161776000Y-60120568D01*
X161776000Y-60584431D01*
X161766595Y-60679922D01*
X161729427Y-60802448D01*
X161669070Y-60915368D01*
X161587843Y-61014343D01*
X161488868Y-61095570D01*
X161375948Y-61155927D01*
X161314685Y-61174511D01*
X161253423Y-61193095D01*
X161241998Y-61194220D01*
X161126000Y-61205645D01*
X161010003Y-61194220D01*
X160998578Y-61193095D01*
X160937316Y-61174511D01*
X160876053Y-61155927D01*
X160763133Y-61095570D01*
X160664158Y-61014343D01*
X160582930Y-60915368D01*
X160522573Y-60802448D01*
X160485405Y-60679922D01*
X160476000Y-60584432D01*
X160476000Y-60120569D01*
X160485405Y-60025079D01*
X160485406Y-60025077D01*
X160522573Y-59902554D01*
X160522573Y-59902553D01*
X160582930Y-59789633D01*
X160664157Y-59690657D01*
X160763132Y-59609430D01*
X160876052Y-59549073D01*
X160937315Y-59530489D01*
X160998577Y-59511905D01*
X161010002Y-59510780D01*
X161126000Y-59499355D01*
X161241997Y-59510780D01*
X161241997Y-59510780D01*
G37*
G36*
X163781997Y-59510780D02*
G01*
X163793422Y-59511905D01*
X163854684Y-59530489D01*
X163915947Y-59549073D01*
X164028867Y-59609430D01*
X164127843Y-59690657D01*
X164209070Y-59789632D01*
X164269427Y-59902552D01*
X164306595Y-60025078D01*
X164316000Y-60120568D01*
X164316000Y-60584431D01*
X164306595Y-60679922D01*
X164269427Y-60802448D01*
X164209070Y-60915368D01*
X164127843Y-61014343D01*
X164028868Y-61095570D01*
X163915948Y-61155927D01*
X163854685Y-61174511D01*
X163793423Y-61193095D01*
X163781998Y-61194220D01*
X163666000Y-61205645D01*
X163550003Y-61194220D01*
X163538578Y-61193095D01*
X163477316Y-61174511D01*
X163416053Y-61155927D01*
X163303133Y-61095570D01*
X163204158Y-61014343D01*
X163122930Y-60915368D01*
X163062573Y-60802448D01*
X163025405Y-60679922D01*
X163016000Y-60584432D01*
X163016000Y-60120569D01*
X163025405Y-60025079D01*
X163025406Y-60025077D01*
X163062573Y-59902554D01*
X163062573Y-59902553D01*
X163122930Y-59789633D01*
X163204157Y-59690657D01*
X163303132Y-59609430D01*
X163416052Y-59549073D01*
X163477315Y-59530489D01*
X163538577Y-59511905D01*
X163550002Y-59510780D01*
X163666000Y-59499355D01*
X163781997Y-59510780D01*
X163781997Y-59510780D01*
G37*
G36*
X135841997Y-59510780D02*
G01*
X135853422Y-59511905D01*
X135914684Y-59530489D01*
X135975947Y-59549073D01*
X136088867Y-59609430D01*
X136187843Y-59690657D01*
X136269070Y-59789632D01*
X136329427Y-59902552D01*
X136366595Y-60025078D01*
X136376000Y-60120568D01*
X136376000Y-60584431D01*
X136366595Y-60679922D01*
X136329427Y-60802448D01*
X136269070Y-60915368D01*
X136187843Y-61014343D01*
X136088868Y-61095570D01*
X135975948Y-61155927D01*
X135914685Y-61174511D01*
X135853423Y-61193095D01*
X135841998Y-61194220D01*
X135726000Y-61205645D01*
X135610003Y-61194220D01*
X135598578Y-61193095D01*
X135537316Y-61174511D01*
X135476053Y-61155927D01*
X135363133Y-61095570D01*
X135264158Y-61014343D01*
X135182930Y-60915368D01*
X135122573Y-60802448D01*
X135085405Y-60679922D01*
X135076000Y-60584432D01*
X135076000Y-60120569D01*
X135085405Y-60025079D01*
X135085406Y-60025077D01*
X135122573Y-59902554D01*
X135122573Y-59902553D01*
X135182930Y-59789633D01*
X135264157Y-59690657D01*
X135363132Y-59609430D01*
X135476052Y-59549073D01*
X135537315Y-59530489D01*
X135598577Y-59511905D01*
X135610002Y-59510780D01*
X135726000Y-59499355D01*
X135841997Y-59510780D01*
X135841997Y-59510780D01*
G37*
G36*
X166321997Y-59510780D02*
G01*
X166333422Y-59511905D01*
X166394684Y-59530489D01*
X166455947Y-59549073D01*
X166568867Y-59609430D01*
X166667843Y-59690657D01*
X166749070Y-59789632D01*
X166809427Y-59902552D01*
X166846595Y-60025078D01*
X166856000Y-60120568D01*
X166856000Y-60584431D01*
X166846595Y-60679922D01*
X166809427Y-60802448D01*
X166749070Y-60915368D01*
X166667843Y-61014343D01*
X166568868Y-61095570D01*
X166455948Y-61155927D01*
X166394685Y-61174511D01*
X166333423Y-61193095D01*
X166321998Y-61194220D01*
X166206000Y-61205645D01*
X166090003Y-61194220D01*
X166078578Y-61193095D01*
X166017316Y-61174511D01*
X165956053Y-61155927D01*
X165843133Y-61095570D01*
X165744158Y-61014343D01*
X165662930Y-60915368D01*
X165602573Y-60802448D01*
X165565405Y-60679922D01*
X165556000Y-60584432D01*
X165556000Y-60120569D01*
X165565405Y-60025079D01*
X165565406Y-60025077D01*
X165602573Y-59902554D01*
X165602573Y-59902553D01*
X165662930Y-59789633D01*
X165744157Y-59690657D01*
X165843132Y-59609430D01*
X165956052Y-59549073D01*
X166017315Y-59530489D01*
X166078577Y-59511905D01*
X166090002Y-59510780D01*
X166206000Y-59499355D01*
X166321997Y-59510780D01*
X166321997Y-59510780D01*
G37*
G36*
X168861997Y-59510780D02*
G01*
X168873422Y-59511905D01*
X168934684Y-59530489D01*
X168995947Y-59549073D01*
X169108867Y-59609430D01*
X169207843Y-59690657D01*
X169289070Y-59789632D01*
X169349427Y-59902552D01*
X169386595Y-60025078D01*
X169396000Y-60120568D01*
X169396000Y-60584431D01*
X169386595Y-60679922D01*
X169349427Y-60802448D01*
X169289070Y-60915368D01*
X169207843Y-61014343D01*
X169108868Y-61095570D01*
X168995948Y-61155927D01*
X168934685Y-61174511D01*
X168873423Y-61193095D01*
X168861998Y-61194220D01*
X168746000Y-61205645D01*
X168630003Y-61194220D01*
X168618578Y-61193095D01*
X168557316Y-61174511D01*
X168496053Y-61155927D01*
X168383133Y-61095570D01*
X168284158Y-61014343D01*
X168202930Y-60915368D01*
X168142573Y-60802448D01*
X168105405Y-60679922D01*
X168096000Y-60584432D01*
X168096000Y-60120569D01*
X168105405Y-60025079D01*
X168105406Y-60025077D01*
X168142573Y-59902554D01*
X168142573Y-59902553D01*
X168202930Y-59789633D01*
X168284157Y-59690657D01*
X168383132Y-59609430D01*
X168496052Y-59549073D01*
X168557315Y-59530489D01*
X168618577Y-59511905D01*
X168630002Y-59510780D01*
X168746000Y-59499355D01*
X168861997Y-59510780D01*
X168861997Y-59510780D01*
G37*
G36*
X171401997Y-59510780D02*
G01*
X171413422Y-59511905D01*
X171474684Y-59530489D01*
X171535947Y-59549073D01*
X171648867Y-59609430D01*
X171747843Y-59690657D01*
X171829070Y-59789632D01*
X171889427Y-59902552D01*
X171926595Y-60025078D01*
X171936000Y-60120568D01*
X171936000Y-60584431D01*
X171926595Y-60679922D01*
X171889427Y-60802448D01*
X171829070Y-60915368D01*
X171747843Y-61014343D01*
X171648868Y-61095570D01*
X171535948Y-61155927D01*
X171474685Y-61174511D01*
X171413423Y-61193095D01*
X171401998Y-61194220D01*
X171286000Y-61205645D01*
X171170003Y-61194220D01*
X171158578Y-61193095D01*
X171097316Y-61174511D01*
X171036053Y-61155927D01*
X170923133Y-61095570D01*
X170824158Y-61014343D01*
X170742930Y-60915368D01*
X170682573Y-60802448D01*
X170645405Y-60679922D01*
X170636000Y-60584432D01*
X170636000Y-60120569D01*
X170645405Y-60025079D01*
X170645406Y-60025077D01*
X170682573Y-59902554D01*
X170682573Y-59902553D01*
X170742930Y-59789633D01*
X170824157Y-59690657D01*
X170923132Y-59609430D01*
X171036052Y-59549073D01*
X171097315Y-59530489D01*
X171158577Y-59511905D01*
X171170002Y-59510780D01*
X171286000Y-59499355D01*
X171401997Y-59510780D01*
X171401997Y-59510780D01*
G37*
G36*
X176481997Y-59510780D02*
G01*
X176493422Y-59511905D01*
X176554684Y-59530489D01*
X176615947Y-59549073D01*
X176728867Y-59609430D01*
X176827843Y-59690657D01*
X176909070Y-59789632D01*
X176969427Y-59902552D01*
X177006595Y-60025078D01*
X177016000Y-60120568D01*
X177016000Y-60584431D01*
X177006595Y-60679922D01*
X176969427Y-60802448D01*
X176909070Y-60915368D01*
X176827843Y-61014343D01*
X176728868Y-61095570D01*
X176615948Y-61155927D01*
X176554685Y-61174511D01*
X176493423Y-61193095D01*
X176481998Y-61194220D01*
X176366000Y-61205645D01*
X176250003Y-61194220D01*
X176238578Y-61193095D01*
X176177316Y-61174511D01*
X176116053Y-61155927D01*
X176003133Y-61095570D01*
X175904158Y-61014343D01*
X175822930Y-60915368D01*
X175762573Y-60802448D01*
X175725405Y-60679922D01*
X175716000Y-60584432D01*
X175716000Y-60120569D01*
X175725405Y-60025079D01*
X175725406Y-60025077D01*
X175762573Y-59902554D01*
X175762573Y-59902553D01*
X175822930Y-59789633D01*
X175904157Y-59690657D01*
X176003132Y-59609430D01*
X176116052Y-59549073D01*
X176177315Y-59530489D01*
X176238577Y-59511905D01*
X176250002Y-59510780D01*
X176366000Y-59499355D01*
X176481997Y-59510780D01*
X176481997Y-59510780D01*
G37*
G36*
X173941997Y-59510780D02*
G01*
X173953422Y-59511905D01*
X174014684Y-59530489D01*
X174075947Y-59549073D01*
X174188867Y-59609430D01*
X174287843Y-59690657D01*
X174369070Y-59789632D01*
X174429427Y-59902552D01*
X174466595Y-60025078D01*
X174476000Y-60120568D01*
X174476000Y-60584431D01*
X174466595Y-60679922D01*
X174429427Y-60802448D01*
X174369070Y-60915368D01*
X174287843Y-61014343D01*
X174188868Y-61095570D01*
X174075948Y-61155927D01*
X174014685Y-61174511D01*
X173953423Y-61193095D01*
X173941998Y-61194220D01*
X173826000Y-61205645D01*
X173710003Y-61194220D01*
X173698578Y-61193095D01*
X173637316Y-61174511D01*
X173576053Y-61155927D01*
X173463133Y-61095570D01*
X173364158Y-61014343D01*
X173282930Y-60915368D01*
X173222573Y-60802448D01*
X173185405Y-60679922D01*
X173176000Y-60584432D01*
X173176000Y-60120569D01*
X173185405Y-60025079D01*
X173185406Y-60025077D01*
X173222573Y-59902554D01*
X173222573Y-59902553D01*
X173282930Y-59789633D01*
X173364157Y-59690657D01*
X173463132Y-59609430D01*
X173576052Y-59549073D01*
X173637315Y-59530489D01*
X173698577Y-59511905D01*
X173710002Y-59510780D01*
X173826000Y-59499355D01*
X173941997Y-59510780D01*
X173941997Y-59510780D01*
G37*
G36*
X140921997Y-59510780D02*
G01*
X140933422Y-59511905D01*
X140994684Y-59530489D01*
X141055947Y-59549073D01*
X141168867Y-59609430D01*
X141267843Y-59690657D01*
X141349070Y-59789632D01*
X141409427Y-59902552D01*
X141446595Y-60025078D01*
X141456000Y-60120568D01*
X141456000Y-60584431D01*
X141446595Y-60679922D01*
X141409427Y-60802448D01*
X141349070Y-60915368D01*
X141267843Y-61014343D01*
X141168868Y-61095570D01*
X141055948Y-61155927D01*
X140994685Y-61174511D01*
X140933423Y-61193095D01*
X140921998Y-61194220D01*
X140806000Y-61205645D01*
X140690003Y-61194220D01*
X140678578Y-61193095D01*
X140617316Y-61174511D01*
X140556053Y-61155927D01*
X140443133Y-61095570D01*
X140344158Y-61014343D01*
X140262930Y-60915368D01*
X140202573Y-60802448D01*
X140165405Y-60679922D01*
X140156000Y-60584432D01*
X140156000Y-60120569D01*
X140165405Y-60025079D01*
X140165406Y-60025077D01*
X140202573Y-59902554D01*
X140202573Y-59902553D01*
X140262930Y-59789633D01*
X140344157Y-59690657D01*
X140443132Y-59609430D01*
X140556052Y-59549073D01*
X140617315Y-59530489D01*
X140678577Y-59511905D01*
X140690002Y-59510780D01*
X140806000Y-59499355D01*
X140921997Y-59510780D01*
X140921997Y-59510780D01*
G37*
G36*
X146001997Y-59510780D02*
G01*
X146013422Y-59511905D01*
X146074684Y-59530489D01*
X146135947Y-59549073D01*
X146248867Y-59609430D01*
X146347843Y-59690657D01*
X146429070Y-59789632D01*
X146489427Y-59902552D01*
X146526595Y-60025078D01*
X146536000Y-60120568D01*
X146536000Y-60584431D01*
X146526595Y-60679922D01*
X146489427Y-60802448D01*
X146429070Y-60915368D01*
X146347843Y-61014343D01*
X146248868Y-61095570D01*
X146135948Y-61155927D01*
X146074685Y-61174511D01*
X146013423Y-61193095D01*
X146001998Y-61194220D01*
X145886000Y-61205645D01*
X145770003Y-61194220D01*
X145758578Y-61193095D01*
X145697316Y-61174511D01*
X145636053Y-61155927D01*
X145523133Y-61095570D01*
X145424158Y-61014343D01*
X145342930Y-60915368D01*
X145282573Y-60802448D01*
X145245405Y-60679922D01*
X145236000Y-60584432D01*
X145236000Y-60120569D01*
X145245405Y-60025079D01*
X145245406Y-60025077D01*
X145282573Y-59902554D01*
X145282573Y-59902553D01*
X145342930Y-59789633D01*
X145424157Y-59690657D01*
X145523132Y-59609430D01*
X145636052Y-59549073D01*
X145697315Y-59530489D01*
X145758577Y-59511905D01*
X145770002Y-59510780D01*
X145886000Y-59499355D01*
X146001997Y-59510780D01*
X146001997Y-59510780D01*
G37*
G36*
X143461997Y-59510780D02*
G01*
X143473422Y-59511905D01*
X143534684Y-59530489D01*
X143595947Y-59549073D01*
X143708867Y-59609430D01*
X143807843Y-59690657D01*
X143889070Y-59789632D01*
X143949427Y-59902552D01*
X143986595Y-60025078D01*
X143996000Y-60120568D01*
X143996000Y-60584431D01*
X143986595Y-60679922D01*
X143949427Y-60802448D01*
X143889070Y-60915368D01*
X143807843Y-61014343D01*
X143708868Y-61095570D01*
X143595948Y-61155927D01*
X143534685Y-61174511D01*
X143473423Y-61193095D01*
X143461998Y-61194220D01*
X143346000Y-61205645D01*
X143230003Y-61194220D01*
X143218578Y-61193095D01*
X143157316Y-61174511D01*
X143096053Y-61155927D01*
X142983133Y-61095570D01*
X142884158Y-61014343D01*
X142802930Y-60915368D01*
X142742573Y-60802448D01*
X142705405Y-60679922D01*
X142696000Y-60584432D01*
X142696000Y-60120569D01*
X142705405Y-60025079D01*
X142705406Y-60025077D01*
X142742573Y-59902554D01*
X142742573Y-59902553D01*
X142802930Y-59789633D01*
X142884157Y-59690657D01*
X142983132Y-59609430D01*
X143096052Y-59549073D01*
X143157315Y-59530489D01*
X143218577Y-59511905D01*
X143230002Y-59510780D01*
X143346000Y-59499355D01*
X143461997Y-59510780D01*
X143461997Y-59510780D01*
G37*
G36*
X153621997Y-59510780D02*
G01*
X153633422Y-59511905D01*
X153694684Y-59530489D01*
X153755947Y-59549073D01*
X153868867Y-59609430D01*
X153967843Y-59690657D01*
X154049070Y-59789632D01*
X154109427Y-59902552D01*
X154146595Y-60025078D01*
X154156000Y-60120568D01*
X154156000Y-60584431D01*
X154146595Y-60679922D01*
X154109427Y-60802448D01*
X154049070Y-60915368D01*
X153967843Y-61014343D01*
X153868868Y-61095570D01*
X153755948Y-61155927D01*
X153694685Y-61174511D01*
X153633423Y-61193095D01*
X153621998Y-61194220D01*
X153506000Y-61205645D01*
X153390003Y-61194220D01*
X153378578Y-61193095D01*
X153317316Y-61174511D01*
X153256053Y-61155927D01*
X153143133Y-61095570D01*
X153044158Y-61014343D01*
X152962930Y-60915368D01*
X152902573Y-60802448D01*
X152865405Y-60679922D01*
X152856000Y-60584432D01*
X152856000Y-60120569D01*
X152865405Y-60025079D01*
X152865406Y-60025077D01*
X152902573Y-59902554D01*
X152902573Y-59902553D01*
X152962930Y-59789633D01*
X153044157Y-59690657D01*
X153143132Y-59609430D01*
X153256052Y-59549073D01*
X153317315Y-59530489D01*
X153378577Y-59511905D01*
X153390002Y-59510780D01*
X153506000Y-59499355D01*
X153621997Y-59510780D01*
X153621997Y-59510780D01*
G37*
G36*
X130761997Y-59510780D02*
G01*
X130773422Y-59511905D01*
X130834684Y-59530489D01*
X130895947Y-59549073D01*
X131008867Y-59609430D01*
X131107843Y-59690657D01*
X131189070Y-59789632D01*
X131249427Y-59902552D01*
X131286595Y-60025078D01*
X131296000Y-60120568D01*
X131296000Y-60584431D01*
X131286595Y-60679922D01*
X131249427Y-60802448D01*
X131189070Y-60915368D01*
X131107843Y-61014343D01*
X131008868Y-61095570D01*
X130895948Y-61155927D01*
X130834685Y-61174511D01*
X130773423Y-61193095D01*
X130761998Y-61194220D01*
X130646000Y-61205645D01*
X130530003Y-61194220D01*
X130518578Y-61193095D01*
X130457316Y-61174511D01*
X130396053Y-61155927D01*
X130283133Y-61095570D01*
X130184158Y-61014343D01*
X130102930Y-60915368D01*
X130042573Y-60802448D01*
X130005405Y-60679922D01*
X129996000Y-60584432D01*
X129996000Y-60120569D01*
X130005405Y-60025079D01*
X130005406Y-60025077D01*
X130042573Y-59902554D01*
X130042573Y-59902553D01*
X130102930Y-59789633D01*
X130184157Y-59690657D01*
X130283132Y-59609430D01*
X130396052Y-59549073D01*
X130457315Y-59530489D01*
X130518577Y-59511905D01*
X130530002Y-59510780D01*
X130646000Y-59499355D01*
X130761997Y-59510780D01*
X130761997Y-59510780D01*
G37*
G36*
X151081997Y-59510780D02*
G01*
X151093422Y-59511905D01*
X151154684Y-59530489D01*
X151215947Y-59549073D01*
X151328867Y-59609430D01*
X151427843Y-59690657D01*
X151509070Y-59789632D01*
X151569427Y-59902552D01*
X151606595Y-60025078D01*
X151616000Y-60120568D01*
X151616000Y-60584431D01*
X151606595Y-60679922D01*
X151569427Y-60802448D01*
X151509070Y-60915368D01*
X151427843Y-61014343D01*
X151328868Y-61095570D01*
X151215948Y-61155927D01*
X151154685Y-61174511D01*
X151093423Y-61193095D01*
X151081998Y-61194220D01*
X150966000Y-61205645D01*
X150850003Y-61194220D01*
X150838578Y-61193095D01*
X150777316Y-61174511D01*
X150716053Y-61155927D01*
X150603133Y-61095570D01*
X150504158Y-61014343D01*
X150422930Y-60915368D01*
X150362573Y-60802448D01*
X150325405Y-60679922D01*
X150316000Y-60584432D01*
X150316000Y-60120569D01*
X150325405Y-60025079D01*
X150325406Y-60025077D01*
X150362573Y-59902554D01*
X150362573Y-59902553D01*
X150422930Y-59789633D01*
X150504157Y-59690657D01*
X150603132Y-59609430D01*
X150716052Y-59549073D01*
X150777315Y-59530489D01*
X150838577Y-59511905D01*
X150850002Y-59510780D01*
X150966000Y-59499355D01*
X151081997Y-59510780D01*
X151081997Y-59510780D01*
G37*
G36*
X133301997Y-59510780D02*
G01*
X133313422Y-59511905D01*
X133374684Y-59530489D01*
X133435947Y-59549073D01*
X133548867Y-59609430D01*
X133647843Y-59690657D01*
X133729070Y-59789632D01*
X133789427Y-59902552D01*
X133826595Y-60025078D01*
X133836000Y-60120568D01*
X133836000Y-60584431D01*
X133826595Y-60679922D01*
X133789427Y-60802448D01*
X133729070Y-60915368D01*
X133647843Y-61014343D01*
X133548868Y-61095570D01*
X133435948Y-61155927D01*
X133374685Y-61174511D01*
X133313423Y-61193095D01*
X133301998Y-61194220D01*
X133186000Y-61205645D01*
X133070003Y-61194220D01*
X133058578Y-61193095D01*
X132997316Y-61174511D01*
X132936053Y-61155927D01*
X132823133Y-61095570D01*
X132724158Y-61014343D01*
X132642930Y-60915368D01*
X132582573Y-60802448D01*
X132545405Y-60679922D01*
X132536000Y-60584432D01*
X132536000Y-60120569D01*
X132545405Y-60025079D01*
X132545406Y-60025077D01*
X132582573Y-59902554D01*
X132582573Y-59902553D01*
X132642930Y-59789633D01*
X132724157Y-59690657D01*
X132823132Y-59609430D01*
X132936052Y-59549073D01*
X132997315Y-59530489D01*
X133058577Y-59511905D01*
X133070002Y-59510780D01*
X133186000Y-59499355D01*
X133301997Y-59510780D01*
X133301997Y-59510780D01*
G37*
G36*
X148541997Y-59510780D02*
G01*
X148553422Y-59511905D01*
X148614684Y-59530489D01*
X148675947Y-59549073D01*
X148788867Y-59609430D01*
X148887843Y-59690657D01*
X148969070Y-59789632D01*
X149029427Y-59902552D01*
X149066595Y-60025078D01*
X149076000Y-60120568D01*
X149076000Y-60584431D01*
X149066595Y-60679922D01*
X149029427Y-60802448D01*
X148969070Y-60915368D01*
X148887843Y-61014343D01*
X148788868Y-61095570D01*
X148675948Y-61155927D01*
X148614685Y-61174511D01*
X148553423Y-61193095D01*
X148541998Y-61194220D01*
X148426000Y-61205645D01*
X148310003Y-61194220D01*
X148298578Y-61193095D01*
X148237316Y-61174511D01*
X148176053Y-61155927D01*
X148063133Y-61095570D01*
X147964158Y-61014343D01*
X147882930Y-60915368D01*
X147822573Y-60802448D01*
X147785405Y-60679922D01*
X147776000Y-60584432D01*
X147776000Y-60120569D01*
X147785405Y-60025079D01*
X147785406Y-60025077D01*
X147822573Y-59902554D01*
X147822573Y-59902553D01*
X147882930Y-59789633D01*
X147964157Y-59690657D01*
X148063132Y-59609430D01*
X148176052Y-59549073D01*
X148237315Y-59530489D01*
X148298577Y-59511905D01*
X148310002Y-59510780D01*
X148426000Y-59499355D01*
X148541997Y-59510780D01*
X148541997Y-59510780D01*
G37*
G36*
X138381997Y-59510780D02*
G01*
X138393422Y-59511905D01*
X138454684Y-59530489D01*
X138515947Y-59549073D01*
X138628867Y-59609430D01*
X138727843Y-59690657D01*
X138809070Y-59789632D01*
X138869427Y-59902552D01*
X138906595Y-60025078D01*
X138916000Y-60120568D01*
X138916000Y-60584431D01*
X138906595Y-60679922D01*
X138869427Y-60802448D01*
X138809070Y-60915368D01*
X138727843Y-61014343D01*
X138628868Y-61095570D01*
X138515948Y-61155927D01*
X138454685Y-61174511D01*
X138393423Y-61193095D01*
X138381998Y-61194220D01*
X138266000Y-61205645D01*
X138150003Y-61194220D01*
X138138578Y-61193095D01*
X138077316Y-61174511D01*
X138016053Y-61155927D01*
X137903133Y-61095570D01*
X137804158Y-61014343D01*
X137722930Y-60915368D01*
X137662573Y-60802448D01*
X137625405Y-60679922D01*
X137616000Y-60584432D01*
X137616000Y-60120569D01*
X137625405Y-60025079D01*
X137625406Y-60025077D01*
X137662573Y-59902554D01*
X137662573Y-59902553D01*
X137722930Y-59789633D01*
X137804157Y-59690657D01*
X137903132Y-59609430D01*
X138016052Y-59549073D01*
X138077315Y-59530489D01*
X138138577Y-59511905D01*
X138150002Y-59510780D01*
X138266000Y-59499355D01*
X138381997Y-59510780D01*
X138381997Y-59510780D01*
G37*
G36*
X128756000Y-61202500D02*
G01*
X127456000Y-61202500D01*
X127456000Y-59502500D01*
X128756000Y-59502500D01*
X128756000Y-61202500D01*
X128756000Y-61202500D01*
G37*
G36*
X143461997Y-56970780D02*
G01*
X143473422Y-56971905D01*
X143534684Y-56990489D01*
X143595947Y-57009073D01*
X143708867Y-57069430D01*
X143807843Y-57150657D01*
X143889070Y-57249632D01*
X143949427Y-57362552D01*
X143986595Y-57485078D01*
X143996000Y-57580568D01*
X143996000Y-58044431D01*
X143986595Y-58139922D01*
X143949427Y-58262448D01*
X143889070Y-58375368D01*
X143807843Y-58474343D01*
X143708868Y-58555570D01*
X143595948Y-58615927D01*
X143534685Y-58634511D01*
X143473423Y-58653095D01*
X143461998Y-58654220D01*
X143346000Y-58665645D01*
X143230003Y-58654220D01*
X143218578Y-58653095D01*
X143157316Y-58634511D01*
X143096053Y-58615927D01*
X142983133Y-58555570D01*
X142884158Y-58474343D01*
X142802930Y-58375368D01*
X142742573Y-58262448D01*
X142705405Y-58139922D01*
X142696000Y-58044432D01*
X142696000Y-57580569D01*
X142705405Y-57485079D01*
X142705406Y-57485077D01*
X142742573Y-57362554D01*
X142742573Y-57362553D01*
X142802930Y-57249633D01*
X142884157Y-57150657D01*
X142983132Y-57069430D01*
X143096052Y-57009073D01*
X143157315Y-56990489D01*
X143218577Y-56971905D01*
X143230002Y-56970780D01*
X143346000Y-56959355D01*
X143461997Y-56970780D01*
X143461997Y-56970780D01*
G37*
G36*
X128221997Y-56970780D02*
G01*
X128233422Y-56971905D01*
X128294684Y-56990489D01*
X128355947Y-57009073D01*
X128468867Y-57069430D01*
X128567843Y-57150657D01*
X128649070Y-57249632D01*
X128709427Y-57362552D01*
X128746595Y-57485078D01*
X128756000Y-57580568D01*
X128756000Y-58044431D01*
X128746595Y-58139922D01*
X128709427Y-58262448D01*
X128649070Y-58375368D01*
X128567843Y-58474343D01*
X128468868Y-58555570D01*
X128355948Y-58615927D01*
X128294685Y-58634511D01*
X128233423Y-58653095D01*
X128221998Y-58654220D01*
X128106000Y-58665645D01*
X127990003Y-58654220D01*
X127978578Y-58653095D01*
X127917316Y-58634511D01*
X127856053Y-58615927D01*
X127743133Y-58555570D01*
X127644158Y-58474343D01*
X127562930Y-58375368D01*
X127502573Y-58262448D01*
X127465405Y-58139922D01*
X127456000Y-58044432D01*
X127456000Y-57580569D01*
X127465405Y-57485079D01*
X127465406Y-57485077D01*
X127502573Y-57362554D01*
X127502573Y-57362553D01*
X127562930Y-57249633D01*
X127644157Y-57150657D01*
X127743132Y-57069430D01*
X127856052Y-57009073D01*
X127917315Y-56990489D01*
X127978577Y-56971905D01*
X127990002Y-56970780D01*
X128106000Y-56959355D01*
X128221997Y-56970780D01*
X128221997Y-56970780D01*
G37*
G36*
X130761997Y-56970780D02*
G01*
X130773422Y-56971905D01*
X130834684Y-56990489D01*
X130895947Y-57009073D01*
X131008867Y-57069430D01*
X131107843Y-57150657D01*
X131189070Y-57249632D01*
X131249427Y-57362552D01*
X131286595Y-57485078D01*
X131296000Y-57580568D01*
X131296000Y-58044431D01*
X131286595Y-58139922D01*
X131249427Y-58262448D01*
X131189070Y-58375368D01*
X131107843Y-58474343D01*
X131008868Y-58555570D01*
X130895948Y-58615927D01*
X130834685Y-58634511D01*
X130773423Y-58653095D01*
X130761998Y-58654220D01*
X130646000Y-58665645D01*
X130530003Y-58654220D01*
X130518578Y-58653095D01*
X130457316Y-58634511D01*
X130396053Y-58615927D01*
X130283133Y-58555570D01*
X130184158Y-58474343D01*
X130102930Y-58375368D01*
X130042573Y-58262448D01*
X130005405Y-58139922D01*
X129996000Y-58044432D01*
X129996000Y-57580569D01*
X130005405Y-57485079D01*
X130005406Y-57485077D01*
X130042573Y-57362554D01*
X130042573Y-57362553D01*
X130102930Y-57249633D01*
X130184157Y-57150657D01*
X130283132Y-57069430D01*
X130396052Y-57009073D01*
X130457315Y-56990489D01*
X130518577Y-56971905D01*
X130530002Y-56970780D01*
X130646000Y-56959355D01*
X130761997Y-56970780D01*
X130761997Y-56970780D01*
G37*
G36*
X133301997Y-56970780D02*
G01*
X133313422Y-56971905D01*
X133374684Y-56990489D01*
X133435947Y-57009073D01*
X133548867Y-57069430D01*
X133647843Y-57150657D01*
X133729070Y-57249632D01*
X133789427Y-57362552D01*
X133826595Y-57485078D01*
X133836000Y-57580568D01*
X133836000Y-58044431D01*
X133826595Y-58139922D01*
X133789427Y-58262448D01*
X133729070Y-58375368D01*
X133647843Y-58474343D01*
X133548868Y-58555570D01*
X133435948Y-58615927D01*
X133374685Y-58634511D01*
X133313423Y-58653095D01*
X133301998Y-58654220D01*
X133186000Y-58665645D01*
X133070003Y-58654220D01*
X133058578Y-58653095D01*
X132997316Y-58634511D01*
X132936053Y-58615927D01*
X132823133Y-58555570D01*
X132724158Y-58474343D01*
X132642930Y-58375368D01*
X132582573Y-58262448D01*
X132545405Y-58139922D01*
X132536000Y-58044432D01*
X132536000Y-57580569D01*
X132545405Y-57485079D01*
X132545406Y-57485077D01*
X132582573Y-57362554D01*
X132582573Y-57362553D01*
X132642930Y-57249633D01*
X132724157Y-57150657D01*
X132823132Y-57069430D01*
X132936052Y-57009073D01*
X132997315Y-56990489D01*
X133058577Y-56971905D01*
X133070002Y-56970780D01*
X133186000Y-56959355D01*
X133301997Y-56970780D01*
X133301997Y-56970780D01*
G37*
G36*
X135841997Y-56970780D02*
G01*
X135853422Y-56971905D01*
X135914684Y-56990489D01*
X135975947Y-57009073D01*
X136088867Y-57069430D01*
X136187843Y-57150657D01*
X136269070Y-57249632D01*
X136329427Y-57362552D01*
X136366595Y-57485078D01*
X136376000Y-57580568D01*
X136376000Y-58044431D01*
X136366595Y-58139922D01*
X136329427Y-58262448D01*
X136269070Y-58375368D01*
X136187843Y-58474343D01*
X136088868Y-58555570D01*
X135975948Y-58615927D01*
X135914685Y-58634511D01*
X135853423Y-58653095D01*
X135841998Y-58654220D01*
X135726000Y-58665645D01*
X135610003Y-58654220D01*
X135598578Y-58653095D01*
X135537316Y-58634511D01*
X135476053Y-58615927D01*
X135363133Y-58555570D01*
X135264158Y-58474343D01*
X135182930Y-58375368D01*
X135122573Y-58262448D01*
X135085405Y-58139922D01*
X135076000Y-58044432D01*
X135076000Y-57580569D01*
X135085405Y-57485079D01*
X135085406Y-57485077D01*
X135122573Y-57362554D01*
X135122573Y-57362553D01*
X135182930Y-57249633D01*
X135264157Y-57150657D01*
X135363132Y-57069430D01*
X135476052Y-57009073D01*
X135537315Y-56990489D01*
X135598577Y-56971905D01*
X135610002Y-56970780D01*
X135726000Y-56959355D01*
X135841997Y-56970780D01*
X135841997Y-56970780D01*
G37*
G36*
X138381997Y-56970780D02*
G01*
X138393422Y-56971905D01*
X138454684Y-56990489D01*
X138515947Y-57009073D01*
X138628867Y-57069430D01*
X138727843Y-57150657D01*
X138809070Y-57249632D01*
X138869427Y-57362552D01*
X138906595Y-57485078D01*
X138916000Y-57580568D01*
X138916000Y-58044431D01*
X138906595Y-58139922D01*
X138869427Y-58262448D01*
X138809070Y-58375368D01*
X138727843Y-58474343D01*
X138628868Y-58555570D01*
X138515948Y-58615927D01*
X138454685Y-58634511D01*
X138393423Y-58653095D01*
X138381998Y-58654220D01*
X138266000Y-58665645D01*
X138150003Y-58654220D01*
X138138578Y-58653095D01*
X138077316Y-58634511D01*
X138016053Y-58615927D01*
X137903133Y-58555570D01*
X137804158Y-58474343D01*
X137722930Y-58375368D01*
X137662573Y-58262448D01*
X137625405Y-58139922D01*
X137616000Y-58044432D01*
X137616000Y-57580569D01*
X137625405Y-57485079D01*
X137625406Y-57485077D01*
X137662573Y-57362554D01*
X137662573Y-57362553D01*
X137722930Y-57249633D01*
X137804157Y-57150657D01*
X137903132Y-57069430D01*
X138016052Y-57009073D01*
X138077315Y-56990489D01*
X138138577Y-56971905D01*
X138150002Y-56970780D01*
X138266000Y-56959355D01*
X138381997Y-56970780D01*
X138381997Y-56970780D01*
G37*
G36*
X140921997Y-56970780D02*
G01*
X140933422Y-56971905D01*
X140994684Y-56990489D01*
X141055947Y-57009073D01*
X141168867Y-57069430D01*
X141267843Y-57150657D01*
X141349070Y-57249632D01*
X141409427Y-57362552D01*
X141446595Y-57485078D01*
X141456000Y-57580568D01*
X141456000Y-58044431D01*
X141446595Y-58139922D01*
X141409427Y-58262448D01*
X141349070Y-58375368D01*
X141267843Y-58474343D01*
X141168868Y-58555570D01*
X141055948Y-58615927D01*
X140994685Y-58634511D01*
X140933423Y-58653095D01*
X140921998Y-58654220D01*
X140806000Y-58665645D01*
X140690003Y-58654220D01*
X140678578Y-58653095D01*
X140617316Y-58634511D01*
X140556053Y-58615927D01*
X140443133Y-58555570D01*
X140344158Y-58474343D01*
X140262930Y-58375368D01*
X140202573Y-58262448D01*
X140165405Y-58139922D01*
X140156000Y-58044432D01*
X140156000Y-57580569D01*
X140165405Y-57485079D01*
X140165406Y-57485077D01*
X140202573Y-57362554D01*
X140202573Y-57362553D01*
X140262930Y-57249633D01*
X140344157Y-57150657D01*
X140443132Y-57069430D01*
X140556052Y-57009073D01*
X140617315Y-56990489D01*
X140678577Y-56971905D01*
X140690002Y-56970780D01*
X140806000Y-56959355D01*
X140921997Y-56970780D01*
X140921997Y-56970780D01*
G37*
G36*
X153621997Y-56970780D02*
G01*
X153633422Y-56971905D01*
X153694684Y-56990489D01*
X153755947Y-57009073D01*
X153868867Y-57069430D01*
X153967843Y-57150657D01*
X154049070Y-57249632D01*
X154109427Y-57362552D01*
X154146595Y-57485078D01*
X154156000Y-57580568D01*
X154156000Y-58044431D01*
X154146595Y-58139922D01*
X154109427Y-58262448D01*
X154049070Y-58375368D01*
X153967843Y-58474343D01*
X153868868Y-58555570D01*
X153755948Y-58615927D01*
X153694685Y-58634511D01*
X153633423Y-58653095D01*
X153621998Y-58654220D01*
X153506000Y-58665645D01*
X153390003Y-58654220D01*
X153378578Y-58653095D01*
X153317316Y-58634511D01*
X153256053Y-58615927D01*
X153143133Y-58555570D01*
X153044158Y-58474343D01*
X152962930Y-58375368D01*
X152902573Y-58262448D01*
X152865405Y-58139922D01*
X152856000Y-58044432D01*
X152856000Y-57580569D01*
X152865405Y-57485079D01*
X152865406Y-57485077D01*
X152902573Y-57362554D01*
X152902573Y-57362553D01*
X152962930Y-57249633D01*
X153044157Y-57150657D01*
X153143132Y-57069430D01*
X153256052Y-57009073D01*
X153317315Y-56990489D01*
X153378577Y-56971905D01*
X153390002Y-56970780D01*
X153506000Y-56959355D01*
X153621997Y-56970780D01*
X153621997Y-56970780D01*
G37*
G36*
X151081997Y-56970780D02*
G01*
X151093422Y-56971905D01*
X151154684Y-56990489D01*
X151215947Y-57009073D01*
X151328867Y-57069430D01*
X151427843Y-57150657D01*
X151509070Y-57249632D01*
X151569427Y-57362552D01*
X151606595Y-57485078D01*
X151616000Y-57580568D01*
X151616000Y-58044431D01*
X151606595Y-58139922D01*
X151569427Y-58262448D01*
X151509070Y-58375368D01*
X151427843Y-58474343D01*
X151328868Y-58555570D01*
X151215948Y-58615927D01*
X151154685Y-58634511D01*
X151093423Y-58653095D01*
X151081998Y-58654220D01*
X150966000Y-58665645D01*
X150850003Y-58654220D01*
X150838578Y-58653095D01*
X150777316Y-58634511D01*
X150716053Y-58615927D01*
X150603133Y-58555570D01*
X150504158Y-58474343D01*
X150422930Y-58375368D01*
X150362573Y-58262448D01*
X150325405Y-58139922D01*
X150316000Y-58044432D01*
X150316000Y-57580569D01*
X150325405Y-57485079D01*
X150325406Y-57485077D01*
X150362573Y-57362554D01*
X150362573Y-57362553D01*
X150422930Y-57249633D01*
X150504157Y-57150657D01*
X150603132Y-57069430D01*
X150716052Y-57009073D01*
X150777315Y-56990489D01*
X150838577Y-56971905D01*
X150850002Y-56970780D01*
X150966000Y-56959355D01*
X151081997Y-56970780D01*
X151081997Y-56970780D01*
G37*
G36*
X173941997Y-56970780D02*
G01*
X173953422Y-56971905D01*
X174014684Y-56990489D01*
X174075947Y-57009073D01*
X174188867Y-57069430D01*
X174287843Y-57150657D01*
X174369070Y-57249632D01*
X174429427Y-57362552D01*
X174466595Y-57485078D01*
X174476000Y-57580568D01*
X174476000Y-58044431D01*
X174466595Y-58139922D01*
X174429427Y-58262448D01*
X174369070Y-58375368D01*
X174287843Y-58474343D01*
X174188868Y-58555570D01*
X174075948Y-58615927D01*
X174014685Y-58634511D01*
X173953423Y-58653095D01*
X173941998Y-58654220D01*
X173826000Y-58665645D01*
X173710003Y-58654220D01*
X173698578Y-58653095D01*
X173637316Y-58634511D01*
X173576053Y-58615927D01*
X173463133Y-58555570D01*
X173364158Y-58474343D01*
X173282930Y-58375368D01*
X173222573Y-58262448D01*
X173185405Y-58139922D01*
X173176000Y-58044432D01*
X173176000Y-57580569D01*
X173185405Y-57485079D01*
X173185406Y-57485077D01*
X173222573Y-57362554D01*
X173222573Y-57362553D01*
X173282930Y-57249633D01*
X173364157Y-57150657D01*
X173463132Y-57069430D01*
X173576052Y-57009073D01*
X173637315Y-56990489D01*
X173698577Y-56971905D01*
X173710002Y-56970780D01*
X173826000Y-56959355D01*
X173941997Y-56970780D01*
X173941997Y-56970780D01*
G37*
G36*
X171401997Y-56970780D02*
G01*
X171413422Y-56971905D01*
X171474684Y-56990489D01*
X171535947Y-57009073D01*
X171648867Y-57069430D01*
X171747843Y-57150657D01*
X171829070Y-57249632D01*
X171889427Y-57362552D01*
X171926595Y-57485078D01*
X171936000Y-57580568D01*
X171936000Y-58044431D01*
X171926595Y-58139922D01*
X171889427Y-58262448D01*
X171829070Y-58375368D01*
X171747843Y-58474343D01*
X171648868Y-58555570D01*
X171535948Y-58615927D01*
X171474685Y-58634511D01*
X171413423Y-58653095D01*
X171401998Y-58654220D01*
X171286000Y-58665645D01*
X171170003Y-58654220D01*
X171158578Y-58653095D01*
X171097316Y-58634511D01*
X171036053Y-58615927D01*
X170923133Y-58555570D01*
X170824158Y-58474343D01*
X170742930Y-58375368D01*
X170682573Y-58262448D01*
X170645405Y-58139922D01*
X170636000Y-58044432D01*
X170636000Y-57580569D01*
X170645405Y-57485079D01*
X170645406Y-57485077D01*
X170682573Y-57362554D01*
X170682573Y-57362553D01*
X170742930Y-57249633D01*
X170824157Y-57150657D01*
X170923132Y-57069430D01*
X171036052Y-57009073D01*
X171097315Y-56990489D01*
X171158577Y-56971905D01*
X171170002Y-56970780D01*
X171286000Y-56959355D01*
X171401997Y-56970780D01*
X171401997Y-56970780D01*
G37*
G36*
X168861997Y-56970780D02*
G01*
X168873422Y-56971905D01*
X168934684Y-56990489D01*
X168995947Y-57009073D01*
X169108867Y-57069430D01*
X169207843Y-57150657D01*
X169289070Y-57249632D01*
X169349427Y-57362552D01*
X169386595Y-57485078D01*
X169396000Y-57580568D01*
X169396000Y-58044431D01*
X169386595Y-58139922D01*
X169349427Y-58262448D01*
X169289070Y-58375368D01*
X169207843Y-58474343D01*
X169108868Y-58555570D01*
X168995948Y-58615927D01*
X168934685Y-58634511D01*
X168873423Y-58653095D01*
X168861998Y-58654220D01*
X168746000Y-58665645D01*
X168630003Y-58654220D01*
X168618578Y-58653095D01*
X168557316Y-58634511D01*
X168496053Y-58615927D01*
X168383133Y-58555570D01*
X168284158Y-58474343D01*
X168202930Y-58375368D01*
X168142573Y-58262448D01*
X168105405Y-58139922D01*
X168096000Y-58044432D01*
X168096000Y-57580569D01*
X168105405Y-57485079D01*
X168105406Y-57485077D01*
X168142573Y-57362554D01*
X168142573Y-57362553D01*
X168202930Y-57249633D01*
X168284157Y-57150657D01*
X168383132Y-57069430D01*
X168496052Y-57009073D01*
X168557315Y-56990489D01*
X168618577Y-56971905D01*
X168630002Y-56970780D01*
X168746000Y-56959355D01*
X168861997Y-56970780D01*
X168861997Y-56970780D01*
G37*
G36*
X148541997Y-56970780D02*
G01*
X148553422Y-56971905D01*
X148614684Y-56990489D01*
X148675947Y-57009073D01*
X148788867Y-57069430D01*
X148887843Y-57150657D01*
X148969070Y-57249632D01*
X149029427Y-57362552D01*
X149066595Y-57485078D01*
X149076000Y-57580568D01*
X149076000Y-58044431D01*
X149066595Y-58139922D01*
X149029427Y-58262448D01*
X148969070Y-58375368D01*
X148887843Y-58474343D01*
X148788868Y-58555570D01*
X148675948Y-58615927D01*
X148614685Y-58634511D01*
X148553423Y-58653095D01*
X148541998Y-58654220D01*
X148426000Y-58665645D01*
X148310003Y-58654220D01*
X148298578Y-58653095D01*
X148237316Y-58634511D01*
X148176053Y-58615927D01*
X148063133Y-58555570D01*
X147964158Y-58474343D01*
X147882930Y-58375368D01*
X147822573Y-58262448D01*
X147785405Y-58139922D01*
X147776000Y-58044432D01*
X147776000Y-57580569D01*
X147785405Y-57485079D01*
X147785406Y-57485077D01*
X147822573Y-57362554D01*
X147822573Y-57362553D01*
X147882930Y-57249633D01*
X147964157Y-57150657D01*
X148063132Y-57069430D01*
X148176052Y-57009073D01*
X148237315Y-56990489D01*
X148298577Y-56971905D01*
X148310002Y-56970780D01*
X148426000Y-56959355D01*
X148541997Y-56970780D01*
X148541997Y-56970780D01*
G37*
G36*
X166321997Y-56970780D02*
G01*
X166333422Y-56971905D01*
X166394684Y-56990489D01*
X166455947Y-57009073D01*
X166568867Y-57069430D01*
X166667843Y-57150657D01*
X166749070Y-57249632D01*
X166809427Y-57362552D01*
X166846595Y-57485078D01*
X166856000Y-57580568D01*
X166856000Y-58044431D01*
X166846595Y-58139922D01*
X166809427Y-58262448D01*
X166749070Y-58375368D01*
X166667843Y-58474343D01*
X166568868Y-58555570D01*
X166455948Y-58615927D01*
X166394685Y-58634511D01*
X166333423Y-58653095D01*
X166321998Y-58654220D01*
X166206000Y-58665645D01*
X166090003Y-58654220D01*
X166078578Y-58653095D01*
X166017316Y-58634511D01*
X165956053Y-58615927D01*
X165843133Y-58555570D01*
X165744158Y-58474343D01*
X165662930Y-58375368D01*
X165602573Y-58262448D01*
X165565405Y-58139922D01*
X165556000Y-58044432D01*
X165556000Y-57580569D01*
X165565405Y-57485079D01*
X165565406Y-57485077D01*
X165602573Y-57362554D01*
X165602573Y-57362553D01*
X165662930Y-57249633D01*
X165744157Y-57150657D01*
X165843132Y-57069430D01*
X165956052Y-57009073D01*
X166017315Y-56990489D01*
X166078577Y-56971905D01*
X166090002Y-56970780D01*
X166206000Y-56959355D01*
X166321997Y-56970780D01*
X166321997Y-56970780D01*
G37*
G36*
X163781997Y-56970780D02*
G01*
X163793422Y-56971905D01*
X163854684Y-56990489D01*
X163915947Y-57009073D01*
X164028867Y-57069430D01*
X164127843Y-57150657D01*
X164209070Y-57249632D01*
X164269427Y-57362552D01*
X164306595Y-57485078D01*
X164316000Y-57580568D01*
X164316000Y-58044431D01*
X164306595Y-58139922D01*
X164269427Y-58262448D01*
X164209070Y-58375368D01*
X164127843Y-58474343D01*
X164028868Y-58555570D01*
X163915948Y-58615927D01*
X163854685Y-58634511D01*
X163793423Y-58653095D01*
X163781998Y-58654220D01*
X163666000Y-58665645D01*
X163550003Y-58654220D01*
X163538578Y-58653095D01*
X163477316Y-58634511D01*
X163416053Y-58615927D01*
X163303133Y-58555570D01*
X163204158Y-58474343D01*
X163122930Y-58375368D01*
X163062573Y-58262448D01*
X163025405Y-58139922D01*
X163016000Y-58044432D01*
X163016000Y-57580569D01*
X163025405Y-57485079D01*
X163025406Y-57485077D01*
X163062573Y-57362554D01*
X163062573Y-57362553D01*
X163122930Y-57249633D01*
X163204157Y-57150657D01*
X163303132Y-57069430D01*
X163416052Y-57009073D01*
X163477315Y-56990489D01*
X163538577Y-56971905D01*
X163550002Y-56970780D01*
X163666000Y-56959355D01*
X163781997Y-56970780D01*
X163781997Y-56970780D01*
G37*
G36*
X161241997Y-56970780D02*
G01*
X161253422Y-56971905D01*
X161314684Y-56990489D01*
X161375947Y-57009073D01*
X161488867Y-57069430D01*
X161587843Y-57150657D01*
X161669070Y-57249632D01*
X161729427Y-57362552D01*
X161766595Y-57485078D01*
X161776000Y-57580568D01*
X161776000Y-58044431D01*
X161766595Y-58139922D01*
X161729427Y-58262448D01*
X161669070Y-58375368D01*
X161587843Y-58474343D01*
X161488868Y-58555570D01*
X161375948Y-58615927D01*
X161314685Y-58634511D01*
X161253423Y-58653095D01*
X161241998Y-58654220D01*
X161126000Y-58665645D01*
X161010003Y-58654220D01*
X160998578Y-58653095D01*
X160937316Y-58634511D01*
X160876053Y-58615927D01*
X160763133Y-58555570D01*
X160664158Y-58474343D01*
X160582930Y-58375368D01*
X160522573Y-58262448D01*
X160485405Y-58139922D01*
X160476000Y-58044432D01*
X160476000Y-57580569D01*
X160485405Y-57485079D01*
X160485406Y-57485077D01*
X160522573Y-57362554D01*
X160522573Y-57362553D01*
X160582930Y-57249633D01*
X160664157Y-57150657D01*
X160763132Y-57069430D01*
X160876052Y-57009073D01*
X160937315Y-56990489D01*
X160998577Y-56971905D01*
X161010002Y-56970780D01*
X161126000Y-56959355D01*
X161241997Y-56970780D01*
X161241997Y-56970780D01*
G37*
G36*
X146001997Y-56970780D02*
G01*
X146013422Y-56971905D01*
X146074684Y-56990489D01*
X146135947Y-57009073D01*
X146248867Y-57069430D01*
X146347843Y-57150657D01*
X146429070Y-57249632D01*
X146489427Y-57362552D01*
X146526595Y-57485078D01*
X146536000Y-57580568D01*
X146536000Y-58044431D01*
X146526595Y-58139922D01*
X146489427Y-58262448D01*
X146429070Y-58375368D01*
X146347843Y-58474343D01*
X146248868Y-58555570D01*
X146135948Y-58615927D01*
X146074685Y-58634511D01*
X146013423Y-58653095D01*
X146001998Y-58654220D01*
X145886000Y-58665645D01*
X145770003Y-58654220D01*
X145758578Y-58653095D01*
X145697316Y-58634511D01*
X145636053Y-58615927D01*
X145523133Y-58555570D01*
X145424158Y-58474343D01*
X145342930Y-58375368D01*
X145282573Y-58262448D01*
X145245405Y-58139922D01*
X145236000Y-58044432D01*
X145236000Y-57580569D01*
X145245405Y-57485079D01*
X145245406Y-57485077D01*
X145282573Y-57362554D01*
X145282573Y-57362553D01*
X145342930Y-57249633D01*
X145424157Y-57150657D01*
X145523132Y-57069430D01*
X145636052Y-57009073D01*
X145697315Y-56990489D01*
X145758577Y-56971905D01*
X145770002Y-56970780D01*
X145886000Y-56959355D01*
X146001997Y-56970780D01*
X146001997Y-56970780D01*
G37*
G36*
X158701997Y-56970780D02*
G01*
X158713422Y-56971905D01*
X158774684Y-56990489D01*
X158835947Y-57009073D01*
X158948867Y-57069430D01*
X159047843Y-57150657D01*
X159129070Y-57249632D01*
X159189427Y-57362552D01*
X159226595Y-57485078D01*
X159236000Y-57580568D01*
X159236000Y-58044431D01*
X159226595Y-58139922D01*
X159189427Y-58262448D01*
X159129070Y-58375368D01*
X159047843Y-58474343D01*
X158948868Y-58555570D01*
X158835948Y-58615927D01*
X158774685Y-58634511D01*
X158713423Y-58653095D01*
X158701998Y-58654220D01*
X158586000Y-58665645D01*
X158470003Y-58654220D01*
X158458578Y-58653095D01*
X158397316Y-58634511D01*
X158336053Y-58615927D01*
X158223133Y-58555570D01*
X158124158Y-58474343D01*
X158042930Y-58375368D01*
X157982573Y-58262448D01*
X157945405Y-58139922D01*
X157936000Y-58044432D01*
X157936000Y-57580569D01*
X157945405Y-57485079D01*
X157945406Y-57485077D01*
X157982573Y-57362554D01*
X157982573Y-57362553D01*
X158042930Y-57249633D01*
X158124157Y-57150657D01*
X158223132Y-57069430D01*
X158336052Y-57009073D01*
X158397315Y-56990489D01*
X158458577Y-56971905D01*
X158470002Y-56970780D01*
X158586000Y-56959355D01*
X158701997Y-56970780D01*
X158701997Y-56970780D01*
G37*
G36*
X156161997Y-56970780D02*
G01*
X156173422Y-56971905D01*
X156234684Y-56990489D01*
X156295947Y-57009073D01*
X156408867Y-57069430D01*
X156507843Y-57150657D01*
X156589070Y-57249632D01*
X156649427Y-57362552D01*
X156686595Y-57485078D01*
X156696000Y-57580568D01*
X156696000Y-58044431D01*
X156686595Y-58139922D01*
X156649427Y-58262448D01*
X156589070Y-58375368D01*
X156507843Y-58474343D01*
X156408868Y-58555570D01*
X156295948Y-58615927D01*
X156234685Y-58634511D01*
X156173423Y-58653095D01*
X156161998Y-58654220D01*
X156046000Y-58665645D01*
X155930003Y-58654220D01*
X155918578Y-58653095D01*
X155857316Y-58634511D01*
X155796053Y-58615927D01*
X155683133Y-58555570D01*
X155584158Y-58474343D01*
X155502930Y-58375368D01*
X155442573Y-58262448D01*
X155405405Y-58139922D01*
X155396000Y-58044432D01*
X155396000Y-57580569D01*
X155405405Y-57485079D01*
X155405406Y-57485077D01*
X155442573Y-57362554D01*
X155442573Y-57362553D01*
X155502930Y-57249633D01*
X155584157Y-57150657D01*
X155683132Y-57069430D01*
X155796052Y-57009073D01*
X155857315Y-56990489D01*
X155918577Y-56971905D01*
X155930002Y-56970780D01*
X156046000Y-56959355D01*
X156161997Y-56970780D01*
X156161997Y-56970780D01*
G37*
G36*
X176481997Y-56970780D02*
G01*
X176493422Y-56971905D01*
X176554684Y-56990489D01*
X176615947Y-57009073D01*
X176728867Y-57069430D01*
X176827843Y-57150657D01*
X176909070Y-57249632D01*
X176969427Y-57362552D01*
X177006595Y-57485078D01*
X177016000Y-57580568D01*
X177016000Y-58044431D01*
X177006595Y-58139922D01*
X176969427Y-58262448D01*
X176909070Y-58375368D01*
X176827843Y-58474343D01*
X176728868Y-58555570D01*
X176615948Y-58615927D01*
X176554685Y-58634511D01*
X176493423Y-58653095D01*
X176481998Y-58654220D01*
X176366000Y-58665645D01*
X176250003Y-58654220D01*
X176238578Y-58653095D01*
X176177316Y-58634511D01*
X176116053Y-58615927D01*
X176003133Y-58555570D01*
X175904158Y-58474343D01*
X175822930Y-58375368D01*
X175762573Y-58262448D01*
X175725405Y-58139922D01*
X175716000Y-58044432D01*
X175716000Y-57580569D01*
X175725405Y-57485079D01*
X175725406Y-57485077D01*
X175762573Y-57362554D01*
X175762573Y-57362553D01*
X175822930Y-57249633D01*
X175904157Y-57150657D01*
X176003132Y-57069430D01*
X176116052Y-57009073D01*
X176177315Y-56990489D01*
X176238577Y-56971905D01*
X176250002Y-56970780D01*
X176366000Y-56959355D01*
X176481997Y-56970780D01*
X176481997Y-56970780D01*
G37*
M02*
