G04 #@! TF.GenerationSoftware,KiCad,Pcbnew,(5.1.0)-1*
G04 #@! TF.CreationDate,2019-11-06T00:15:09-05:00*
G04 #@! TF.ProjectId,ESP32-Pi,45535033-322d-4506-992e-6b696361645f,1.0*
G04 #@! TF.SameCoordinates,Original*
G04 #@! TF.FileFunction,Legend,Top*
G04 #@! TF.FilePolarity,Positive*
%FSLAX46Y46*%
G04 Gerber Fmt 4.6, Leading zero omitted, Abs format (unit mm)*
G04 Created by KiCad (PCBNEW (5.1.0)-1) date 2019-11-06 00:15:09*
%MOMM*%
%LPD*%
G04 APERTURE LIST*
%ADD10C,0.100000*%
%ADD11C,0.300000*%
%ADD12C,0.150000*%
%ADD13C,0.120000*%
%ADD14C,0.010000*%
G04 APERTURE END LIST*
D10*
X158901657Y-81635928D02*
X158901657Y-81035928D01*
X159044514Y-81035928D01*
X159130228Y-81064500D01*
X159187371Y-81121642D01*
X159215942Y-81178785D01*
X159244514Y-81293071D01*
X159244514Y-81378785D01*
X159215942Y-81493071D01*
X159187371Y-81550214D01*
X159130228Y-81607357D01*
X159044514Y-81635928D01*
X158901657Y-81635928D01*
X159730228Y-81607357D02*
X159673085Y-81635928D01*
X159558800Y-81635928D01*
X159501657Y-81607357D01*
X159473085Y-81550214D01*
X159473085Y-81321642D01*
X159501657Y-81264500D01*
X159558800Y-81235928D01*
X159673085Y-81235928D01*
X159730228Y-81264500D01*
X159758800Y-81321642D01*
X159758800Y-81378785D01*
X159473085Y-81435928D01*
X159930228Y-81235928D02*
X160158800Y-81235928D01*
X160015942Y-81635928D02*
X160015942Y-81121642D01*
X160044514Y-81064500D01*
X160101657Y-81035928D01*
X160158800Y-81035928D01*
X160615942Y-81635928D02*
X160615942Y-81321642D01*
X160587371Y-81264500D01*
X160530228Y-81235928D01*
X160415942Y-81235928D01*
X160358800Y-81264500D01*
X160615942Y-81607357D02*
X160558800Y-81635928D01*
X160415942Y-81635928D01*
X160358800Y-81607357D01*
X160330228Y-81550214D01*
X160330228Y-81493071D01*
X160358800Y-81435928D01*
X160415942Y-81407357D01*
X160558800Y-81407357D01*
X160615942Y-81378785D01*
X161158800Y-81235928D02*
X161158800Y-81635928D01*
X160901657Y-81235928D02*
X160901657Y-81550214D01*
X160930228Y-81607357D01*
X160987371Y-81635928D01*
X161073085Y-81635928D01*
X161130228Y-81607357D01*
X161158800Y-81578785D01*
X161530228Y-81635928D02*
X161473085Y-81607357D01*
X161444514Y-81550214D01*
X161444514Y-81035928D01*
X161673085Y-81235928D02*
X161901657Y-81235928D01*
X161758800Y-81035928D02*
X161758800Y-81550214D01*
X161787371Y-81607357D01*
X161844514Y-81635928D01*
X161901657Y-81635928D01*
X162530228Y-81464500D02*
X162815942Y-81464500D01*
X162473085Y-81635928D02*
X162673085Y-81035928D01*
X162873085Y-81635928D01*
X163330228Y-81635928D02*
X163330228Y-81035928D01*
X163330228Y-81607357D02*
X163273085Y-81635928D01*
X163158800Y-81635928D01*
X163101657Y-81607357D01*
X163073085Y-81578785D01*
X163044514Y-81521642D01*
X163044514Y-81350214D01*
X163073085Y-81293071D01*
X163101657Y-81264500D01*
X163158800Y-81235928D01*
X163273085Y-81235928D01*
X163330228Y-81264500D01*
X163873085Y-81635928D02*
X163873085Y-81035928D01*
X163873085Y-81607357D02*
X163815942Y-81635928D01*
X163701657Y-81635928D01*
X163644514Y-81607357D01*
X163615942Y-81578785D01*
X163587371Y-81521642D01*
X163587371Y-81350214D01*
X163615942Y-81293071D01*
X163644514Y-81264500D01*
X163701657Y-81235928D01*
X163815942Y-81235928D01*
X163873085Y-81264500D01*
X164158800Y-81635928D02*
X164158800Y-81235928D01*
X164158800Y-81350214D02*
X164187371Y-81293071D01*
X164215942Y-81264500D01*
X164273085Y-81235928D01*
X164330228Y-81235928D01*
X164758800Y-81607357D02*
X164701657Y-81635928D01*
X164587371Y-81635928D01*
X164530228Y-81607357D01*
X164501657Y-81550214D01*
X164501657Y-81321642D01*
X164530228Y-81264500D01*
X164587371Y-81235928D01*
X164701657Y-81235928D01*
X164758800Y-81264500D01*
X164787371Y-81321642D01*
X164787371Y-81378785D01*
X164501657Y-81435928D01*
X165015942Y-81607357D02*
X165073085Y-81635928D01*
X165187371Y-81635928D01*
X165244514Y-81607357D01*
X165273085Y-81550214D01*
X165273085Y-81521642D01*
X165244514Y-81464500D01*
X165187371Y-81435928D01*
X165101657Y-81435928D01*
X165044514Y-81407357D01*
X165015942Y-81350214D01*
X165015942Y-81321642D01*
X165044514Y-81264500D01*
X165101657Y-81235928D01*
X165187371Y-81235928D01*
X165244514Y-81264500D01*
X165501657Y-81607357D02*
X165558800Y-81635928D01*
X165673085Y-81635928D01*
X165730228Y-81607357D01*
X165758800Y-81550214D01*
X165758800Y-81521642D01*
X165730228Y-81464500D01*
X165673085Y-81435928D01*
X165587371Y-81435928D01*
X165530228Y-81407357D01*
X165501657Y-81350214D01*
X165501657Y-81321642D01*
X165530228Y-81264500D01*
X165587371Y-81235928D01*
X165673085Y-81235928D01*
X165730228Y-81264500D01*
X166015942Y-81578785D02*
X166044514Y-81607357D01*
X166015942Y-81635928D01*
X165987371Y-81607357D01*
X166015942Y-81578785D01*
X166015942Y-81635928D01*
X166015942Y-81264500D02*
X166044514Y-81293071D01*
X166015942Y-81321642D01*
X165987371Y-81293071D01*
X166015942Y-81264500D01*
X166015942Y-81321642D01*
X161615942Y-82035928D02*
X161673085Y-82035928D01*
X161730228Y-82064500D01*
X161758800Y-82093071D01*
X161787371Y-82150214D01*
X161815942Y-82264500D01*
X161815942Y-82407357D01*
X161787371Y-82521642D01*
X161758800Y-82578785D01*
X161730228Y-82607357D01*
X161673085Y-82635928D01*
X161615942Y-82635928D01*
X161558800Y-82607357D01*
X161530228Y-82578785D01*
X161501657Y-82521642D01*
X161473085Y-82407357D01*
X161473085Y-82264500D01*
X161501657Y-82150214D01*
X161530228Y-82093071D01*
X161558800Y-82064500D01*
X161615942Y-82035928D01*
X162015942Y-82635928D02*
X162330228Y-82235928D01*
X162015942Y-82235928D02*
X162330228Y-82635928D01*
X162530228Y-82093071D02*
X162558800Y-82064500D01*
X162615942Y-82035928D01*
X162758800Y-82035928D01*
X162815942Y-82064500D01*
X162844514Y-82093071D01*
X162873085Y-82150214D01*
X162873085Y-82207357D01*
X162844514Y-82293071D01*
X162501657Y-82635928D01*
X162873085Y-82635928D01*
X163073085Y-82035928D02*
X163473085Y-82035928D01*
X163215942Y-82635928D01*
X157377257Y-86773833D02*
X157615352Y-86773833D01*
X157329638Y-86916690D02*
X157496304Y-86416690D01*
X157662971Y-86916690D01*
X157805828Y-86464309D02*
X157829638Y-86440500D01*
X157877257Y-86416690D01*
X157996304Y-86416690D01*
X158043923Y-86440500D01*
X158067733Y-86464309D01*
X158091542Y-86511928D01*
X158091542Y-86559547D01*
X158067733Y-86630976D01*
X157782019Y-86916690D01*
X158091542Y-86916690D01*
X157377257Y-84741833D02*
X157615352Y-84741833D01*
X157329638Y-84884690D02*
X157496304Y-84384690D01*
X157662971Y-84884690D01*
X158091542Y-84884690D02*
X157805828Y-84884690D01*
X157948685Y-84884690D02*
X157948685Y-84384690D01*
X157901066Y-84456119D01*
X157853447Y-84503738D01*
X157805828Y-84527547D01*
X157021657Y-82760633D02*
X157259752Y-82760633D01*
X156974038Y-82903490D02*
X157140704Y-82403490D01*
X157307371Y-82903490D01*
X157569276Y-82403490D02*
X157616895Y-82403490D01*
X157664514Y-82427300D01*
X157688323Y-82451109D01*
X157712133Y-82498728D01*
X157735942Y-82593966D01*
X157735942Y-82713014D01*
X157712133Y-82808252D01*
X157688323Y-82855871D01*
X157664514Y-82879680D01*
X157616895Y-82903490D01*
X157569276Y-82903490D01*
X157521657Y-82879680D01*
X157497847Y-82855871D01*
X157474038Y-82808252D01*
X157450228Y-82713014D01*
X157450228Y-82593966D01*
X157474038Y-82498728D01*
X157497847Y-82451109D01*
X157521657Y-82427300D01*
X157569276Y-82403490D01*
D11*
X170736857Y-62595452D02*
X170974952Y-62595452D01*
X171094000Y-62714500D01*
X171213047Y-62952595D01*
X171272571Y-63428785D01*
X171272571Y-64262119D01*
X171213047Y-64738309D01*
X171094000Y-64976404D01*
X170974952Y-65095452D01*
X170736857Y-65095452D01*
X170617809Y-64976404D01*
X170498761Y-64738309D01*
X170439238Y-64262119D01*
X170439238Y-63428785D01*
X170498761Y-62952595D01*
X170617809Y-62714500D01*
X170736857Y-62595452D01*
X171808285Y-65095452D02*
X171808285Y-62595452D01*
X171808285Y-63547833D02*
X171927333Y-63428785D01*
X172165428Y-63428785D01*
X172284476Y-63547833D01*
X172344000Y-63666880D01*
X172403523Y-63904976D01*
X172403523Y-64619261D01*
X172344000Y-64857357D01*
X172284476Y-64976404D01*
X172165428Y-65095452D01*
X171927333Y-65095452D01*
X171808285Y-64976404D01*
X172879714Y-64976404D02*
X172998761Y-65095452D01*
X173236857Y-65095452D01*
X173355904Y-64976404D01*
X173415428Y-64738309D01*
X173415428Y-64619261D01*
X173355904Y-64381166D01*
X173236857Y-64262119D01*
X173058285Y-64262119D01*
X172939238Y-64143071D01*
X172879714Y-63904976D01*
X172879714Y-63785928D01*
X172939238Y-63547833D01*
X173058285Y-63428785D01*
X173236857Y-63428785D01*
X173355904Y-63547833D01*
X173951142Y-65095452D02*
X173951142Y-63428785D01*
X173951142Y-62595452D02*
X173891619Y-62714500D01*
X173951142Y-62833547D01*
X174010666Y-62714500D01*
X173951142Y-62595452D01*
X173951142Y-62833547D01*
X175082095Y-65095452D02*
X175082095Y-62595452D01*
X175082095Y-64976404D02*
X174963047Y-65095452D01*
X174724952Y-65095452D01*
X174605904Y-64976404D01*
X174546380Y-64857357D01*
X174486857Y-64619261D01*
X174486857Y-63904976D01*
X174546380Y-63666880D01*
X174605904Y-63547833D01*
X174724952Y-63428785D01*
X174963047Y-63428785D01*
X175082095Y-63547833D01*
X175677333Y-65095452D02*
X175677333Y-63428785D01*
X175677333Y-62595452D02*
X175617809Y-62714500D01*
X175677333Y-62833547D01*
X175736857Y-62714500D01*
X175677333Y-62595452D01*
X175677333Y-62833547D01*
X176808285Y-65095452D02*
X176808285Y-63785928D01*
X176748761Y-63547833D01*
X176629714Y-63428785D01*
X176391619Y-63428785D01*
X176272571Y-63547833D01*
X176808285Y-64976404D02*
X176689238Y-65095452D01*
X176391619Y-65095452D01*
X176272571Y-64976404D01*
X176213047Y-64738309D01*
X176213047Y-64500214D01*
X176272571Y-64262119D01*
X176391619Y-64143071D01*
X176689238Y-64143071D01*
X176808285Y-64024023D01*
X177403523Y-63428785D02*
X177403523Y-65095452D01*
X177403523Y-63666880D02*
X177463047Y-63547833D01*
X177582095Y-63428785D01*
X177760666Y-63428785D01*
X177879714Y-63547833D01*
X177939238Y-63785928D01*
X177939238Y-65095452D01*
X176778523Y-67835928D02*
X177195190Y-67835928D01*
X177373761Y-69145452D02*
X176778523Y-69145452D01*
X176778523Y-66645452D01*
X177373761Y-66645452D01*
X177849952Y-69026404D02*
X178028523Y-69145452D01*
X178326142Y-69145452D01*
X178445190Y-69026404D01*
X178504714Y-68907357D01*
X178564238Y-68669261D01*
X178564238Y-68431166D01*
X178504714Y-68193071D01*
X178445190Y-68074023D01*
X178326142Y-67954976D01*
X178088047Y-67835928D01*
X177969000Y-67716880D01*
X177909476Y-67597833D01*
X177849952Y-67359738D01*
X177849952Y-67121642D01*
X177909476Y-66883547D01*
X177969000Y-66764500D01*
X178088047Y-66645452D01*
X178385666Y-66645452D01*
X178564238Y-66764500D01*
X179099952Y-69145452D02*
X179099952Y-66645452D01*
X179576142Y-66645452D01*
X179695190Y-66764500D01*
X179754714Y-66883547D01*
X179814238Y-67121642D01*
X179814238Y-67478785D01*
X179754714Y-67716880D01*
X179695190Y-67835928D01*
X179576142Y-67954976D01*
X179099952Y-67954976D01*
X180230904Y-66645452D02*
X181004714Y-66645452D01*
X180588047Y-67597833D01*
X180766619Y-67597833D01*
X180885666Y-67716880D01*
X180945190Y-67835928D01*
X181004714Y-68074023D01*
X181004714Y-68669261D01*
X180945190Y-68907357D01*
X180885666Y-69026404D01*
X180766619Y-69145452D01*
X180409476Y-69145452D01*
X180290428Y-69026404D01*
X180230904Y-68907357D01*
X181480904Y-66883547D02*
X181540428Y-66764500D01*
X181659476Y-66645452D01*
X181957095Y-66645452D01*
X182076142Y-66764500D01*
X182135666Y-66883547D01*
X182195190Y-67121642D01*
X182195190Y-67359738D01*
X182135666Y-67716880D01*
X181421380Y-69145452D01*
X182195190Y-69145452D01*
D12*
X184069380Y-88627095D02*
X183593190Y-88960428D01*
X184069380Y-89198523D02*
X183069380Y-89198523D01*
X183069380Y-88817571D01*
X183117000Y-88722333D01*
X183164619Y-88674714D01*
X183259857Y-88627095D01*
X183402714Y-88627095D01*
X183497952Y-88674714D01*
X183545571Y-88722333D01*
X183593190Y-88817571D01*
X183593190Y-89198523D01*
X184021761Y-87817571D02*
X184069380Y-87912809D01*
X184069380Y-88103285D01*
X184021761Y-88198523D01*
X183926523Y-88246142D01*
X183545571Y-88246142D01*
X183450333Y-88198523D01*
X183402714Y-88103285D01*
X183402714Y-87912809D01*
X183450333Y-87817571D01*
X183545571Y-87769952D01*
X183640809Y-87769952D01*
X183736047Y-88246142D01*
X184021761Y-87389000D02*
X184069380Y-87293761D01*
X184069380Y-87103285D01*
X184021761Y-87008047D01*
X183926523Y-86960428D01*
X183878904Y-86960428D01*
X183783666Y-87008047D01*
X183736047Y-87103285D01*
X183736047Y-87246142D01*
X183688428Y-87341380D01*
X183593190Y-87389000D01*
X183545571Y-87389000D01*
X183450333Y-87341380D01*
X183402714Y-87246142D01*
X183402714Y-87103285D01*
X183450333Y-87008047D01*
X184021761Y-86150904D02*
X184069380Y-86246142D01*
X184069380Y-86436619D01*
X184021761Y-86531857D01*
X183926523Y-86579476D01*
X183545571Y-86579476D01*
X183450333Y-86531857D01*
X183402714Y-86436619D01*
X183402714Y-86246142D01*
X183450333Y-86150904D01*
X183545571Y-86103285D01*
X183640809Y-86103285D01*
X183736047Y-86579476D01*
X183402714Y-85817571D02*
X183402714Y-85436619D01*
X183069380Y-85674714D02*
X183926523Y-85674714D01*
X184021761Y-85627095D01*
X184069380Y-85531857D01*
X184069380Y-85436619D01*
X183545571Y-76887547D02*
X183593190Y-76744690D01*
X183640809Y-76697071D01*
X183736047Y-76649452D01*
X183878904Y-76649452D01*
X183974142Y-76697071D01*
X184021761Y-76744690D01*
X184069380Y-76839928D01*
X184069380Y-77220880D01*
X183069380Y-77220880D01*
X183069380Y-76887547D01*
X183117000Y-76792309D01*
X183164619Y-76744690D01*
X183259857Y-76697071D01*
X183355095Y-76697071D01*
X183450333Y-76744690D01*
X183497952Y-76792309D01*
X183545571Y-76887547D01*
X183545571Y-77220880D01*
X184069380Y-76078023D02*
X184021761Y-76173261D01*
X183974142Y-76220880D01*
X183878904Y-76268500D01*
X183593190Y-76268500D01*
X183497952Y-76220880D01*
X183450333Y-76173261D01*
X183402714Y-76078023D01*
X183402714Y-75935166D01*
X183450333Y-75839928D01*
X183497952Y-75792309D01*
X183593190Y-75744690D01*
X183878904Y-75744690D01*
X183974142Y-75792309D01*
X184021761Y-75839928D01*
X184069380Y-75935166D01*
X184069380Y-76078023D01*
X184069380Y-75173261D02*
X184021761Y-75268500D01*
X183974142Y-75316119D01*
X183878904Y-75363738D01*
X183593190Y-75363738D01*
X183497952Y-75316119D01*
X183450333Y-75268500D01*
X183402714Y-75173261D01*
X183402714Y-75030404D01*
X183450333Y-74935166D01*
X183497952Y-74887547D01*
X183593190Y-74839928D01*
X183878904Y-74839928D01*
X183974142Y-74887547D01*
X184021761Y-74935166D01*
X184069380Y-75030404D01*
X184069380Y-75173261D01*
X183402714Y-74554214D02*
X183402714Y-74173261D01*
X183069380Y-74411357D02*
X183926523Y-74411357D01*
X184021761Y-74363738D01*
X184069380Y-74268500D01*
X184069380Y-74173261D01*
X133691547Y-64028880D02*
X133215357Y-64028880D01*
X133215357Y-63028880D01*
X134024880Y-64028880D02*
X134024880Y-63362214D01*
X134024880Y-63028880D02*
X133977261Y-63076500D01*
X134024880Y-63124119D01*
X134072500Y-63076500D01*
X134024880Y-63028880D01*
X134024880Y-63124119D01*
X134929642Y-63981261D02*
X134834404Y-64028880D01*
X134643928Y-64028880D01*
X134548690Y-63981261D01*
X134501071Y-63933642D01*
X134453452Y-63838404D01*
X134453452Y-63552690D01*
X134501071Y-63457452D01*
X134548690Y-63409833D01*
X134643928Y-63362214D01*
X134834404Y-63362214D01*
X134929642Y-63409833D01*
X135739166Y-63981261D02*
X135643928Y-64028880D01*
X135453452Y-64028880D01*
X135358214Y-63981261D01*
X135310595Y-63886023D01*
X135310595Y-63505071D01*
X135358214Y-63409833D01*
X135453452Y-63362214D01*
X135643928Y-63362214D01*
X135739166Y-63409833D01*
X135786785Y-63505071D01*
X135786785Y-63600309D01*
X135310595Y-63695547D01*
X136215357Y-63362214D02*
X136215357Y-64028880D01*
X136215357Y-63457452D02*
X136262976Y-63409833D01*
X136358214Y-63362214D01*
X136501071Y-63362214D01*
X136596309Y-63409833D01*
X136643928Y-63505071D01*
X136643928Y-64028880D01*
X137072500Y-63981261D02*
X137167738Y-64028880D01*
X137358214Y-64028880D01*
X137453452Y-63981261D01*
X137501071Y-63886023D01*
X137501071Y-63838404D01*
X137453452Y-63743166D01*
X137358214Y-63695547D01*
X137215357Y-63695547D01*
X137120119Y-63647928D01*
X137072500Y-63552690D01*
X137072500Y-63505071D01*
X137120119Y-63409833D01*
X137215357Y-63362214D01*
X137358214Y-63362214D01*
X137453452Y-63409833D01*
X138310595Y-63981261D02*
X138215357Y-64028880D01*
X138024880Y-64028880D01*
X137929642Y-63981261D01*
X137882023Y-63886023D01*
X137882023Y-63505071D01*
X137929642Y-63409833D01*
X138024880Y-63362214D01*
X138215357Y-63362214D01*
X138310595Y-63409833D01*
X138358214Y-63505071D01*
X138358214Y-63600309D01*
X137882023Y-63695547D01*
X139215357Y-64028880D02*
X139215357Y-63028880D01*
X139215357Y-63981261D02*
X139120119Y-64028880D01*
X138929642Y-64028880D01*
X138834404Y-63981261D01*
X138786785Y-63933642D01*
X138739166Y-63838404D01*
X138739166Y-63552690D01*
X138786785Y-63457452D01*
X138834404Y-63409833D01*
X138929642Y-63362214D01*
X139120119Y-63362214D01*
X139215357Y-63409833D01*
X140882023Y-63362214D02*
X140882023Y-64028880D01*
X140453452Y-63362214D02*
X140453452Y-63886023D01*
X140501071Y-63981261D01*
X140596309Y-64028880D01*
X140739166Y-64028880D01*
X140834404Y-63981261D01*
X140882023Y-63933642D01*
X141358214Y-63362214D02*
X141358214Y-64028880D01*
X141358214Y-63457452D02*
X141405833Y-63409833D01*
X141501071Y-63362214D01*
X141643928Y-63362214D01*
X141739166Y-63409833D01*
X141786785Y-63505071D01*
X141786785Y-64028880D01*
X142691547Y-64028880D02*
X142691547Y-63028880D01*
X142691547Y-63981261D02*
X142596309Y-64028880D01*
X142405833Y-64028880D01*
X142310595Y-63981261D01*
X142262976Y-63933642D01*
X142215357Y-63838404D01*
X142215357Y-63552690D01*
X142262976Y-63457452D01*
X142310595Y-63409833D01*
X142405833Y-63362214D01*
X142596309Y-63362214D01*
X142691547Y-63409833D01*
X143548690Y-63981261D02*
X143453452Y-64028880D01*
X143262976Y-64028880D01*
X143167738Y-63981261D01*
X143120119Y-63886023D01*
X143120119Y-63505071D01*
X143167738Y-63409833D01*
X143262976Y-63362214D01*
X143453452Y-63362214D01*
X143548690Y-63409833D01*
X143596309Y-63505071D01*
X143596309Y-63600309D01*
X143120119Y-63695547D01*
X144024880Y-64028880D02*
X144024880Y-63362214D01*
X144024880Y-63552690D02*
X144072500Y-63457452D01*
X144120119Y-63409833D01*
X144215357Y-63362214D01*
X144310595Y-63362214D01*
X145977261Y-63933642D02*
X145929642Y-63981261D01*
X145786785Y-64028880D01*
X145691547Y-64028880D01*
X145548690Y-63981261D01*
X145453452Y-63886023D01*
X145405833Y-63790785D01*
X145358214Y-63600309D01*
X145358214Y-63457452D01*
X145405833Y-63266976D01*
X145453452Y-63171738D01*
X145548690Y-63076500D01*
X145691547Y-63028880D01*
X145786785Y-63028880D01*
X145929642Y-63076500D01*
X145977261Y-63124119D01*
X146405833Y-63505071D02*
X146739166Y-63505071D01*
X146882023Y-64028880D02*
X146405833Y-64028880D01*
X146405833Y-63028880D01*
X146882023Y-63028880D01*
X147882023Y-64028880D02*
X147548690Y-63552690D01*
X147310595Y-64028880D02*
X147310595Y-63028880D01*
X147691547Y-63028880D01*
X147786785Y-63076500D01*
X147834404Y-63124119D01*
X147882023Y-63219357D01*
X147882023Y-63362214D01*
X147834404Y-63457452D01*
X147786785Y-63505071D01*
X147691547Y-63552690D01*
X147310595Y-63552690D01*
X148310595Y-64028880D02*
X148310595Y-63028880D01*
X148882023Y-64028880D01*
X148882023Y-63028880D01*
X150310595Y-63028880D02*
X150501071Y-63028880D01*
X150596309Y-63076500D01*
X150691547Y-63171738D01*
X150739166Y-63362214D01*
X150739166Y-63695547D01*
X150691547Y-63886023D01*
X150596309Y-63981261D01*
X150501071Y-64028880D01*
X150310595Y-64028880D01*
X150215357Y-63981261D01*
X150120119Y-63886023D01*
X150072500Y-63695547D01*
X150072500Y-63362214D01*
X150120119Y-63171738D01*
X150215357Y-63076500D01*
X150310595Y-63028880D01*
X151167738Y-64028880D02*
X151167738Y-63028880D01*
X151167738Y-63505071D02*
X151739166Y-63505071D01*
X151739166Y-64028880D02*
X151739166Y-63028880D01*
X152691547Y-64028880D02*
X152215357Y-64028880D01*
X152215357Y-63028880D01*
X153691547Y-63362214D02*
X153929642Y-64028880D01*
X154167738Y-63362214D01*
X154548690Y-63933642D02*
X154596309Y-63981261D01*
X154548690Y-64028880D01*
X154501071Y-63981261D01*
X154548690Y-63933642D01*
X154548690Y-64028880D01*
X155548690Y-64028880D02*
X154977261Y-64028880D01*
X155262976Y-64028880D02*
X155262976Y-63028880D01*
X155167738Y-63171738D01*
X155072500Y-63266976D01*
X154977261Y-63314595D01*
X155977261Y-63933642D02*
X156024880Y-63981261D01*
X155977261Y-64028880D01*
X155929642Y-63981261D01*
X155977261Y-63933642D01*
X155977261Y-64028880D01*
X156405833Y-63124119D02*
X156453452Y-63076500D01*
X156548690Y-63028880D01*
X156786785Y-63028880D01*
X156882023Y-63076500D01*
X156929642Y-63124119D01*
X156977261Y-63219357D01*
X156977261Y-63314595D01*
X156929642Y-63457452D01*
X156358214Y-64028880D01*
X156977261Y-64028880D01*
D10*
X176244642Y-98161500D02*
X176244642Y-97704357D01*
X175749404Y-96675785D02*
X175749404Y-96961500D01*
X176130357Y-96990071D01*
X176092261Y-96961500D01*
X176054166Y-96904357D01*
X176054166Y-96761500D01*
X176092261Y-96704357D01*
X176130357Y-96675785D01*
X176206547Y-96647214D01*
X176397023Y-96647214D01*
X176473214Y-96675785D01*
X176511309Y-96704357D01*
X176549404Y-96761500D01*
X176549404Y-96904357D01*
X176511309Y-96961500D01*
X176473214Y-96990071D01*
X175749404Y-96475785D02*
X176549404Y-96275785D01*
X175749404Y-96075785D01*
X176549404Y-95875785D02*
X175749404Y-95875785D01*
X175749404Y-95732928D01*
X175787500Y-95647214D01*
X175863690Y-95590071D01*
X175939880Y-95561500D01*
X176092261Y-95532928D01*
X176206547Y-95532928D01*
X176358928Y-95561500D01*
X176435119Y-95590071D01*
X176511309Y-95647214D01*
X176549404Y-95732928D01*
X176549404Y-95875785D01*
X176473214Y-94932928D02*
X176511309Y-94961500D01*
X176549404Y-95047214D01*
X176549404Y-95104357D01*
X176511309Y-95190071D01*
X176435119Y-95247214D01*
X176358928Y-95275785D01*
X176206547Y-95304357D01*
X176092261Y-95304357D01*
X175939880Y-95275785D01*
X175863690Y-95247214D01*
X175787500Y-95190071D01*
X175749404Y-95104357D01*
X175749404Y-95047214D01*
X175787500Y-94961500D01*
X175825595Y-94932928D01*
X176244642Y-94218642D02*
X176244642Y-93761500D01*
X176549404Y-93990071D02*
X175939880Y-93990071D01*
D12*
X174889500Y-97002900D02*
G75*
G03X174889500Y-97002900I-1750000J0D01*
G01*
D13*
X175703000Y-111544000D02*
X175703000Y-113544000D01*
X170703000Y-111544000D02*
X170703000Y-113544000D01*
X170703000Y-113544000D02*
X175703000Y-113544000D01*
X175703000Y-111544000D02*
X176303000Y-111544000D01*
X170103000Y-111544000D02*
X170703000Y-111544000D01*
X176303000Y-99444000D02*
X170103000Y-99444000D01*
X170103000Y-111544000D02*
X170103000Y-109044000D01*
X170103000Y-107644000D02*
X170103000Y-106044000D01*
X170103000Y-104644000D02*
X170103000Y-102044000D01*
X170103000Y-100644000D02*
X170103000Y-99444000D01*
X176303000Y-99544000D02*
X176303000Y-99444000D01*
X176303000Y-100944000D02*
X176303000Y-111544000D01*
D14*
G36*
X142164244Y-70449418D02*
G01*
X142219701Y-70477068D01*
X142268648Y-70527980D01*
X142282129Y-70546838D01*
X142296814Y-70571515D01*
X142306342Y-70598316D01*
X142311793Y-70634087D01*
X142314247Y-70685669D01*
X142314786Y-70753767D01*
X142312352Y-70847088D01*
X142303894Y-70917157D01*
X142287674Y-70969431D01*
X142261954Y-71009369D01*
X142224997Y-71042429D01*
X142222282Y-71044386D01*
X142185860Y-71064408D01*
X142142002Y-71074315D01*
X142086224Y-71076757D01*
X141995548Y-71076757D01*
X141995510Y-71164783D01*
X141994666Y-71213808D01*
X141989524Y-71242565D01*
X141976087Y-71259811D01*
X141950358Y-71274308D01*
X141944179Y-71277269D01*
X141915264Y-71291148D01*
X141892876Y-71299914D01*
X141876229Y-71300671D01*
X141864536Y-71290523D01*
X141857010Y-71266573D01*
X141852866Y-71225926D01*
X141851315Y-71165686D01*
X141851571Y-71082955D01*
X141852849Y-70974839D01*
X141853248Y-70942500D01*
X141854685Y-70831024D01*
X141855972Y-70758103D01*
X141995471Y-70758103D01*
X141996255Y-70819999D01*
X141999740Y-70860497D01*
X142007624Y-70887208D01*
X142021605Y-70907744D01*
X142031097Y-70917760D01*
X142069904Y-70947067D01*
X142104263Y-70949452D01*
X142139716Y-70925250D01*
X142140614Y-70924357D01*
X142155039Y-70905653D01*
X142163813Y-70880232D01*
X142168239Y-70841084D01*
X142169618Y-70781197D01*
X142169643Y-70767930D01*
X142166312Y-70685401D01*
X142155469Y-70628191D01*
X142135840Y-70593266D01*
X142106150Y-70577594D01*
X142088991Y-70576014D01*
X142048266Y-70583426D01*
X142020332Y-70607830D01*
X142003517Y-70652480D01*
X141996150Y-70720630D01*
X141995471Y-70758103D01*
X141855972Y-70758103D01*
X141856208Y-70744745D01*
X141858177Y-70679833D01*
X141860950Y-70632458D01*
X141864888Y-70598790D01*
X141870349Y-70574998D01*
X141877692Y-70557253D01*
X141887277Y-70541724D01*
X141891387Y-70535881D01*
X141945905Y-70480685D01*
X142014836Y-70449390D01*
X142094572Y-70440665D01*
X142164244Y-70449418D01*
X142164244Y-70449418D01*
G37*
X142164244Y-70449418D02*
X142219701Y-70477068D01*
X142268648Y-70527980D01*
X142282129Y-70546838D01*
X142296814Y-70571515D01*
X142306342Y-70598316D01*
X142311793Y-70634087D01*
X142314247Y-70685669D01*
X142314786Y-70753767D01*
X142312352Y-70847088D01*
X142303894Y-70917157D01*
X142287674Y-70969431D01*
X142261954Y-71009369D01*
X142224997Y-71042429D01*
X142222282Y-71044386D01*
X142185860Y-71064408D01*
X142142002Y-71074315D01*
X142086224Y-71076757D01*
X141995548Y-71076757D01*
X141995510Y-71164783D01*
X141994666Y-71213808D01*
X141989524Y-71242565D01*
X141976087Y-71259811D01*
X141950358Y-71274308D01*
X141944179Y-71277269D01*
X141915264Y-71291148D01*
X141892876Y-71299914D01*
X141876229Y-71300671D01*
X141864536Y-71290523D01*
X141857010Y-71266573D01*
X141852866Y-71225926D01*
X141851315Y-71165686D01*
X141851571Y-71082955D01*
X141852849Y-70974839D01*
X141853248Y-70942500D01*
X141854685Y-70831024D01*
X141855972Y-70758103D01*
X141995471Y-70758103D01*
X141996255Y-70819999D01*
X141999740Y-70860497D01*
X142007624Y-70887208D01*
X142021605Y-70907744D01*
X142031097Y-70917760D01*
X142069904Y-70947067D01*
X142104263Y-70949452D01*
X142139716Y-70925250D01*
X142140614Y-70924357D01*
X142155039Y-70905653D01*
X142163813Y-70880232D01*
X142168239Y-70841084D01*
X142169618Y-70781197D01*
X142169643Y-70767930D01*
X142166312Y-70685401D01*
X142155469Y-70628191D01*
X142135840Y-70593266D01*
X142106150Y-70577594D01*
X142088991Y-70576014D01*
X142048266Y-70583426D01*
X142020332Y-70607830D01*
X142003517Y-70652480D01*
X141996150Y-70720630D01*
X141995471Y-70758103D01*
X141855972Y-70758103D01*
X141856208Y-70744745D01*
X141858177Y-70679833D01*
X141860950Y-70632458D01*
X141864888Y-70598790D01*
X141870349Y-70574998D01*
X141877692Y-70557253D01*
X141887277Y-70541724D01*
X141891387Y-70535881D01*
X141945905Y-70480685D01*
X142014836Y-70449390D01*
X142094572Y-70440665D01*
X142164244Y-70449418D01*
G36*
X143280593Y-70457280D02*
G01*
X143327172Y-70484223D01*
X143359557Y-70510966D01*
X143383242Y-70538984D01*
X143399559Y-70573248D01*
X143409839Y-70618727D01*
X143415414Y-70680392D01*
X143417616Y-70763211D01*
X143417871Y-70822746D01*
X143417871Y-71041891D01*
X143356186Y-71069544D01*
X143294500Y-71097197D01*
X143287243Y-70857170D01*
X143284244Y-70767528D01*
X143281098Y-70702462D01*
X143277201Y-70657526D01*
X143271947Y-70628270D01*
X143264731Y-70610248D01*
X143254950Y-70599011D01*
X143251812Y-70596579D01*
X143204261Y-70577583D01*
X143156197Y-70585100D01*
X143127586Y-70605043D01*
X143115947Y-70619175D01*
X143107891Y-70637720D01*
X143102771Y-70665834D01*
X143099941Y-70708673D01*
X143098756Y-70771395D01*
X143098557Y-70836761D01*
X143098518Y-70918768D01*
X143097114Y-70976816D01*
X143092414Y-71015965D01*
X143082487Y-71041280D01*
X143065403Y-71057823D01*
X143039232Y-71070656D01*
X143004275Y-71083991D01*
X142966096Y-71098507D01*
X142970641Y-70840889D01*
X142972471Y-70748019D01*
X142974612Y-70679389D01*
X142977681Y-70630211D01*
X142982294Y-70595698D01*
X142989068Y-70571062D01*
X142998619Y-70551516D01*
X143010134Y-70534270D01*
X143065690Y-70479180D01*
X143133480Y-70447322D01*
X143207213Y-70439691D01*
X143280593Y-70457280D01*
X143280593Y-70457280D01*
G37*
X143280593Y-70457280D02*
X143327172Y-70484223D01*
X143359557Y-70510966D01*
X143383242Y-70538984D01*
X143399559Y-70573248D01*
X143409839Y-70618727D01*
X143415414Y-70680392D01*
X143417616Y-70763211D01*
X143417871Y-70822746D01*
X143417871Y-71041891D01*
X143356186Y-71069544D01*
X143294500Y-71097197D01*
X143287243Y-70857170D01*
X143284244Y-70767528D01*
X143281098Y-70702462D01*
X143277201Y-70657526D01*
X143271947Y-70628270D01*
X143264731Y-70610248D01*
X143254950Y-70599011D01*
X143251812Y-70596579D01*
X143204261Y-70577583D01*
X143156197Y-70585100D01*
X143127586Y-70605043D01*
X143115947Y-70619175D01*
X143107891Y-70637720D01*
X143102771Y-70665834D01*
X143099941Y-70708673D01*
X143098756Y-70771395D01*
X143098557Y-70836761D01*
X143098518Y-70918768D01*
X143097114Y-70976816D01*
X143092414Y-71015965D01*
X143082487Y-71041280D01*
X143065403Y-71057823D01*
X143039232Y-71070656D01*
X143004275Y-71083991D01*
X142966096Y-71098507D01*
X142970641Y-70840889D01*
X142972471Y-70748019D01*
X142974612Y-70679389D01*
X142977681Y-70630211D01*
X142982294Y-70595698D01*
X142989068Y-70571062D01*
X142998619Y-70551516D01*
X143010134Y-70534270D01*
X143065690Y-70479180D01*
X143133480Y-70447322D01*
X143207213Y-70439691D01*
X143280593Y-70457280D01*
G36*
X141605615Y-70451462D02*
G01*
X141673645Y-70487233D01*
X141723851Y-70544801D01*
X141741685Y-70581812D01*
X141755563Y-70637382D01*
X141762667Y-70707596D01*
X141763340Y-70784227D01*
X141757927Y-70859052D01*
X141746770Y-70923842D01*
X141730214Y-70970373D01*
X141725126Y-70978387D01*
X141664855Y-71038207D01*
X141593269Y-71074035D01*
X141515592Y-71084520D01*
X141437048Y-71068310D01*
X141415189Y-71058592D01*
X141372622Y-71028643D01*
X141335263Y-70988933D01*
X141331732Y-70983897D01*
X141317381Y-70959624D01*
X141307894Y-70933678D01*
X141302290Y-70899522D01*
X141299586Y-70850619D01*
X141298799Y-70780435D01*
X141298786Y-70764700D01*
X141298822Y-70759692D01*
X141443929Y-70759692D01*
X141444773Y-70825930D01*
X141448096Y-70869886D01*
X141455083Y-70898279D01*
X141466916Y-70917825D01*
X141472957Y-70924357D01*
X141507686Y-70949180D01*
X141541403Y-70948048D01*
X141575495Y-70926516D01*
X141595829Y-70903529D01*
X141607871Y-70869978D01*
X141614634Y-70817069D01*
X141615098Y-70810899D01*
X141616252Y-70715013D01*
X141604188Y-70643799D01*
X141579070Y-70597694D01*
X141541060Y-70577135D01*
X141527492Y-70576014D01*
X141491864Y-70581652D01*
X141467494Y-70601186D01*
X141452593Y-70638542D01*
X141445375Y-70697650D01*
X141443929Y-70759692D01*
X141298822Y-70759692D01*
X141299326Y-70689913D01*
X141301596Y-70637659D01*
X141306568Y-70601449D01*
X141315213Y-70574799D01*
X141328505Y-70551222D01*
X141331443Y-70546838D01*
X141380813Y-70487749D01*
X141434609Y-70453447D01*
X141500102Y-70439831D01*
X141522342Y-70439165D01*
X141605615Y-70451462D01*
X141605615Y-70451462D01*
G37*
X141605615Y-70451462D02*
X141673645Y-70487233D01*
X141723851Y-70544801D01*
X141741685Y-70581812D01*
X141755563Y-70637382D01*
X141762667Y-70707596D01*
X141763340Y-70784227D01*
X141757927Y-70859052D01*
X141746770Y-70923842D01*
X141730214Y-70970373D01*
X141725126Y-70978387D01*
X141664855Y-71038207D01*
X141593269Y-71074035D01*
X141515592Y-71084520D01*
X141437048Y-71068310D01*
X141415189Y-71058592D01*
X141372622Y-71028643D01*
X141335263Y-70988933D01*
X141331732Y-70983897D01*
X141317381Y-70959624D01*
X141307894Y-70933678D01*
X141302290Y-70899522D01*
X141299586Y-70850619D01*
X141298799Y-70780435D01*
X141298786Y-70764700D01*
X141298822Y-70759692D01*
X141443929Y-70759692D01*
X141444773Y-70825930D01*
X141448096Y-70869886D01*
X141455083Y-70898279D01*
X141466916Y-70917825D01*
X141472957Y-70924357D01*
X141507686Y-70949180D01*
X141541403Y-70948048D01*
X141575495Y-70926516D01*
X141595829Y-70903529D01*
X141607871Y-70869978D01*
X141614634Y-70817069D01*
X141615098Y-70810899D01*
X141616252Y-70715013D01*
X141604188Y-70643799D01*
X141579070Y-70597694D01*
X141541060Y-70577135D01*
X141527492Y-70576014D01*
X141491864Y-70581652D01*
X141467494Y-70601186D01*
X141452593Y-70638542D01*
X141445375Y-70697650D01*
X141443929Y-70759692D01*
X141298822Y-70759692D01*
X141299326Y-70689913D01*
X141301596Y-70637659D01*
X141306568Y-70601449D01*
X141315213Y-70574799D01*
X141328505Y-70551222D01*
X141331443Y-70546838D01*
X141380813Y-70487749D01*
X141434609Y-70453447D01*
X141500102Y-70439831D01*
X141522342Y-70439165D01*
X141605615Y-70451462D01*
G36*
X142732803Y-70460739D02*
G01*
X142790027Y-70499235D01*
X142834249Y-70554835D01*
X142860667Y-70625586D01*
X142866010Y-70677662D01*
X142865403Y-70699393D01*
X142860322Y-70716031D01*
X142846355Y-70730937D01*
X142819089Y-70747473D01*
X142774112Y-70768998D01*
X142707011Y-70798874D01*
X142706671Y-70799024D01*
X142644907Y-70827313D01*
X142594259Y-70852433D01*
X142559904Y-70871679D01*
X142547018Y-70882348D01*
X142547014Y-70882434D01*
X142558372Y-70905666D01*
X142584931Y-70931274D01*
X142615423Y-70949721D01*
X142630870Y-70953386D01*
X142673015Y-70940712D01*
X142709308Y-70908971D01*
X142727017Y-70874072D01*
X142744052Y-70848345D01*
X142777422Y-70819046D01*
X142816649Y-70793735D01*
X142851256Y-70779971D01*
X142858493Y-70779214D01*
X142866639Y-70791660D01*
X142867130Y-70823472D01*
X142861143Y-70866366D01*
X142849857Y-70912058D01*
X142834450Y-70952261D01*
X142833671Y-70953822D01*
X142787304Y-71018562D01*
X142727211Y-71062597D01*
X142658965Y-71084211D01*
X142588138Y-71081685D01*
X142520304Y-71053304D01*
X142517288Y-71051308D01*
X142463927Y-71002948D01*
X142428840Y-70939852D01*
X142409422Y-70856887D01*
X142406816Y-70833578D01*
X142402201Y-70723555D01*
X142407733Y-70672248D01*
X142547014Y-70672248D01*
X142548824Y-70704253D01*
X142558722Y-70713593D01*
X142583398Y-70706605D01*
X142622295Y-70690087D01*
X142665775Y-70669381D01*
X142666856Y-70668833D01*
X142703709Y-70649449D01*
X142718500Y-70636513D01*
X142714853Y-70622951D01*
X142699495Y-70605132D01*
X142660423Y-70579345D01*
X142618346Y-70577450D01*
X142580603Y-70596217D01*
X142554534Y-70632415D01*
X142547014Y-70672248D01*
X142407733Y-70672248D01*
X142411694Y-70635527D01*
X142436050Y-70565712D01*
X142469956Y-70516802D01*
X142531153Y-70467378D01*
X142598563Y-70442859D01*
X142667380Y-70441297D01*
X142732803Y-70460739D01*
X142732803Y-70460739D01*
G37*
X142732803Y-70460739D02*
X142790027Y-70499235D01*
X142834249Y-70554835D01*
X142860667Y-70625586D01*
X142866010Y-70677662D01*
X142865403Y-70699393D01*
X142860322Y-70716031D01*
X142846355Y-70730937D01*
X142819089Y-70747473D01*
X142774112Y-70768998D01*
X142707011Y-70798874D01*
X142706671Y-70799024D01*
X142644907Y-70827313D01*
X142594259Y-70852433D01*
X142559904Y-70871679D01*
X142547018Y-70882348D01*
X142547014Y-70882434D01*
X142558372Y-70905666D01*
X142584931Y-70931274D01*
X142615423Y-70949721D01*
X142630870Y-70953386D01*
X142673015Y-70940712D01*
X142709308Y-70908971D01*
X142727017Y-70874072D01*
X142744052Y-70848345D01*
X142777422Y-70819046D01*
X142816649Y-70793735D01*
X142851256Y-70779971D01*
X142858493Y-70779214D01*
X142866639Y-70791660D01*
X142867130Y-70823472D01*
X142861143Y-70866366D01*
X142849857Y-70912058D01*
X142834450Y-70952261D01*
X142833671Y-70953822D01*
X142787304Y-71018562D01*
X142727211Y-71062597D01*
X142658965Y-71084211D01*
X142588138Y-71081685D01*
X142520304Y-71053304D01*
X142517288Y-71051308D01*
X142463927Y-71002948D01*
X142428840Y-70939852D01*
X142409422Y-70856887D01*
X142406816Y-70833578D01*
X142402201Y-70723555D01*
X142407733Y-70672248D01*
X142547014Y-70672248D01*
X142548824Y-70704253D01*
X142558722Y-70713593D01*
X142583398Y-70706605D01*
X142622295Y-70690087D01*
X142665775Y-70669381D01*
X142666856Y-70668833D01*
X142703709Y-70649449D01*
X142718500Y-70636513D01*
X142714853Y-70622951D01*
X142699495Y-70605132D01*
X142660423Y-70579345D01*
X142618346Y-70577450D01*
X142580603Y-70596217D01*
X142554534Y-70632415D01*
X142547014Y-70672248D01*
X142407733Y-70672248D01*
X142411694Y-70635527D01*
X142436050Y-70565712D01*
X142469956Y-70516802D01*
X142531153Y-70467378D01*
X142598563Y-70442859D01*
X142667380Y-70441297D01*
X142732803Y-70460739D01*
G36*
X143940386Y-70380789D02*
G01*
X143944639Y-70440113D01*
X143949525Y-70475072D01*
X143956295Y-70490320D01*
X143966202Y-70490515D01*
X143969414Y-70488695D01*
X144012144Y-70475515D01*
X144067727Y-70476285D01*
X144124237Y-70489833D01*
X144159582Y-70507361D01*
X144195821Y-70535361D01*
X144222313Y-70567049D01*
X144240499Y-70607313D01*
X144251822Y-70661043D01*
X144257722Y-70733126D01*
X144259643Y-70828451D01*
X144259677Y-70846737D01*
X144259700Y-71052146D01*
X144213991Y-71068080D01*
X144181527Y-71078920D01*
X144163715Y-71083968D01*
X144163191Y-71084014D01*
X144161437Y-71070328D01*
X144159944Y-71032576D01*
X144158826Y-70975724D01*
X144158197Y-70904734D01*
X144158100Y-70861573D01*
X144157898Y-70776473D01*
X144156858Y-70715481D01*
X144154331Y-70673677D01*
X144149664Y-70646142D01*
X144142207Y-70627956D01*
X144131311Y-70614198D01*
X144124507Y-70607573D01*
X144077772Y-70580875D01*
X144026772Y-70578875D01*
X143980501Y-70601455D01*
X143971944Y-70609607D01*
X143959393Y-70624936D01*
X143950688Y-70643118D01*
X143945131Y-70669409D01*
X143942026Y-70709062D01*
X143940676Y-70767332D01*
X143940386Y-70847673D01*
X143940386Y-71052146D01*
X143894677Y-71068080D01*
X143862213Y-71078920D01*
X143844401Y-71083968D01*
X143843877Y-71084014D01*
X143842537Y-71070123D01*
X143841328Y-71030939D01*
X143840301Y-70970200D01*
X143839502Y-70891641D01*
X143838981Y-70798998D01*
X143838786Y-70696009D01*
X143838786Y-70298842D01*
X143885957Y-70278944D01*
X143933129Y-70259047D01*
X143940386Y-70380789D01*
X143940386Y-70380789D01*
G37*
X143940386Y-70380789D02*
X143944639Y-70440113D01*
X143949525Y-70475072D01*
X143956295Y-70490320D01*
X143966202Y-70490515D01*
X143969414Y-70488695D01*
X144012144Y-70475515D01*
X144067727Y-70476285D01*
X144124237Y-70489833D01*
X144159582Y-70507361D01*
X144195821Y-70535361D01*
X144222313Y-70567049D01*
X144240499Y-70607313D01*
X144251822Y-70661043D01*
X144257722Y-70733126D01*
X144259643Y-70828451D01*
X144259677Y-70846737D01*
X144259700Y-71052146D01*
X144213991Y-71068080D01*
X144181527Y-71078920D01*
X144163715Y-71083968D01*
X144163191Y-71084014D01*
X144161437Y-71070328D01*
X144159944Y-71032576D01*
X144158826Y-70975724D01*
X144158197Y-70904734D01*
X144158100Y-70861573D01*
X144157898Y-70776473D01*
X144156858Y-70715481D01*
X144154331Y-70673677D01*
X144149664Y-70646142D01*
X144142207Y-70627956D01*
X144131311Y-70614198D01*
X144124507Y-70607573D01*
X144077772Y-70580875D01*
X144026772Y-70578875D01*
X143980501Y-70601455D01*
X143971944Y-70609607D01*
X143959393Y-70624936D01*
X143950688Y-70643118D01*
X143945131Y-70669409D01*
X143942026Y-70709062D01*
X143940676Y-70767332D01*
X143940386Y-70847673D01*
X143940386Y-71052146D01*
X143894677Y-71068080D01*
X143862213Y-71078920D01*
X143844401Y-71083968D01*
X143843877Y-71084014D01*
X143842537Y-71070123D01*
X143841328Y-71030939D01*
X143840301Y-70970200D01*
X143839502Y-70891641D01*
X143838981Y-70798998D01*
X143838786Y-70696009D01*
X143838786Y-70298842D01*
X143885957Y-70278944D01*
X143933129Y-70259047D01*
X143940386Y-70380789D01*
G36*
X144604244Y-70480468D02*
G01*
X144661116Y-70501587D01*
X144661767Y-70501993D01*
X144696940Y-70527880D01*
X144722907Y-70558133D01*
X144741170Y-70597558D01*
X144753232Y-70650962D01*
X144760596Y-70723151D01*
X144764764Y-70818932D01*
X144765129Y-70832578D01*
X144770376Y-71038342D01*
X144726216Y-71061178D01*
X144694263Y-71076610D01*
X144674970Y-71083923D01*
X144674078Y-71084014D01*
X144670739Y-71070522D01*
X144668087Y-71034126D01*
X144666456Y-70980952D01*
X144666100Y-70937893D01*
X144666092Y-70868141D01*
X144662903Y-70824337D01*
X144651788Y-70803444D01*
X144628001Y-70802425D01*
X144586796Y-70818241D01*
X144524586Y-70847315D01*
X144478841Y-70871463D01*
X144455313Y-70892413D01*
X144448396Y-70915247D01*
X144448386Y-70916377D01*
X144459799Y-70955712D01*
X144493592Y-70976962D01*
X144545309Y-70980039D01*
X144582561Y-70979506D01*
X144602203Y-70990235D01*
X144614452Y-71016005D01*
X144621502Y-71048837D01*
X144611342Y-71067466D01*
X144607517Y-71070132D01*
X144571501Y-71080840D01*
X144521066Y-71082356D01*
X144469126Y-71075259D01*
X144432322Y-71062288D01*
X144381438Y-71019085D01*
X144352514Y-70958946D01*
X144346786Y-70911962D01*
X144351157Y-70869582D01*
X144366975Y-70834988D01*
X144398297Y-70804263D01*
X144449178Y-70773490D01*
X144523676Y-70738752D01*
X144528214Y-70736788D01*
X144595321Y-70705787D01*
X144636732Y-70680362D01*
X144654481Y-70657514D01*
X144650607Y-70634245D01*
X144627143Y-70607556D01*
X144620127Y-70601414D01*
X144573130Y-70577600D01*
X144524433Y-70578603D01*
X144482022Y-70601951D01*
X144453884Y-70645175D01*
X144451269Y-70653660D01*
X144425808Y-70694808D01*
X144393501Y-70714628D01*
X144346786Y-70734270D01*
X144346786Y-70683450D01*
X144360996Y-70609582D01*
X144403175Y-70541827D01*
X144425124Y-70519161D01*
X144475017Y-70490069D01*
X144538467Y-70476900D01*
X144604244Y-70480468D01*
X144604244Y-70480468D01*
G37*
X144604244Y-70480468D02*
X144661116Y-70501587D01*
X144661767Y-70501993D01*
X144696940Y-70527880D01*
X144722907Y-70558133D01*
X144741170Y-70597558D01*
X144753232Y-70650962D01*
X144760596Y-70723151D01*
X144764764Y-70818932D01*
X144765129Y-70832578D01*
X144770376Y-71038342D01*
X144726216Y-71061178D01*
X144694263Y-71076610D01*
X144674970Y-71083923D01*
X144674078Y-71084014D01*
X144670739Y-71070522D01*
X144668087Y-71034126D01*
X144666456Y-70980952D01*
X144666100Y-70937893D01*
X144666092Y-70868141D01*
X144662903Y-70824337D01*
X144651788Y-70803444D01*
X144628001Y-70802425D01*
X144586796Y-70818241D01*
X144524586Y-70847315D01*
X144478841Y-70871463D01*
X144455313Y-70892413D01*
X144448396Y-70915247D01*
X144448386Y-70916377D01*
X144459799Y-70955712D01*
X144493592Y-70976962D01*
X144545309Y-70980039D01*
X144582561Y-70979506D01*
X144602203Y-70990235D01*
X144614452Y-71016005D01*
X144621502Y-71048837D01*
X144611342Y-71067466D01*
X144607517Y-71070132D01*
X144571501Y-71080840D01*
X144521066Y-71082356D01*
X144469126Y-71075259D01*
X144432322Y-71062288D01*
X144381438Y-71019085D01*
X144352514Y-70958946D01*
X144346786Y-70911962D01*
X144351157Y-70869582D01*
X144366975Y-70834988D01*
X144398297Y-70804263D01*
X144449178Y-70773490D01*
X144523676Y-70738752D01*
X144528214Y-70736788D01*
X144595321Y-70705787D01*
X144636732Y-70680362D01*
X144654481Y-70657514D01*
X144650607Y-70634245D01*
X144627143Y-70607556D01*
X144620127Y-70601414D01*
X144573130Y-70577600D01*
X144524433Y-70578603D01*
X144482022Y-70601951D01*
X144453884Y-70645175D01*
X144451269Y-70653660D01*
X144425808Y-70694808D01*
X144393501Y-70714628D01*
X144346786Y-70734270D01*
X144346786Y-70683450D01*
X144360996Y-70609582D01*
X144403175Y-70541827D01*
X144425124Y-70519161D01*
X144475017Y-70490069D01*
X144538467Y-70476900D01*
X144604244Y-70480468D01*
G36*
X145094426Y-70479255D02*
G01*
X145160358Y-70503584D01*
X145213773Y-70546617D01*
X145234664Y-70576909D01*
X145257439Y-70632494D01*
X145256966Y-70672686D01*
X145233062Y-70699717D01*
X145224217Y-70704313D01*
X145186030Y-70718644D01*
X145166528Y-70714972D01*
X145159922Y-70690907D01*
X145159586Y-70677614D01*
X145147492Y-70628710D01*
X145115971Y-70594499D01*
X145072159Y-70577976D01*
X145023195Y-70582134D01*
X144983394Y-70603727D01*
X144969950Y-70616044D01*
X144960421Y-70630987D01*
X144953985Y-70653575D01*
X144949817Y-70688828D01*
X144947097Y-70741766D01*
X144945002Y-70817407D01*
X144944460Y-70841357D01*
X144942481Y-70923290D01*
X144940231Y-70980955D01*
X144936857Y-71019108D01*
X144931506Y-71042504D01*
X144923324Y-71055898D01*
X144911459Y-71064045D01*
X144903862Y-71067644D01*
X144871602Y-71079952D01*
X144852611Y-71084014D01*
X144846336Y-71070448D01*
X144842506Y-71029434D01*
X144841100Y-70960499D01*
X144842098Y-70863169D01*
X144842408Y-70848157D01*
X144844601Y-70759359D01*
X144847193Y-70694519D01*
X144850882Y-70648567D01*
X144856364Y-70616435D01*
X144864335Y-70593053D01*
X144875493Y-70573352D01*
X144881330Y-70564910D01*
X144914796Y-70527557D01*
X144952227Y-70498503D01*
X144956809Y-70495967D01*
X145023926Y-70475943D01*
X145094426Y-70479255D01*
X145094426Y-70479255D01*
G37*
X145094426Y-70479255D02*
X145160358Y-70503584D01*
X145213773Y-70546617D01*
X145234664Y-70576909D01*
X145257439Y-70632494D01*
X145256966Y-70672686D01*
X145233062Y-70699717D01*
X145224217Y-70704313D01*
X145186030Y-70718644D01*
X145166528Y-70714972D01*
X145159922Y-70690907D01*
X145159586Y-70677614D01*
X145147492Y-70628710D01*
X145115971Y-70594499D01*
X145072159Y-70577976D01*
X145023195Y-70582134D01*
X144983394Y-70603727D01*
X144969950Y-70616044D01*
X144960421Y-70630987D01*
X144953985Y-70653575D01*
X144949817Y-70688828D01*
X144947097Y-70741766D01*
X144945002Y-70817407D01*
X144944460Y-70841357D01*
X144942481Y-70923290D01*
X144940231Y-70980955D01*
X144936857Y-71019108D01*
X144931506Y-71042504D01*
X144923324Y-71055898D01*
X144911459Y-71064045D01*
X144903862Y-71067644D01*
X144871602Y-71079952D01*
X144852611Y-71084014D01*
X144846336Y-71070448D01*
X144842506Y-71029434D01*
X144841100Y-70960499D01*
X144842098Y-70863169D01*
X144842408Y-70848157D01*
X144844601Y-70759359D01*
X144847193Y-70694519D01*
X144850882Y-70648567D01*
X144856364Y-70616435D01*
X144864335Y-70593053D01*
X144875493Y-70573352D01*
X144881330Y-70564910D01*
X144914796Y-70527557D01*
X144952227Y-70498503D01*
X144956809Y-70495967D01*
X145023926Y-70475943D01*
X145094426Y-70479255D01*
G36*
X145754617Y-70594858D02*
G01*
X145754433Y-70703337D01*
X145753719Y-70786787D01*
X145752175Y-70849204D01*
X145749501Y-70894585D01*
X145745394Y-70926929D01*
X145739555Y-70950233D01*
X145731682Y-70968495D01*
X145725721Y-70978918D01*
X145676355Y-71035445D01*
X145613764Y-71070877D01*
X145544513Y-71083590D01*
X145475168Y-71071963D01*
X145433875Y-71051068D01*
X145390525Y-71014922D01*
X145360981Y-70970776D01*
X145343155Y-70912962D01*
X145334963Y-70835813D01*
X145333802Y-70779214D01*
X145333958Y-70775147D01*
X145435357Y-70775147D01*
X145435976Y-70840050D01*
X145438814Y-70883014D01*
X145445340Y-70911122D01*
X145457023Y-70931453D01*
X145470983Y-70946788D01*
X145517865Y-70976390D01*
X145568201Y-70978919D01*
X145615776Y-70954205D01*
X145619479Y-70950856D01*
X145635283Y-70933435D01*
X145645193Y-70912709D01*
X145650558Y-70881862D01*
X145652728Y-70834077D01*
X145653071Y-70781248D01*
X145652327Y-70714881D01*
X145649248Y-70670606D01*
X145642561Y-70641509D01*
X145630996Y-70620673D01*
X145621513Y-70609607D01*
X145577460Y-70581698D01*
X145526724Y-70578343D01*
X145478296Y-70599659D01*
X145468950Y-70607573D01*
X145453040Y-70625147D01*
X145443110Y-70646087D01*
X145437778Y-70677282D01*
X145435663Y-70725622D01*
X145435357Y-70775147D01*
X145333958Y-70775147D01*
X145337310Y-70688068D01*
X145349226Y-70619586D01*
X145371635Y-70568100D01*
X145406624Y-70527943D01*
X145433875Y-70507361D01*
X145483407Y-70485125D01*
X145540816Y-70474804D01*
X145594182Y-70477567D01*
X145624043Y-70488712D01*
X145635761Y-70491883D01*
X145643537Y-70480057D01*
X145648965Y-70448366D01*
X145653071Y-70400093D01*
X145657567Y-70346329D01*
X145663813Y-70313982D01*
X145675176Y-70295485D01*
X145695028Y-70283270D01*
X145707500Y-70277862D01*
X145754671Y-70258101D01*
X145754617Y-70594858D01*
X145754617Y-70594858D01*
G37*
X145754617Y-70594858D02*
X145754433Y-70703337D01*
X145753719Y-70786787D01*
X145752175Y-70849204D01*
X145749501Y-70894585D01*
X145745394Y-70926929D01*
X145739555Y-70950233D01*
X145731682Y-70968495D01*
X145725721Y-70978918D01*
X145676355Y-71035445D01*
X145613764Y-71070877D01*
X145544513Y-71083590D01*
X145475168Y-71071963D01*
X145433875Y-71051068D01*
X145390525Y-71014922D01*
X145360981Y-70970776D01*
X145343155Y-70912962D01*
X145334963Y-70835813D01*
X145333802Y-70779214D01*
X145333958Y-70775147D01*
X145435357Y-70775147D01*
X145435976Y-70840050D01*
X145438814Y-70883014D01*
X145445340Y-70911122D01*
X145457023Y-70931453D01*
X145470983Y-70946788D01*
X145517865Y-70976390D01*
X145568201Y-70978919D01*
X145615776Y-70954205D01*
X145619479Y-70950856D01*
X145635283Y-70933435D01*
X145645193Y-70912709D01*
X145650558Y-70881862D01*
X145652728Y-70834077D01*
X145653071Y-70781248D01*
X145652327Y-70714881D01*
X145649248Y-70670606D01*
X145642561Y-70641509D01*
X145630996Y-70620673D01*
X145621513Y-70609607D01*
X145577460Y-70581698D01*
X145526724Y-70578343D01*
X145478296Y-70599659D01*
X145468950Y-70607573D01*
X145453040Y-70625147D01*
X145443110Y-70646087D01*
X145437778Y-70677282D01*
X145435663Y-70725622D01*
X145435357Y-70775147D01*
X145333958Y-70775147D01*
X145337310Y-70688068D01*
X145349226Y-70619586D01*
X145371635Y-70568100D01*
X145406624Y-70527943D01*
X145433875Y-70507361D01*
X145483407Y-70485125D01*
X145540816Y-70474804D01*
X145594182Y-70477567D01*
X145624043Y-70488712D01*
X145635761Y-70491883D01*
X145643537Y-70480057D01*
X145648965Y-70448366D01*
X145653071Y-70400093D01*
X145657567Y-70346329D01*
X145663813Y-70313982D01*
X145675176Y-70295485D01*
X145695028Y-70283270D01*
X145707500Y-70277862D01*
X145754671Y-70258101D01*
X145754617Y-70594858D01*
G36*
X146344333Y-70488163D02*
G01*
X146346548Y-70526350D01*
X146348284Y-70584386D01*
X146349399Y-70657680D01*
X146349757Y-70734555D01*
X146349757Y-70994696D01*
X146303826Y-71040627D01*
X146272175Y-71068929D01*
X146244390Y-71080393D01*
X146206415Y-71079668D01*
X146191340Y-71077821D01*
X146144226Y-71072448D01*
X146105256Y-71069369D01*
X146095757Y-71069085D01*
X146063733Y-71070945D01*
X146017932Y-71075614D01*
X146000174Y-71077821D01*
X145956557Y-71081235D01*
X145927245Y-71073820D01*
X145898180Y-71050927D01*
X145887688Y-71040627D01*
X145841757Y-70994696D01*
X145841757Y-70508102D01*
X145878726Y-70491258D01*
X145910559Y-70478782D01*
X145929183Y-70474414D01*
X145933958Y-70488218D01*
X145938421Y-70526786D01*
X145942275Y-70585856D01*
X145945222Y-70661163D01*
X145946643Y-70724786D01*
X145950614Y-70975157D01*
X145985259Y-70980056D01*
X146016768Y-70976631D01*
X146032208Y-70965541D01*
X146036523Y-70944808D01*
X146040208Y-70900645D01*
X146042969Y-70838646D01*
X146044512Y-70764409D01*
X146044735Y-70726206D01*
X146044957Y-70506283D01*
X146090666Y-70490349D01*
X146123018Y-70479515D01*
X146140615Y-70474462D01*
X146141123Y-70474414D01*
X146142888Y-70488148D01*
X146144829Y-70526230D01*
X146146782Y-70583982D01*
X146148584Y-70656727D01*
X146149843Y-70724786D01*
X146153814Y-70975157D01*
X146240900Y-70975157D01*
X146244896Y-70746740D01*
X146248892Y-70518322D01*
X146291347Y-70496368D01*
X146322692Y-70481293D01*
X146341244Y-70474451D01*
X146341779Y-70474414D01*
X146344333Y-70488163D01*
X146344333Y-70488163D01*
G37*
X146344333Y-70488163D02*
X146346548Y-70526350D01*
X146348284Y-70584386D01*
X146349399Y-70657680D01*
X146349757Y-70734555D01*
X146349757Y-70994696D01*
X146303826Y-71040627D01*
X146272175Y-71068929D01*
X146244390Y-71080393D01*
X146206415Y-71079668D01*
X146191340Y-71077821D01*
X146144226Y-71072448D01*
X146105256Y-71069369D01*
X146095757Y-71069085D01*
X146063733Y-71070945D01*
X146017932Y-71075614D01*
X146000174Y-71077821D01*
X145956557Y-71081235D01*
X145927245Y-71073820D01*
X145898180Y-71050927D01*
X145887688Y-71040627D01*
X145841757Y-70994696D01*
X145841757Y-70508102D01*
X145878726Y-70491258D01*
X145910559Y-70478782D01*
X145929183Y-70474414D01*
X145933958Y-70488218D01*
X145938421Y-70526786D01*
X145942275Y-70585856D01*
X145945222Y-70661163D01*
X145946643Y-70724786D01*
X145950614Y-70975157D01*
X145985259Y-70980056D01*
X146016768Y-70976631D01*
X146032208Y-70965541D01*
X146036523Y-70944808D01*
X146040208Y-70900645D01*
X146042969Y-70838646D01*
X146044512Y-70764409D01*
X146044735Y-70726206D01*
X146044957Y-70506283D01*
X146090666Y-70490349D01*
X146123018Y-70479515D01*
X146140615Y-70474462D01*
X146141123Y-70474414D01*
X146142888Y-70488148D01*
X146144829Y-70526230D01*
X146146782Y-70583982D01*
X146148584Y-70656727D01*
X146149843Y-70724786D01*
X146153814Y-70975157D01*
X146240900Y-70975157D01*
X146244896Y-70746740D01*
X146248892Y-70518322D01*
X146291347Y-70496368D01*
X146322692Y-70481293D01*
X146341244Y-70474451D01*
X146341779Y-70474414D01*
X146344333Y-70488163D01*
G36*
X146709376Y-70485835D02*
G01*
X146751167Y-70504844D01*
X146783969Y-70527878D01*
X146808003Y-70553633D01*
X146824597Y-70586858D01*
X146835077Y-70632300D01*
X146840771Y-70694707D01*
X146843007Y-70778827D01*
X146843243Y-70834221D01*
X146843243Y-71050326D01*
X146806274Y-71067170D01*
X146777156Y-71079481D01*
X146762731Y-71084014D01*
X146759972Y-71070525D01*
X146757782Y-71034153D01*
X146756442Y-70981042D01*
X146756157Y-70938872D01*
X146754934Y-70877947D01*
X146751636Y-70829615D01*
X146746821Y-70800018D01*
X146742996Y-70793729D01*
X146717283Y-70800152D01*
X146676918Y-70816625D01*
X146630179Y-70838958D01*
X146585345Y-70862957D01*
X146550693Y-70884430D01*
X146534502Y-70899185D01*
X146534438Y-70899345D01*
X146535830Y-70926652D01*
X146548318Y-70952719D01*
X146570243Y-70973892D01*
X146602243Y-70980974D01*
X146629592Y-70980149D01*
X146668326Y-70979542D01*
X146688658Y-70988616D01*
X146700869Y-71012592D01*
X146702409Y-71017113D01*
X146707703Y-71051306D01*
X146693547Y-71072068D01*
X146656648Y-71081962D01*
X146616789Y-71083792D01*
X146545062Y-71070227D01*
X146507932Y-71050855D01*
X146462076Y-71005345D01*
X146437756Y-70949483D01*
X146435573Y-70890457D01*
X146456129Y-70835453D01*
X146487049Y-70800986D01*
X146517920Y-70781689D01*
X146566442Y-70757259D01*
X146622985Y-70732485D01*
X146632410Y-70728699D01*
X146694519Y-70701291D01*
X146730322Y-70677134D01*
X146741837Y-70653119D01*
X146731080Y-70626135D01*
X146712614Y-70605043D01*
X146668969Y-70579072D01*
X146620946Y-70577124D01*
X146576906Y-70597137D01*
X146545209Y-70637051D01*
X146541049Y-70647348D01*
X146516827Y-70685224D01*
X146481465Y-70713342D01*
X146436843Y-70736417D01*
X146436843Y-70670985D01*
X146439469Y-70631006D01*
X146450730Y-70599497D01*
X146475699Y-70565878D01*
X146499669Y-70539984D01*
X146536941Y-70503317D01*
X146565901Y-70483621D01*
X146597005Y-70475720D01*
X146632213Y-70474414D01*
X146709376Y-70485835D01*
X146709376Y-70485835D01*
G37*
X146709376Y-70485835D02*
X146751167Y-70504844D01*
X146783969Y-70527878D01*
X146808003Y-70553633D01*
X146824597Y-70586858D01*
X146835077Y-70632300D01*
X146840771Y-70694707D01*
X146843007Y-70778827D01*
X146843243Y-70834221D01*
X146843243Y-71050326D01*
X146806274Y-71067170D01*
X146777156Y-71079481D01*
X146762731Y-71084014D01*
X146759972Y-71070525D01*
X146757782Y-71034153D01*
X146756442Y-70981042D01*
X146756157Y-70938872D01*
X146754934Y-70877947D01*
X146751636Y-70829615D01*
X146746821Y-70800018D01*
X146742996Y-70793729D01*
X146717283Y-70800152D01*
X146676918Y-70816625D01*
X146630179Y-70838958D01*
X146585345Y-70862957D01*
X146550693Y-70884430D01*
X146534502Y-70899185D01*
X146534438Y-70899345D01*
X146535830Y-70926652D01*
X146548318Y-70952719D01*
X146570243Y-70973892D01*
X146602243Y-70980974D01*
X146629592Y-70980149D01*
X146668326Y-70979542D01*
X146688658Y-70988616D01*
X146700869Y-71012592D01*
X146702409Y-71017113D01*
X146707703Y-71051306D01*
X146693547Y-71072068D01*
X146656648Y-71081962D01*
X146616789Y-71083792D01*
X146545062Y-71070227D01*
X146507932Y-71050855D01*
X146462076Y-71005345D01*
X146437756Y-70949483D01*
X146435573Y-70890457D01*
X146456129Y-70835453D01*
X146487049Y-70800986D01*
X146517920Y-70781689D01*
X146566442Y-70757259D01*
X146622985Y-70732485D01*
X146632410Y-70728699D01*
X146694519Y-70701291D01*
X146730322Y-70677134D01*
X146741837Y-70653119D01*
X146731080Y-70626135D01*
X146712614Y-70605043D01*
X146668969Y-70579072D01*
X146620946Y-70577124D01*
X146576906Y-70597137D01*
X146545209Y-70637051D01*
X146541049Y-70647348D01*
X146516827Y-70685224D01*
X146481465Y-70713342D01*
X146436843Y-70736417D01*
X146436843Y-70670985D01*
X146439469Y-70631006D01*
X146450730Y-70599497D01*
X146475699Y-70565878D01*
X146499669Y-70539984D01*
X146536941Y-70503317D01*
X146565901Y-70483621D01*
X146597005Y-70475720D01*
X146632213Y-70474414D01*
X146709376Y-70485835D01*
G36*
X147217100Y-70488252D02*
G01*
X147234448Y-70495834D01*
X147275856Y-70528628D01*
X147311265Y-70576047D01*
X147333164Y-70626651D01*
X147336729Y-70651598D01*
X147324779Y-70686427D01*
X147298567Y-70704857D01*
X147270464Y-70716016D01*
X147257595Y-70718072D01*
X147251329Y-70703149D01*
X147238956Y-70670675D01*
X147233528Y-70656002D01*
X147203090Y-70605244D01*
X147159020Y-70579927D01*
X147102510Y-70580706D01*
X147098325Y-70581703D01*
X147068155Y-70596007D01*
X147045976Y-70623893D01*
X147030827Y-70668787D01*
X147021750Y-70734115D01*
X147017786Y-70823304D01*
X147017414Y-70870761D01*
X147017230Y-70945571D01*
X147016022Y-70996569D01*
X147012809Y-71028971D01*
X147006609Y-71047995D01*
X146996440Y-71058856D01*
X146981319Y-71066772D01*
X146980446Y-71067170D01*
X146951328Y-71079481D01*
X146936903Y-71084014D01*
X146934686Y-71070309D01*
X146932789Y-71032425D01*
X146931347Y-70975215D01*
X146930498Y-70903527D01*
X146930329Y-70851065D01*
X146931192Y-70749547D01*
X146934570Y-70672532D01*
X146941642Y-70615523D01*
X146953588Y-70574026D01*
X146971590Y-70543543D01*
X146996827Y-70519580D01*
X147021747Y-70502855D01*
X147081671Y-70480597D01*
X147151411Y-70475576D01*
X147217100Y-70488252D01*
X147217100Y-70488252D01*
G37*
X147217100Y-70488252D02*
X147234448Y-70495834D01*
X147275856Y-70528628D01*
X147311265Y-70576047D01*
X147333164Y-70626651D01*
X147336729Y-70651598D01*
X147324779Y-70686427D01*
X147298567Y-70704857D01*
X147270464Y-70716016D01*
X147257595Y-70718072D01*
X147251329Y-70703149D01*
X147238956Y-70670675D01*
X147233528Y-70656002D01*
X147203090Y-70605244D01*
X147159020Y-70579927D01*
X147102510Y-70580706D01*
X147098325Y-70581703D01*
X147068155Y-70596007D01*
X147045976Y-70623893D01*
X147030827Y-70668787D01*
X147021750Y-70734115D01*
X147017786Y-70823304D01*
X147017414Y-70870761D01*
X147017230Y-70945571D01*
X147016022Y-70996569D01*
X147012809Y-71028971D01*
X147006609Y-71047995D01*
X146996440Y-71058856D01*
X146981319Y-71066772D01*
X146980446Y-71067170D01*
X146951328Y-71079481D01*
X146936903Y-71084014D01*
X146934686Y-71070309D01*
X146932789Y-71032425D01*
X146931347Y-70975215D01*
X146930498Y-70903527D01*
X146930329Y-70851065D01*
X146931192Y-70749547D01*
X146934570Y-70672532D01*
X146941642Y-70615523D01*
X146953588Y-70574026D01*
X146971590Y-70543543D01*
X146996827Y-70519580D01*
X147021747Y-70502855D01*
X147081671Y-70480597D01*
X147151411Y-70475576D01*
X147217100Y-70488252D01*
G36*
X147718095Y-70496466D02*
G01*
X147775521Y-70533997D01*
X147803219Y-70567596D01*
X147825162Y-70628564D01*
X147826905Y-70676808D01*
X147822957Y-70741316D01*
X147674186Y-70806434D01*
X147601849Y-70839702D01*
X147554584Y-70866464D01*
X147530007Y-70889644D01*
X147525737Y-70912167D01*
X147539389Y-70936955D01*
X147554443Y-70953386D01*
X147598246Y-70979735D01*
X147645889Y-70981581D01*
X147689645Y-70961046D01*
X147721789Y-70920252D01*
X147727538Y-70905847D01*
X147755076Y-70860856D01*
X147786758Y-70841682D01*
X147830214Y-70825279D01*
X147830214Y-70887466D01*
X147826372Y-70929783D01*
X147811323Y-70965469D01*
X147779780Y-71006443D01*
X147775092Y-71011767D01*
X147740006Y-71048220D01*
X147709847Y-71067783D01*
X147672115Y-71076783D01*
X147640835Y-71079730D01*
X147584885Y-71080465D01*
X147545055Y-71071160D01*
X147520208Y-71057346D01*
X147481156Y-71026967D01*
X147454125Y-70994113D01*
X147437017Y-70952794D01*
X147427738Y-70897021D01*
X147424193Y-70820805D01*
X147423910Y-70782122D01*
X147424872Y-70735747D01*
X147512507Y-70735747D01*
X147513523Y-70760626D01*
X147516056Y-70764700D01*
X147532774Y-70759165D01*
X147568749Y-70744517D01*
X147616831Y-70723690D01*
X147626886Y-70719214D01*
X147687652Y-70688314D01*
X147721132Y-70661157D01*
X147728490Y-70635720D01*
X147710891Y-70609981D01*
X147696356Y-70598609D01*
X147643910Y-70575864D01*
X147594822Y-70579622D01*
X147553727Y-70607384D01*
X147525258Y-70656652D01*
X147516131Y-70695757D01*
X147512507Y-70735747D01*
X147424872Y-70735747D01*
X147425785Y-70691749D01*
X147432696Y-70624884D01*
X147446384Y-70576195D01*
X147468596Y-70540349D01*
X147501074Y-70512013D01*
X147515233Y-70502855D01*
X147579553Y-70479007D01*
X147649973Y-70477506D01*
X147718095Y-70496466D01*
X147718095Y-70496466D01*
G37*
X147718095Y-70496466D02*
X147775521Y-70533997D01*
X147803219Y-70567596D01*
X147825162Y-70628564D01*
X147826905Y-70676808D01*
X147822957Y-70741316D01*
X147674186Y-70806434D01*
X147601849Y-70839702D01*
X147554584Y-70866464D01*
X147530007Y-70889644D01*
X147525737Y-70912167D01*
X147539389Y-70936955D01*
X147554443Y-70953386D01*
X147598246Y-70979735D01*
X147645889Y-70981581D01*
X147689645Y-70961046D01*
X147721789Y-70920252D01*
X147727538Y-70905847D01*
X147755076Y-70860856D01*
X147786758Y-70841682D01*
X147830214Y-70825279D01*
X147830214Y-70887466D01*
X147826372Y-70929783D01*
X147811323Y-70965469D01*
X147779780Y-71006443D01*
X147775092Y-71011767D01*
X147740006Y-71048220D01*
X147709847Y-71067783D01*
X147672115Y-71076783D01*
X147640835Y-71079730D01*
X147584885Y-71080465D01*
X147545055Y-71071160D01*
X147520208Y-71057346D01*
X147481156Y-71026967D01*
X147454125Y-70994113D01*
X147437017Y-70952794D01*
X147427738Y-70897021D01*
X147424193Y-70820805D01*
X147423910Y-70782122D01*
X147424872Y-70735747D01*
X147512507Y-70735747D01*
X147513523Y-70760626D01*
X147516056Y-70764700D01*
X147532774Y-70759165D01*
X147568749Y-70744517D01*
X147616831Y-70723690D01*
X147626886Y-70719214D01*
X147687652Y-70688314D01*
X147721132Y-70661157D01*
X147728490Y-70635720D01*
X147710891Y-70609981D01*
X147696356Y-70598609D01*
X147643910Y-70575864D01*
X147594822Y-70579622D01*
X147553727Y-70607384D01*
X147525258Y-70656652D01*
X147516131Y-70695757D01*
X147512507Y-70735747D01*
X147424872Y-70735747D01*
X147425785Y-70691749D01*
X147432696Y-70624884D01*
X147446384Y-70576195D01*
X147468596Y-70540349D01*
X147501074Y-70512013D01*
X147515233Y-70502855D01*
X147579553Y-70479007D01*
X147649973Y-70477506D01*
X147718095Y-70496466D01*
G36*
X144668410Y-65771848D02*
G01*
X144746954Y-65772278D01*
X144803798Y-65773442D01*
X144842605Y-65775707D01*
X144867038Y-65779440D01*
X144880762Y-65785006D01*
X144887440Y-65792773D01*
X144890736Y-65803105D01*
X144891056Y-65804443D01*
X144896062Y-65828579D01*
X144905329Y-65876201D01*
X144917892Y-65942241D01*
X144932787Y-66021628D01*
X144949051Y-66109296D01*
X144949619Y-66112375D01*
X144965910Y-66198289D01*
X144981152Y-66274196D01*
X144994361Y-66335545D01*
X145004554Y-66377782D01*
X145010748Y-66396355D01*
X145011043Y-66396684D01*
X145029288Y-66405753D01*
X145066905Y-66420867D01*
X145115771Y-66438762D01*
X145116043Y-66438858D01*
X145177593Y-66461993D01*
X145250157Y-66491465D01*
X145318557Y-66521097D01*
X145321794Y-66522562D01*
X145433202Y-66573126D01*
X145679899Y-66404660D01*
X145755577Y-66353303D01*
X145824131Y-66307389D01*
X145881588Y-66269530D01*
X145923976Y-66242337D01*
X145947325Y-66228421D01*
X145949542Y-66227389D01*
X145966510Y-66231984D01*
X145998201Y-66254155D01*
X146045852Y-66294947D01*
X146110698Y-66355405D01*
X146176897Y-66419727D01*
X146240714Y-66483112D01*
X146297829Y-66540951D01*
X146344805Y-66589675D01*
X146378203Y-66625710D01*
X146394585Y-66645484D01*
X146395194Y-66646502D01*
X146397005Y-66660072D01*
X146390183Y-66682233D01*
X146373040Y-66715978D01*
X146343893Y-66764300D01*
X146301055Y-66830192D01*
X146243948Y-66915017D01*
X146193266Y-66989677D01*
X146147961Y-67056640D01*
X146110650Y-67112016D01*
X146083952Y-67151920D01*
X146070485Y-67172462D01*
X146069637Y-67173856D01*
X146071281Y-67193538D01*
X146083745Y-67231793D01*
X146104548Y-67281389D01*
X146111962Y-67297228D01*
X146144314Y-67367790D01*
X146178828Y-67447853D01*
X146206865Y-67517129D01*
X146227068Y-67568545D01*
X146243115Y-67607619D01*
X146252388Y-67628041D01*
X146253541Y-67629614D01*
X146270596Y-67632221D01*
X146310798Y-67639363D01*
X146368802Y-67650023D01*
X146439263Y-67663185D01*
X146516835Y-67677833D01*
X146596172Y-67692949D01*
X146671931Y-67707518D01*
X146738764Y-67720522D01*
X146791328Y-67730945D01*
X146824276Y-67737770D01*
X146832357Y-67739699D01*
X146840705Y-67744462D01*
X146847006Y-67755218D01*
X146851545Y-67775598D01*
X146854604Y-67809234D01*
X146856467Y-67859755D01*
X146857418Y-67930792D01*
X146857740Y-68025976D01*
X146857757Y-68064992D01*
X146857757Y-68382299D01*
X146781557Y-68397339D01*
X146739163Y-68405495D01*
X146675900Y-68417399D01*
X146599462Y-68431616D01*
X146517543Y-68446710D01*
X146494900Y-68450855D01*
X146419306Y-68465553D01*
X146353453Y-68480005D01*
X146302866Y-68492875D01*
X146273074Y-68502822D01*
X146268112Y-68505787D01*
X146255926Y-68526783D01*
X146238453Y-68567467D01*
X146219077Y-68619822D01*
X146215234Y-68631100D01*
X146189839Y-68701023D01*
X146158317Y-68779918D01*
X146127469Y-68850766D01*
X146127317Y-68851095D01*
X146075947Y-68962233D01*
X146244899Y-69210753D01*
X146413852Y-69459272D01*
X146196929Y-69676558D01*
X146131319Y-69741226D01*
X146071479Y-69798233D01*
X146020767Y-69844533D01*
X145982546Y-69877084D01*
X145960175Y-69892843D01*
X145956966Y-69893843D01*
X145938126Y-69885969D01*
X145899680Y-69864078D01*
X145845830Y-69830767D01*
X145780776Y-69788631D01*
X145710440Y-69741443D01*
X145639055Y-69693310D01*
X145575408Y-69651428D01*
X145523541Y-69618371D01*
X145487495Y-69596718D01*
X145471367Y-69589043D01*
X145451689Y-69595537D01*
X145414375Y-69612650D01*
X145367121Y-69636826D01*
X145362112Y-69639513D01*
X145298477Y-69671427D01*
X145254841Y-69687079D01*
X145227702Y-69687245D01*
X145213557Y-69672704D01*
X145213475Y-69672500D01*
X145206405Y-69655279D01*
X145189542Y-69614399D01*
X145164195Y-69553025D01*
X145131671Y-69474319D01*
X145093278Y-69381447D01*
X145050322Y-69277572D01*
X145008722Y-69177002D01*
X144963004Y-69066016D01*
X144921026Y-68963203D01*
X144884048Y-68871715D01*
X144853327Y-68794701D01*
X144830122Y-68735315D01*
X144815690Y-68696709D01*
X144811243Y-68682300D01*
X144822396Y-68665772D01*
X144851569Y-68639430D01*
X144890471Y-68610387D01*
X145001257Y-68518539D01*
X145087851Y-68413259D01*
X145149216Y-68296766D01*
X145184315Y-68171276D01*
X145192108Y-68039007D01*
X145186443Y-67977957D01*
X145155578Y-67851295D01*
X145102420Y-67739441D01*
X145030267Y-67643501D01*
X144942417Y-67564576D01*
X144842165Y-67503770D01*
X144732810Y-67462187D01*
X144617647Y-67440928D01*
X144499975Y-67441099D01*
X144383090Y-67463801D01*
X144270289Y-67510138D01*
X144164869Y-67581213D01*
X144120868Y-67621411D01*
X144036479Y-67724629D01*
X143977722Y-67837425D01*
X143944204Y-67956510D01*
X143935535Y-68078595D01*
X143951323Y-68200393D01*
X143991178Y-68318616D01*
X144054707Y-68429975D01*
X144141521Y-68531184D01*
X144238529Y-68610387D01*
X144278937Y-68640662D01*
X144307482Y-68666719D01*
X144317757Y-68682325D01*
X144312377Y-68699343D01*
X144297075Y-68740000D01*
X144273112Y-68801142D01*
X144241744Y-68879619D01*
X144204232Y-68972280D01*
X144161833Y-69075972D01*
X144120163Y-69177026D01*
X144074190Y-69288107D01*
X144031607Y-69391041D01*
X143993721Y-69482665D01*
X143961840Y-69559816D01*
X143937271Y-69619331D01*
X143921320Y-69658044D01*
X143915410Y-69672500D01*
X143901448Y-69687185D01*
X143874440Y-69687142D01*
X143830913Y-69671599D01*
X143767390Y-69639784D01*
X143766888Y-69639513D01*
X143719060Y-69614823D01*
X143680397Y-69596838D01*
X143658595Y-69589114D01*
X143657633Y-69589043D01*
X143641221Y-69596878D01*
X143604987Y-69618665D01*
X143552974Y-69651828D01*
X143489225Y-69693791D01*
X143418560Y-69741443D01*
X143346616Y-69789691D01*
X143281774Y-69831651D01*
X143228235Y-69864727D01*
X143190197Y-69886321D01*
X143172033Y-69893843D01*
X143155308Y-69883957D01*
X143121680Y-69856326D01*
X143074510Y-69813995D01*
X143017158Y-69760005D01*
X142952984Y-69697399D01*
X142931997Y-69676483D01*
X142714999Y-69459123D01*
X142880168Y-69216720D01*
X142930364Y-69142281D01*
X142974419Y-69075472D01*
X143009862Y-69020165D01*
X143034219Y-68980229D01*
X143045022Y-68959536D01*
X143045338Y-68958063D01*
X143039643Y-68938558D01*
X143024326Y-68899322D01*
X143002037Y-68846930D01*
X142986393Y-68811855D01*
X142957141Y-68744701D01*
X142929594Y-68676858D01*
X142908237Y-68619534D01*
X142902435Y-68602072D01*
X142885952Y-68555438D01*
X142869840Y-68519405D01*
X142860990Y-68505787D01*
X142841460Y-68497452D01*
X142798834Y-68485637D01*
X142738645Y-68471681D01*
X142666422Y-68456922D01*
X142634100Y-68450855D01*
X142552022Y-68435773D01*
X142473295Y-68421169D01*
X142405609Y-68408480D01*
X142356660Y-68399142D01*
X142347443Y-68397339D01*
X142271243Y-68382299D01*
X142271243Y-68064992D01*
X142271414Y-67960654D01*
X142272116Y-67881713D01*
X142273634Y-67824538D01*
X142276249Y-67785499D01*
X142280246Y-67760965D01*
X142285909Y-67747305D01*
X142293520Y-67740889D01*
X142296643Y-67739699D01*
X142315478Y-67735480D01*
X142357088Y-67727062D01*
X142416130Y-67715461D01*
X142487257Y-67701695D01*
X142565125Y-67686780D01*
X142644387Y-67671732D01*
X142719698Y-67657569D01*
X142785713Y-67645306D01*
X142837087Y-67635961D01*
X142868475Y-67630550D01*
X142875459Y-67629614D01*
X142881785Y-67617096D01*
X142895790Y-67583746D01*
X142914855Y-67535877D01*
X142922134Y-67517129D01*
X142951496Y-67444695D01*
X142986071Y-67364670D01*
X143017037Y-67297228D01*
X143039823Y-67245659D01*
X143054982Y-67203285D01*
X143060042Y-67177334D01*
X143059236Y-67173856D01*
X143048541Y-67157436D01*
X143024120Y-67120917D01*
X142988595Y-67068187D01*
X142944587Y-67003135D01*
X142894717Y-66929651D01*
X142884856Y-66915145D01*
X142826992Y-66829204D01*
X142784456Y-66763761D01*
X142755554Y-66715804D01*
X142738590Y-66682320D01*
X142731867Y-66660295D01*
X142733690Y-66646717D01*
X142733736Y-66646631D01*
X142748086Y-66628797D01*
X142779823Y-66594317D01*
X142825510Y-66546768D01*
X142881704Y-66489722D01*
X142944968Y-66426755D01*
X142952102Y-66419727D01*
X143031830Y-66342520D01*
X143093357Y-66285830D01*
X143137921Y-66248610D01*
X143166757Y-66229815D01*
X143179458Y-66227389D01*
X143197994Y-66237971D01*
X143236461Y-66262416D01*
X143290886Y-66298112D01*
X143357298Y-66342447D01*
X143431725Y-66392811D01*
X143449101Y-66404660D01*
X143695797Y-66573126D01*
X143807206Y-66522562D01*
X143874957Y-66493095D01*
X143947683Y-66463459D01*
X144010203Y-66439830D01*
X144012957Y-66438858D01*
X144061860Y-66420957D01*
X144099557Y-66405820D01*
X144117925Y-66396710D01*
X144117956Y-66396684D01*
X144123785Y-66380217D01*
X144133692Y-66339719D01*
X144146695Y-66279742D01*
X144161809Y-66204840D01*
X144178052Y-66119564D01*
X144179381Y-66112375D01*
X144195675Y-66024514D01*
X144210633Y-65944760D01*
X144223291Y-65878181D01*
X144232686Y-65829847D01*
X144237854Y-65804825D01*
X144237944Y-65804443D01*
X144241089Y-65793799D01*
X144247204Y-65785762D01*
X144259953Y-65779967D01*
X144283000Y-65776047D01*
X144320009Y-65773635D01*
X144374644Y-65772365D01*
X144450567Y-65771871D01*
X144551444Y-65771786D01*
X144564500Y-65771786D01*
X144668410Y-65771848D01*
X144668410Y-65771848D01*
G37*
X144668410Y-65771848D02*
X144746954Y-65772278D01*
X144803798Y-65773442D01*
X144842605Y-65775707D01*
X144867038Y-65779440D01*
X144880762Y-65785006D01*
X144887440Y-65792773D01*
X144890736Y-65803105D01*
X144891056Y-65804443D01*
X144896062Y-65828579D01*
X144905329Y-65876201D01*
X144917892Y-65942241D01*
X144932787Y-66021628D01*
X144949051Y-66109296D01*
X144949619Y-66112375D01*
X144965910Y-66198289D01*
X144981152Y-66274196D01*
X144994361Y-66335545D01*
X145004554Y-66377782D01*
X145010748Y-66396355D01*
X145011043Y-66396684D01*
X145029288Y-66405753D01*
X145066905Y-66420867D01*
X145115771Y-66438762D01*
X145116043Y-66438858D01*
X145177593Y-66461993D01*
X145250157Y-66491465D01*
X145318557Y-66521097D01*
X145321794Y-66522562D01*
X145433202Y-66573126D01*
X145679899Y-66404660D01*
X145755577Y-66353303D01*
X145824131Y-66307389D01*
X145881588Y-66269530D01*
X145923976Y-66242337D01*
X145947325Y-66228421D01*
X145949542Y-66227389D01*
X145966510Y-66231984D01*
X145998201Y-66254155D01*
X146045852Y-66294947D01*
X146110698Y-66355405D01*
X146176897Y-66419727D01*
X146240714Y-66483112D01*
X146297829Y-66540951D01*
X146344805Y-66589675D01*
X146378203Y-66625710D01*
X146394585Y-66645484D01*
X146395194Y-66646502D01*
X146397005Y-66660072D01*
X146390183Y-66682233D01*
X146373040Y-66715978D01*
X146343893Y-66764300D01*
X146301055Y-66830192D01*
X146243948Y-66915017D01*
X146193266Y-66989677D01*
X146147961Y-67056640D01*
X146110650Y-67112016D01*
X146083952Y-67151920D01*
X146070485Y-67172462D01*
X146069637Y-67173856D01*
X146071281Y-67193538D01*
X146083745Y-67231793D01*
X146104548Y-67281389D01*
X146111962Y-67297228D01*
X146144314Y-67367790D01*
X146178828Y-67447853D01*
X146206865Y-67517129D01*
X146227068Y-67568545D01*
X146243115Y-67607619D01*
X146252388Y-67628041D01*
X146253541Y-67629614D01*
X146270596Y-67632221D01*
X146310798Y-67639363D01*
X146368802Y-67650023D01*
X146439263Y-67663185D01*
X146516835Y-67677833D01*
X146596172Y-67692949D01*
X146671931Y-67707518D01*
X146738764Y-67720522D01*
X146791328Y-67730945D01*
X146824276Y-67737770D01*
X146832357Y-67739699D01*
X146840705Y-67744462D01*
X146847006Y-67755218D01*
X146851545Y-67775598D01*
X146854604Y-67809234D01*
X146856467Y-67859755D01*
X146857418Y-67930792D01*
X146857740Y-68025976D01*
X146857757Y-68064992D01*
X146857757Y-68382299D01*
X146781557Y-68397339D01*
X146739163Y-68405495D01*
X146675900Y-68417399D01*
X146599462Y-68431616D01*
X146517543Y-68446710D01*
X146494900Y-68450855D01*
X146419306Y-68465553D01*
X146353453Y-68480005D01*
X146302866Y-68492875D01*
X146273074Y-68502822D01*
X146268112Y-68505787D01*
X146255926Y-68526783D01*
X146238453Y-68567467D01*
X146219077Y-68619822D01*
X146215234Y-68631100D01*
X146189839Y-68701023D01*
X146158317Y-68779918D01*
X146127469Y-68850766D01*
X146127317Y-68851095D01*
X146075947Y-68962233D01*
X146244899Y-69210753D01*
X146413852Y-69459272D01*
X146196929Y-69676558D01*
X146131319Y-69741226D01*
X146071479Y-69798233D01*
X146020767Y-69844533D01*
X145982546Y-69877084D01*
X145960175Y-69892843D01*
X145956966Y-69893843D01*
X145938126Y-69885969D01*
X145899680Y-69864078D01*
X145845830Y-69830767D01*
X145780776Y-69788631D01*
X145710440Y-69741443D01*
X145639055Y-69693310D01*
X145575408Y-69651428D01*
X145523541Y-69618371D01*
X145487495Y-69596718D01*
X145471367Y-69589043D01*
X145451689Y-69595537D01*
X145414375Y-69612650D01*
X145367121Y-69636826D01*
X145362112Y-69639513D01*
X145298477Y-69671427D01*
X145254841Y-69687079D01*
X145227702Y-69687245D01*
X145213557Y-69672704D01*
X145213475Y-69672500D01*
X145206405Y-69655279D01*
X145189542Y-69614399D01*
X145164195Y-69553025D01*
X145131671Y-69474319D01*
X145093278Y-69381447D01*
X145050322Y-69277572D01*
X145008722Y-69177002D01*
X144963004Y-69066016D01*
X144921026Y-68963203D01*
X144884048Y-68871715D01*
X144853327Y-68794701D01*
X144830122Y-68735315D01*
X144815690Y-68696709D01*
X144811243Y-68682300D01*
X144822396Y-68665772D01*
X144851569Y-68639430D01*
X144890471Y-68610387D01*
X145001257Y-68518539D01*
X145087851Y-68413259D01*
X145149216Y-68296766D01*
X145184315Y-68171276D01*
X145192108Y-68039007D01*
X145186443Y-67977957D01*
X145155578Y-67851295D01*
X145102420Y-67739441D01*
X145030267Y-67643501D01*
X144942417Y-67564576D01*
X144842165Y-67503770D01*
X144732810Y-67462187D01*
X144617647Y-67440928D01*
X144499975Y-67441099D01*
X144383090Y-67463801D01*
X144270289Y-67510138D01*
X144164869Y-67581213D01*
X144120868Y-67621411D01*
X144036479Y-67724629D01*
X143977722Y-67837425D01*
X143944204Y-67956510D01*
X143935535Y-68078595D01*
X143951323Y-68200393D01*
X143991178Y-68318616D01*
X144054707Y-68429975D01*
X144141521Y-68531184D01*
X144238529Y-68610387D01*
X144278937Y-68640662D01*
X144307482Y-68666719D01*
X144317757Y-68682325D01*
X144312377Y-68699343D01*
X144297075Y-68740000D01*
X144273112Y-68801142D01*
X144241744Y-68879619D01*
X144204232Y-68972280D01*
X144161833Y-69075972D01*
X144120163Y-69177026D01*
X144074190Y-69288107D01*
X144031607Y-69391041D01*
X143993721Y-69482665D01*
X143961840Y-69559816D01*
X143937271Y-69619331D01*
X143921320Y-69658044D01*
X143915410Y-69672500D01*
X143901448Y-69687185D01*
X143874440Y-69687142D01*
X143830913Y-69671599D01*
X143767390Y-69639784D01*
X143766888Y-69639513D01*
X143719060Y-69614823D01*
X143680397Y-69596838D01*
X143658595Y-69589114D01*
X143657633Y-69589043D01*
X143641221Y-69596878D01*
X143604987Y-69618665D01*
X143552974Y-69651828D01*
X143489225Y-69693791D01*
X143418560Y-69741443D01*
X143346616Y-69789691D01*
X143281774Y-69831651D01*
X143228235Y-69864727D01*
X143190197Y-69886321D01*
X143172033Y-69893843D01*
X143155308Y-69883957D01*
X143121680Y-69856326D01*
X143074510Y-69813995D01*
X143017158Y-69760005D01*
X142952984Y-69697399D01*
X142931997Y-69676483D01*
X142714999Y-69459123D01*
X142880168Y-69216720D01*
X142930364Y-69142281D01*
X142974419Y-69075472D01*
X143009862Y-69020165D01*
X143034219Y-68980229D01*
X143045022Y-68959536D01*
X143045338Y-68958063D01*
X143039643Y-68938558D01*
X143024326Y-68899322D01*
X143002037Y-68846930D01*
X142986393Y-68811855D01*
X142957141Y-68744701D01*
X142929594Y-68676858D01*
X142908237Y-68619534D01*
X142902435Y-68602072D01*
X142885952Y-68555438D01*
X142869840Y-68519405D01*
X142860990Y-68505787D01*
X142841460Y-68497452D01*
X142798834Y-68485637D01*
X142738645Y-68471681D01*
X142666422Y-68456922D01*
X142634100Y-68450855D01*
X142552022Y-68435773D01*
X142473295Y-68421169D01*
X142405609Y-68408480D01*
X142356660Y-68399142D01*
X142347443Y-68397339D01*
X142271243Y-68382299D01*
X142271243Y-68064992D01*
X142271414Y-67960654D01*
X142272116Y-67881713D01*
X142273634Y-67824538D01*
X142276249Y-67785499D01*
X142280246Y-67760965D01*
X142285909Y-67747305D01*
X142293520Y-67740889D01*
X142296643Y-67739699D01*
X142315478Y-67735480D01*
X142357088Y-67727062D01*
X142416130Y-67715461D01*
X142487257Y-67701695D01*
X142565125Y-67686780D01*
X142644387Y-67671732D01*
X142719698Y-67657569D01*
X142785713Y-67645306D01*
X142837087Y-67635961D01*
X142868475Y-67630550D01*
X142875459Y-67629614D01*
X142881785Y-67617096D01*
X142895790Y-67583746D01*
X142914855Y-67535877D01*
X142922134Y-67517129D01*
X142951496Y-67444695D01*
X142986071Y-67364670D01*
X143017037Y-67297228D01*
X143039823Y-67245659D01*
X143054982Y-67203285D01*
X143060042Y-67177334D01*
X143059236Y-67173856D01*
X143048541Y-67157436D01*
X143024120Y-67120917D01*
X142988595Y-67068187D01*
X142944587Y-67003135D01*
X142894717Y-66929651D01*
X142884856Y-66915145D01*
X142826992Y-66829204D01*
X142784456Y-66763761D01*
X142755554Y-66715804D01*
X142738590Y-66682320D01*
X142731867Y-66660295D01*
X142733690Y-66646717D01*
X142733736Y-66646631D01*
X142748086Y-66628797D01*
X142779823Y-66594317D01*
X142825510Y-66546768D01*
X142881704Y-66489722D01*
X142944968Y-66426755D01*
X142952102Y-66419727D01*
X143031830Y-66342520D01*
X143093357Y-66285830D01*
X143137921Y-66248610D01*
X143166757Y-66229815D01*
X143179458Y-66227389D01*
X143197994Y-66237971D01*
X143236461Y-66262416D01*
X143290886Y-66298112D01*
X143357298Y-66342447D01*
X143431725Y-66392811D01*
X143449101Y-66404660D01*
X143695797Y-66573126D01*
X143807206Y-66522562D01*
X143874957Y-66493095D01*
X143947683Y-66463459D01*
X144010203Y-66439830D01*
X144012957Y-66438858D01*
X144061860Y-66420957D01*
X144099557Y-66405820D01*
X144117925Y-66396710D01*
X144117956Y-66396684D01*
X144123785Y-66380217D01*
X144133692Y-66339719D01*
X144146695Y-66279742D01*
X144161809Y-66204840D01*
X144178052Y-66119564D01*
X144179381Y-66112375D01*
X144195675Y-66024514D01*
X144210633Y-65944760D01*
X144223291Y-65878181D01*
X144232686Y-65829847D01*
X144237854Y-65804825D01*
X144237944Y-65804443D01*
X144241089Y-65793799D01*
X144247204Y-65785762D01*
X144259953Y-65779967D01*
X144283000Y-65776047D01*
X144320009Y-65773635D01*
X144374644Y-65772365D01*
X144450567Y-65771871D01*
X144551444Y-65771786D01*
X144564500Y-65771786D01*
X144668410Y-65771848D01*
D10*
X145339400Y-91594900D02*
X145339400Y-88944900D01*
X144289400Y-91594900D02*
X145339400Y-91594900D01*
X145359400Y-73444900D02*
X145359400Y-76144900D01*
X144319400Y-73444900D02*
X145359400Y-73444900D01*
X119719400Y-91564900D02*
X119719400Y-89934900D01*
X121349400Y-91564900D02*
X119719400Y-91564900D01*
X119719400Y-73494900D02*
X119719400Y-75134900D01*
X121339400Y-73494900D02*
X119719400Y-73494900D01*
X151259400Y-73444900D02*
X151259400Y-76144900D01*
X151239400Y-91594900D02*
X151239400Y-88944900D01*
X150189400Y-91594900D02*
X151239400Y-91594900D01*
X150219400Y-73444900D02*
X151259400Y-73444900D01*
D13*
X161005200Y-62974900D02*
X161005200Y-63974900D01*
X159645200Y-63974900D02*
X159645200Y-62974900D01*
X162427600Y-62974900D02*
X162427600Y-63974900D01*
X161067600Y-63974900D02*
X161067600Y-62974900D01*
X126453200Y-107154500D02*
X126903200Y-107154500D01*
X126453200Y-109004500D02*
X126453200Y-107154500D01*
X134253200Y-111554500D02*
X134253200Y-111304500D01*
X126453200Y-111554500D02*
X126453200Y-111304500D01*
X134253200Y-109004500D02*
X134253200Y-107154500D01*
X134253200Y-107154500D02*
X133803200Y-107154500D01*
X128653200Y-106604500D02*
X129103200Y-106604500D01*
X128653200Y-106604500D02*
X128653200Y-107054500D01*
X129800000Y-99958900D02*
X130500000Y-99958900D01*
X130500000Y-101158900D02*
X129800000Y-101158900D01*
X128976000Y-71694900D02*
X128276000Y-71694900D01*
X128276000Y-70494900D02*
X128976000Y-70494900D01*
X130500000Y-99838100D02*
X129800000Y-99838100D01*
X129800000Y-98638100D02*
X130500000Y-98638100D01*
X130369000Y-67544500D02*
X130369000Y-68244500D01*
X129169000Y-68244500D02*
X129169000Y-67544500D01*
X178540500Y-93298000D02*
X179870500Y-93298000D01*
X178540500Y-94628000D02*
X178540500Y-93298000D01*
X178540500Y-95898000D02*
X181200500Y-95898000D01*
X181200500Y-95898000D02*
X181200500Y-98498000D01*
X178540500Y-95898000D02*
X178540500Y-98498000D01*
X178540500Y-98498000D02*
X181200500Y-98498000D01*
X130498500Y-94091500D02*
X131198500Y-94091500D01*
X131198500Y-95291500D02*
X130498500Y-95291500D01*
X128667174Y-92624463D02*
X129667174Y-92624463D01*
X129667174Y-93984463D02*
X128667174Y-93984463D01*
X134460000Y-104687300D02*
X133460000Y-104687300D01*
X133460000Y-106387300D02*
X134460000Y-106387300D01*
X139336800Y-105195300D02*
X138336800Y-105195300D01*
X138336800Y-106895300D02*
X139336800Y-106895300D01*
X134360800Y-104613300D02*
X133660800Y-104613300D01*
X133660800Y-103413300D02*
X134360800Y-103413300D01*
X135798400Y-105938100D02*
X135798400Y-105238100D01*
X136998400Y-105238100D02*
X136998400Y-105938100D01*
X140746400Y-110914100D02*
X140746400Y-109914100D01*
X140746400Y-109914100D02*
X138646400Y-109914100D01*
X140746400Y-110914100D02*
X138646400Y-110914100D01*
X140746400Y-109542500D02*
X138646400Y-109542500D01*
X140746400Y-108542500D02*
X138646400Y-108542500D01*
X140746400Y-109542500D02*
X140746400Y-108542500D01*
X139743200Y-108300100D02*
X138743200Y-108300100D01*
X138743200Y-106940100D02*
X139743200Y-106940100D01*
X136203200Y-106940100D02*
X137203200Y-106940100D01*
X137203200Y-108300100D02*
X136203200Y-108300100D01*
X135425200Y-103321700D02*
X134425200Y-103321700D01*
X134425200Y-101961700D02*
X135425200Y-101961700D01*
X137203200Y-111144900D02*
X136203200Y-111144900D01*
X136203200Y-109784900D02*
X137203200Y-109784900D01*
X136203200Y-108362500D02*
X137203200Y-108362500D01*
X137203200Y-109722500D02*
X136203200Y-109722500D01*
D12*
X140999500Y-99526500D02*
X140474500Y-99526500D01*
X140999500Y-103826500D02*
X140474500Y-103826500D01*
X136699500Y-103826500D02*
X137224500Y-103826500D01*
X136699500Y-99526500D02*
X137224500Y-99526500D01*
X140999500Y-103826500D02*
X140999500Y-103301500D01*
X136699500Y-103826500D02*
X136699500Y-103301500D01*
X140999500Y-99526500D02*
X140999500Y-100051500D01*
D13*
X120468000Y-102903700D02*
X122568000Y-102903700D01*
X120468000Y-103903700D02*
X122568000Y-103903700D01*
X120468000Y-102903700D02*
X120468000Y-103903700D01*
X126144800Y-102774500D02*
X127144800Y-102774500D01*
X127144800Y-104134500D02*
X126144800Y-104134500D01*
X128408400Y-102495700D02*
X122398400Y-102495700D01*
X126158400Y-95675700D02*
X122398400Y-95675700D01*
X122398400Y-102495700D02*
X122398400Y-101235700D01*
X122398400Y-95675700D02*
X122398400Y-96935700D01*
X122398000Y-63405000D02*
X122398000Y-64665000D01*
X122398000Y-70225000D02*
X122398000Y-68965000D01*
X126158000Y-63405000D02*
X122398000Y-63405000D01*
X128408000Y-70225000D02*
X122398000Y-70225000D01*
X133317000Y-100769000D02*
X132317000Y-100769000D01*
X132317000Y-99409000D02*
X133317000Y-99409000D01*
X134984000Y-97440500D02*
X135984000Y-97440500D01*
X135984000Y-98800500D02*
X134984000Y-98800500D01*
X131926500Y-98264500D02*
X133326500Y-98264500D01*
X133326500Y-95944500D02*
X131426500Y-95944500D01*
X166898400Y-66960500D02*
X167898400Y-66960500D01*
X167898400Y-68320500D02*
X166898400Y-68320500D01*
X160849000Y-94671700D02*
X160849000Y-95371700D01*
X159649000Y-95371700D02*
X159649000Y-94671700D01*
X160849000Y-91166500D02*
X160849000Y-91866500D01*
X159649000Y-91866500D02*
X159649000Y-91166500D01*
X158793200Y-94939700D02*
X157793200Y-94939700D01*
X157793200Y-93579700D02*
X158793200Y-93579700D01*
X157793200Y-91598500D02*
X158793200Y-91598500D01*
X158793200Y-92958500D02*
X157793200Y-92958500D01*
X158090000Y-101994000D02*
X158090000Y-103264000D01*
X156820000Y-101994000D02*
X158090000Y-101994000D01*
X146280000Y-104306929D02*
X146280000Y-104704000D01*
X147040000Y-104306929D02*
X147040000Y-104704000D01*
X146280000Y-113364000D02*
X146280000Y-107364000D01*
X147040000Y-113364000D02*
X146280000Y-113364000D01*
X147040000Y-107364000D02*
X147040000Y-113364000D01*
X147930000Y-104704000D02*
X147930000Y-107364000D01*
X148820000Y-104306929D02*
X148820000Y-104704000D01*
X149580000Y-104306929D02*
X149580000Y-104704000D01*
X148820000Y-113364000D02*
X148820000Y-107364000D01*
X149580000Y-113364000D02*
X148820000Y-113364000D01*
X149580000Y-107364000D02*
X149580000Y-113364000D01*
X150470000Y-104704000D02*
X150470000Y-107364000D01*
X151360000Y-104306929D02*
X151360000Y-104704000D01*
X152120000Y-104306929D02*
X152120000Y-104704000D01*
X151360000Y-113364000D02*
X151360000Y-107364000D01*
X152120000Y-113364000D02*
X151360000Y-113364000D01*
X152120000Y-107364000D02*
X152120000Y-113364000D01*
X153010000Y-104704000D02*
X153010000Y-107364000D01*
X153900000Y-104306929D02*
X153900000Y-104704000D01*
X154660000Y-104306929D02*
X154660000Y-104704000D01*
X153900000Y-113364000D02*
X153900000Y-107364000D01*
X154660000Y-113364000D02*
X153900000Y-113364000D01*
X154660000Y-107364000D02*
X154660000Y-113364000D01*
X155550000Y-104704000D02*
X155550000Y-107364000D01*
X156440000Y-104374000D02*
X156440000Y-104704000D01*
X157200000Y-104374000D02*
X157200000Y-104704000D01*
X156540000Y-107364000D02*
X156540000Y-113364000D01*
X156660000Y-107364000D02*
X156660000Y-113364000D01*
X156780000Y-107364000D02*
X156780000Y-113364000D01*
X156900000Y-107364000D02*
X156900000Y-113364000D01*
X157020000Y-107364000D02*
X157020000Y-113364000D01*
X157140000Y-107364000D02*
X157140000Y-113364000D01*
X156440000Y-113364000D02*
X156440000Y-107364000D01*
X157200000Y-113364000D02*
X156440000Y-113364000D01*
X157200000Y-107364000D02*
X157200000Y-113364000D01*
X158150000Y-107364000D02*
X158150000Y-104704000D01*
X145330000Y-107364000D02*
X158150000Y-107364000D01*
X145330000Y-104704000D02*
X145330000Y-107364000D01*
X158150000Y-104704000D02*
X145330000Y-104704000D01*
X166666000Y-82185500D02*
X167996000Y-82185500D01*
X166666000Y-83515500D02*
X166666000Y-82185500D01*
X169266000Y-82185500D02*
X171866000Y-82185500D01*
X169266000Y-84785500D02*
X169266000Y-82185500D01*
X166666000Y-84785500D02*
X169266000Y-84785500D01*
X171866000Y-82185500D02*
X171866000Y-92465500D01*
X166666000Y-84785500D02*
X166666000Y-92465500D01*
X166666000Y-92465500D02*
X171866000Y-92465500D01*
D10*
X131000800Y-105770500D02*
X131000800Y-106070500D01*
X131000800Y-106070500D02*
X130600800Y-106070500D01*
X131000800Y-103170500D02*
X131000800Y-102870500D01*
X131000800Y-102870500D02*
X130500800Y-102870500D01*
X129400800Y-103170500D02*
X129400800Y-102870500D01*
X129400800Y-102870500D02*
X130000800Y-102870500D01*
X129100800Y-105770500D02*
X129600800Y-105770500D01*
X129600800Y-105770500D02*
X129900800Y-106070500D01*
X129900800Y-106070500D02*
X130200800Y-106070500D01*
D13*
X134979500Y-65104000D02*
X136309500Y-65104000D01*
X134979500Y-66434000D02*
X134979500Y-65104000D01*
X134979500Y-67704000D02*
X137639500Y-67704000D01*
X137639500Y-67704000D02*
X137639500Y-70304000D01*
X134979500Y-67704000D02*
X134979500Y-70304000D01*
X134979500Y-70304000D02*
X137639500Y-70304000D01*
X165264000Y-107153500D02*
X166664000Y-107153500D01*
X167364000Y-107853500D02*
X167364000Y-108453500D01*
X166664000Y-109153500D02*
X165264000Y-109153500D01*
X164564000Y-108453500D02*
X164564000Y-107853500D01*
X164564000Y-107853500D02*
G75*
G02X165264000Y-107153500I700000J0D01*
G01*
X165264000Y-109153500D02*
G75*
G02X164564000Y-108453500I0J700000D01*
G01*
X167364000Y-108453500D02*
G75*
G02X166664000Y-109153500I-700000J0D01*
G01*
X166664000Y-107153500D02*
G75*
G02X167364000Y-107853500I0J-700000D01*
G01*
X165327500Y-97438000D02*
X166727500Y-97438000D01*
X167427500Y-98138000D02*
X167427500Y-98738000D01*
X166727500Y-99438000D02*
X165327500Y-99438000D01*
X164627500Y-98738000D02*
X164627500Y-98138000D01*
X164627500Y-98138000D02*
G75*
G02X165327500Y-97438000I700000J0D01*
G01*
X165327500Y-99438000D02*
G75*
G02X164627500Y-98738000I0J700000D01*
G01*
X167427500Y-98738000D02*
G75*
G02X166727500Y-99438000I-700000J0D01*
G01*
X166727500Y-97438000D02*
G75*
G02X167427500Y-98138000I0J-700000D01*
G01*
X158155000Y-95977500D02*
G75*
G02X158855000Y-96677500I0J-700000D01*
G01*
X158855000Y-97277500D02*
G75*
G02X158155000Y-97977500I-700000J0D01*
G01*
X156755000Y-97977500D02*
G75*
G02X156055000Y-97277500I0J700000D01*
G01*
X156055000Y-96677500D02*
G75*
G02X156755000Y-95977500I700000J0D01*
G01*
X156055000Y-97277500D02*
X156055000Y-96677500D01*
X158155000Y-97977500D02*
X156755000Y-97977500D01*
X158855000Y-96677500D02*
X158855000Y-97277500D01*
X156755000Y-95977500D02*
X158155000Y-95977500D01*
X158140000Y-88611500D02*
G75*
G02X158840000Y-89311500I0J-700000D01*
G01*
X158840000Y-89911500D02*
G75*
G02X158140000Y-90611500I-700000J0D01*
G01*
X156740000Y-90611500D02*
G75*
G02X156040000Y-89911500I0J700000D01*
G01*
X156040000Y-89311500D02*
G75*
G02X156740000Y-88611500I700000J0D01*
G01*
X156040000Y-89911500D02*
X156040000Y-89311500D01*
X158140000Y-90611500D02*
X156740000Y-90611500D01*
X158840000Y-89311500D02*
X158840000Y-89911500D01*
X156740000Y-88611500D02*
X158140000Y-88611500D01*
X166464000Y-104382500D02*
X165464000Y-104382500D01*
X165464000Y-106082500D02*
X166464000Y-106082500D01*
X166464000Y-100509000D02*
X165464000Y-100509000D01*
X165464000Y-102209000D02*
X166464000Y-102209000D01*
X131209500Y-64891500D02*
X130209500Y-64891500D01*
X130209500Y-63531500D02*
X131209500Y-63531500D01*
X131376500Y-66452500D02*
X132376500Y-66452500D01*
X132376500Y-67812500D02*
X131376500Y-67812500D01*
X156656400Y-84877700D02*
G75*
G02X157356400Y-85577700I0J-700000D01*
G01*
X157356400Y-86177700D02*
G75*
G02X156656400Y-86877700I-700000J0D01*
G01*
X155256400Y-86877700D02*
G75*
G02X154556400Y-86177700I0J700000D01*
G01*
X154556400Y-85577700D02*
G75*
G02X155256400Y-84877700I700000J0D01*
G01*
X154556400Y-86177700D02*
X154556400Y-85577700D01*
X156656400Y-86877700D02*
X155256400Y-86877700D01*
X157356400Y-85577700D02*
X157356400Y-86177700D01*
X155256400Y-84877700D02*
X156656400Y-84877700D01*
X155256400Y-82896500D02*
X156656400Y-82896500D01*
X157356400Y-83596500D02*
X157356400Y-84196500D01*
X156656400Y-84896500D02*
X155256400Y-84896500D01*
X154556400Y-84196500D02*
X154556400Y-83596500D01*
X154556400Y-83596500D02*
G75*
G02X155256400Y-82896500I700000J0D01*
G01*
X155256400Y-84896500D02*
G75*
G02X154556400Y-84196500I0J700000D01*
G01*
X157356400Y-84196500D02*
G75*
G02X156656400Y-84896500I-700000J0D01*
G01*
X156656400Y-82896500D02*
G75*
G02X157356400Y-83596500I0J-700000D01*
G01*
X156656400Y-80915300D02*
G75*
G02X157356400Y-81615300I0J-700000D01*
G01*
X157356400Y-82215300D02*
G75*
G02X156656400Y-82915300I-700000J0D01*
G01*
X155256400Y-82915300D02*
G75*
G02X154556400Y-82215300I0J700000D01*
G01*
X154556400Y-81615300D02*
G75*
G02X155256400Y-80915300I700000J0D01*
G01*
X154556400Y-82215300D02*
X154556400Y-81615300D01*
X156656400Y-82915300D02*
X155256400Y-82915300D01*
X157356400Y-81615300D02*
X157356400Y-82215300D01*
X155256400Y-80915300D02*
X156656400Y-80915300D01*
X153814800Y-86151300D02*
X152814800Y-86151300D01*
X152814800Y-84791300D02*
X153814800Y-84791300D01*
X152814800Y-83216500D02*
X153814800Y-83216500D01*
X153814800Y-84576500D02*
X152814800Y-84576500D01*
X153814800Y-83001700D02*
X152814800Y-83001700D01*
X152814800Y-81641700D02*
X153814800Y-81641700D01*
D12*
X154726800Y-78448700D02*
X154726800Y-80273700D01*
X172726800Y-78448700D02*
X172726800Y-70698700D01*
X154476800Y-78448700D02*
X154476800Y-70698700D01*
X172726800Y-78448700D02*
X172381800Y-78448700D01*
X172726800Y-70698700D02*
X172381800Y-70698700D01*
X154476800Y-70698700D02*
X154821800Y-70698700D01*
X154476800Y-78448700D02*
X154726800Y-78448700D01*
D13*
X177696000Y-61682500D02*
X177696000Y-56482500D01*
X129376000Y-61682500D02*
X177696000Y-61682500D01*
X126776000Y-56482500D02*
X177696000Y-56482500D01*
X129376000Y-61682500D02*
X129376000Y-59082500D01*
X129376000Y-59082500D02*
X126776000Y-59082500D01*
X126776000Y-59082500D02*
X126776000Y-56482500D01*
X128106000Y-61682500D02*
X126776000Y-61682500D01*
X126776000Y-61682500D02*
X126776000Y-60352500D01*
D10*
X171079690Y-97848138D02*
X170841595Y-98014804D01*
X171079690Y-98133852D02*
X170579690Y-98133852D01*
X170579690Y-97943376D01*
X170603500Y-97895757D01*
X170627309Y-97871947D01*
X170674928Y-97848138D01*
X170746357Y-97848138D01*
X170793976Y-97871947D01*
X170817785Y-97895757D01*
X170841595Y-97943376D01*
X170841595Y-98133852D01*
X171079690Y-97633852D02*
X170746357Y-97633852D01*
X170579690Y-97633852D02*
X170603500Y-97657661D01*
X170627309Y-97633852D01*
X170603500Y-97610042D01*
X170579690Y-97633852D01*
X170627309Y-97633852D01*
X170746357Y-97395757D02*
X171079690Y-97395757D01*
X170793976Y-97395757D02*
X170770166Y-97371947D01*
X170746357Y-97324328D01*
X170746357Y-97252900D01*
X170770166Y-97205280D01*
X170817785Y-97181471D01*
X171079690Y-97181471D01*
X170746357Y-96729090D02*
X171151119Y-96729090D01*
X171198738Y-96752900D01*
X171222547Y-96776709D01*
X171246357Y-96824328D01*
X171246357Y-96895757D01*
X171222547Y-96943376D01*
X171055880Y-96729090D02*
X171079690Y-96776709D01*
X171079690Y-96871947D01*
X171055880Y-96919566D01*
X171032071Y-96943376D01*
X170984452Y-96967185D01*
X170841595Y-96967185D01*
X170793976Y-96943376D01*
X170770166Y-96919566D01*
X170746357Y-96871947D01*
X170746357Y-96776709D01*
X170770166Y-96729090D01*
X170627309Y-96133852D02*
X170603500Y-96110042D01*
X170579690Y-96062423D01*
X170579690Y-95943376D01*
X170603500Y-95895757D01*
X170627309Y-95871947D01*
X170674928Y-95848138D01*
X170722547Y-95848138D01*
X170793976Y-95871947D01*
X171079690Y-96157661D01*
X171079690Y-95848138D01*
D12*
X168654880Y-103724333D02*
X169369166Y-103724333D01*
X169512023Y-103771952D01*
X169607261Y-103867190D01*
X169654880Y-104010047D01*
X169654880Y-104105285D01*
X168654880Y-102819571D02*
X168654880Y-103010047D01*
X168702500Y-103105285D01*
X168750119Y-103152904D01*
X168892976Y-103248142D01*
X169083452Y-103295761D01*
X169464404Y-103295761D01*
X169559642Y-103248142D01*
X169607261Y-103200523D01*
X169654880Y-103105285D01*
X169654880Y-102914809D01*
X169607261Y-102819571D01*
X169559642Y-102771952D01*
X169464404Y-102724333D01*
X169226309Y-102724333D01*
X169131071Y-102771952D01*
X169083452Y-102819571D01*
X169035833Y-102914809D01*
X169035833Y-103105285D01*
X169083452Y-103200523D01*
X169131071Y-103248142D01*
X169226309Y-103295761D01*
X122363380Y-83276804D02*
X123172904Y-83276804D01*
X123268142Y-83229185D01*
X123315761Y-83181566D01*
X123363380Y-83086328D01*
X123363380Y-82895852D01*
X123315761Y-82800614D01*
X123268142Y-82752995D01*
X123172904Y-82705376D01*
X122363380Y-82705376D01*
X122363380Y-82324423D02*
X122363380Y-81705376D01*
X122744333Y-82038709D01*
X122744333Y-81895852D01*
X122791952Y-81800614D01*
X122839571Y-81752995D01*
X122934809Y-81705376D01*
X123172904Y-81705376D01*
X123268142Y-81752995D01*
X123315761Y-81800614D01*
X123363380Y-81895852D01*
X123363380Y-82181566D01*
X123315761Y-82276804D01*
X123268142Y-82324423D01*
D10*
X160297390Y-65726728D02*
X160059295Y-65893395D01*
X160297390Y-66012442D02*
X159797390Y-66012442D01*
X159797390Y-65821966D01*
X159821200Y-65774347D01*
X159845009Y-65750538D01*
X159892628Y-65726728D01*
X159964057Y-65726728D01*
X160011676Y-65750538D01*
X160035485Y-65774347D01*
X160059295Y-65821966D01*
X160059295Y-66012442D01*
X160297390Y-65250538D02*
X160297390Y-65536252D01*
X160297390Y-65393395D02*
X159797390Y-65393395D01*
X159868819Y-65441014D01*
X159916438Y-65488633D01*
X159940247Y-65536252D01*
X159964057Y-64821966D02*
X160297390Y-64821966D01*
X159773580Y-64941014D02*
X160130723Y-65060061D01*
X160130723Y-64750538D01*
X161618190Y-65726728D02*
X161380095Y-65893395D01*
X161618190Y-66012442D02*
X161118190Y-66012442D01*
X161118190Y-65821966D01*
X161142000Y-65774347D01*
X161165809Y-65750538D01*
X161213428Y-65726728D01*
X161284857Y-65726728D01*
X161332476Y-65750538D01*
X161356285Y-65774347D01*
X161380095Y-65821966D01*
X161380095Y-66012442D01*
X161618190Y-65250538D02*
X161618190Y-65536252D01*
X161618190Y-65393395D02*
X161118190Y-65393395D01*
X161189619Y-65441014D01*
X161237238Y-65488633D01*
X161261047Y-65536252D01*
X161118190Y-65083871D02*
X161118190Y-64774347D01*
X161308666Y-64941014D01*
X161308666Y-64869585D01*
X161332476Y-64821966D01*
X161356285Y-64798157D01*
X161403904Y-64774347D01*
X161522952Y-64774347D01*
X161570571Y-64798157D01*
X161594380Y-64821966D01*
X161618190Y-64869585D01*
X161618190Y-65012442D01*
X161594380Y-65060061D01*
X161570571Y-65083871D01*
D12*
X131023166Y-105256880D02*
X131023166Y-105971166D01*
X130975547Y-106114023D01*
X130880309Y-106209261D01*
X130737452Y-106256880D01*
X130642214Y-106256880D01*
X131451738Y-105352119D02*
X131499357Y-105304500D01*
X131594595Y-105256880D01*
X131832690Y-105256880D01*
X131927928Y-105304500D01*
X131975547Y-105352119D01*
X132023166Y-105447357D01*
X132023166Y-105542595D01*
X131975547Y-105685452D01*
X131404119Y-106256880D01*
X132023166Y-106256880D01*
D10*
X130066666Y-101905871D02*
X130042857Y-101929680D01*
X129971428Y-101953490D01*
X129923809Y-101953490D01*
X129852380Y-101929680D01*
X129804761Y-101882061D01*
X129780952Y-101834442D01*
X129757142Y-101739204D01*
X129757142Y-101667776D01*
X129780952Y-101572538D01*
X129804761Y-101524919D01*
X129852380Y-101477300D01*
X129923809Y-101453490D01*
X129971428Y-101453490D01*
X130042857Y-101477300D01*
X130066666Y-101501109D01*
X130542857Y-101953490D02*
X130257142Y-101953490D01*
X130400000Y-101953490D02*
X130400000Y-101453490D01*
X130352380Y-101524919D01*
X130304761Y-101572538D01*
X130257142Y-101596347D01*
X130519071Y-71178233D02*
X130542880Y-71202042D01*
X130566690Y-71273471D01*
X130566690Y-71321090D01*
X130542880Y-71392519D01*
X130495261Y-71440138D01*
X130447642Y-71463947D01*
X130352404Y-71487757D01*
X130280976Y-71487757D01*
X130185738Y-71463947D01*
X130138119Y-71440138D01*
X130090500Y-71392519D01*
X130066690Y-71321090D01*
X130066690Y-71273471D01*
X130090500Y-71202042D01*
X130114309Y-71178233D01*
X130114309Y-70987757D02*
X130090500Y-70963947D01*
X130066690Y-70916328D01*
X130066690Y-70797280D01*
X130090500Y-70749661D01*
X130114309Y-70725852D01*
X130161928Y-70702042D01*
X130209547Y-70702042D01*
X130280976Y-70725852D01*
X130566690Y-71011566D01*
X130566690Y-70702042D01*
X130066666Y-98400671D02*
X130042857Y-98424480D01*
X129971428Y-98448290D01*
X129923809Y-98448290D01*
X129852380Y-98424480D01*
X129804761Y-98376861D01*
X129780952Y-98329242D01*
X129757142Y-98234004D01*
X129757142Y-98162576D01*
X129780952Y-98067338D01*
X129804761Y-98019719D01*
X129852380Y-97972100D01*
X129923809Y-97948290D01*
X129971428Y-97948290D01*
X130042857Y-97972100D01*
X130066666Y-97995909D01*
X130233333Y-97948290D02*
X130542857Y-97948290D01*
X130376190Y-98138766D01*
X130447619Y-98138766D01*
X130495238Y-98162576D01*
X130519047Y-98186385D01*
X130542857Y-98234004D01*
X130542857Y-98353052D01*
X130519047Y-98400671D01*
X130495238Y-98424480D01*
X130447619Y-98448290D01*
X130304761Y-98448290D01*
X130257142Y-98424480D01*
X130233333Y-98400671D01*
X129622166Y-66358571D02*
X129598357Y-66382380D01*
X129526928Y-66406190D01*
X129479309Y-66406190D01*
X129407880Y-66382380D01*
X129360261Y-66334761D01*
X129336452Y-66287142D01*
X129312642Y-66191904D01*
X129312642Y-66120476D01*
X129336452Y-66025238D01*
X129360261Y-65977619D01*
X129407880Y-65930000D01*
X129479309Y-65906190D01*
X129526928Y-65906190D01*
X129598357Y-65930000D01*
X129622166Y-65953809D01*
X130050738Y-66072857D02*
X130050738Y-66406190D01*
X129931690Y-65882380D02*
X129812642Y-66239523D01*
X130122166Y-66239523D01*
D12*
X180672119Y-100009666D02*
X179957833Y-100009666D01*
X179814976Y-99962047D01*
X179719738Y-99866809D01*
X179672119Y-99723952D01*
X179672119Y-99628714D01*
X179672119Y-101009666D02*
X179672119Y-100438238D01*
X179672119Y-100723952D02*
X180672119Y-100723952D01*
X180529261Y-100628714D01*
X180434023Y-100533476D01*
X180386404Y-100438238D01*
D10*
X132741571Y-94774833D02*
X132765380Y-94798642D01*
X132789190Y-94870071D01*
X132789190Y-94917690D01*
X132765380Y-94989119D01*
X132717761Y-95036738D01*
X132670142Y-95060547D01*
X132574904Y-95084357D01*
X132503476Y-95084357D01*
X132408238Y-95060547D01*
X132360619Y-95036738D01*
X132313000Y-94989119D01*
X132289190Y-94917690D01*
X132289190Y-94870071D01*
X132313000Y-94798642D01*
X132336809Y-94774833D01*
X132289190Y-94322452D02*
X132289190Y-94560547D01*
X132527285Y-94584357D01*
X132503476Y-94560547D01*
X132479666Y-94512928D01*
X132479666Y-94393880D01*
X132503476Y-94346261D01*
X132527285Y-94322452D01*
X132574904Y-94298642D01*
X132693952Y-94298642D01*
X132741571Y-94322452D01*
X132765380Y-94346261D01*
X132789190Y-94393880D01*
X132789190Y-94512928D01*
X132765380Y-94560547D01*
X132741571Y-94584357D01*
X130947690Y-93377833D02*
X130709595Y-93544500D01*
X130947690Y-93663547D02*
X130447690Y-93663547D01*
X130447690Y-93473071D01*
X130471500Y-93425452D01*
X130495309Y-93401642D01*
X130542928Y-93377833D01*
X130614357Y-93377833D01*
X130661976Y-93401642D01*
X130685785Y-93425452D01*
X130709595Y-93473071D01*
X130709595Y-93663547D01*
X130947690Y-92901642D02*
X130947690Y-93187357D01*
X130947690Y-93044500D02*
X130447690Y-93044500D01*
X130519119Y-93092119D01*
X130566738Y-93139738D01*
X130590547Y-93187357D01*
X134283066Y-106935071D02*
X134259257Y-106958880D01*
X134187828Y-106982690D01*
X134140209Y-106982690D01*
X134068780Y-106958880D01*
X134021161Y-106911261D01*
X133997352Y-106863642D01*
X133973542Y-106768404D01*
X133973542Y-106696976D01*
X133997352Y-106601738D01*
X134021161Y-106554119D01*
X134068780Y-106506500D01*
X134140209Y-106482690D01*
X134187828Y-106482690D01*
X134259257Y-106506500D01*
X134283066Y-106530309D01*
X134711638Y-106482690D02*
X134616400Y-106482690D01*
X134568780Y-106506500D01*
X134544971Y-106530309D01*
X134497352Y-106601738D01*
X134473542Y-106696976D01*
X134473542Y-106887452D01*
X134497352Y-106935071D01*
X134521161Y-106958880D01*
X134568780Y-106982690D01*
X134664019Y-106982690D01*
X134711638Y-106958880D01*
X134735447Y-106935071D01*
X134759257Y-106887452D01*
X134759257Y-106768404D01*
X134735447Y-106720785D01*
X134711638Y-106696976D01*
X134664019Y-106673166D01*
X134568780Y-106673166D01*
X134521161Y-106696976D01*
X134497352Y-106720785D01*
X134473542Y-106768404D01*
X141082171Y-106128633D02*
X141105980Y-106152442D01*
X141129790Y-106223871D01*
X141129790Y-106271490D01*
X141105980Y-106342919D01*
X141058361Y-106390538D01*
X141010742Y-106414347D01*
X140915504Y-106438157D01*
X140844076Y-106438157D01*
X140748838Y-106414347D01*
X140701219Y-106390538D01*
X140653600Y-106342919D01*
X140629790Y-106271490D01*
X140629790Y-106223871D01*
X140653600Y-106152442D01*
X140677409Y-106128633D01*
X140629790Y-105961966D02*
X140629790Y-105628633D01*
X141129790Y-105842919D01*
X135407028Y-103929966D02*
X135383219Y-103906157D01*
X135359409Y-103834728D01*
X135359409Y-103787109D01*
X135383219Y-103715680D01*
X135430838Y-103668061D01*
X135478457Y-103644252D01*
X135573695Y-103620442D01*
X135645123Y-103620442D01*
X135740361Y-103644252D01*
X135787980Y-103668061D01*
X135835600Y-103715680D01*
X135859409Y-103787109D01*
X135859409Y-103834728D01*
X135835600Y-103906157D01*
X135811790Y-103929966D01*
X135645123Y-104215680D02*
X135668933Y-104168061D01*
X135692742Y-104144252D01*
X135740361Y-104120442D01*
X135764171Y-104120442D01*
X135811790Y-104144252D01*
X135835600Y-104168061D01*
X135859409Y-104215680D01*
X135859409Y-104310919D01*
X135835600Y-104358538D01*
X135811790Y-104382347D01*
X135764171Y-104406157D01*
X135740361Y-104406157D01*
X135692742Y-104382347D01*
X135668933Y-104358538D01*
X135645123Y-104310919D01*
X135645123Y-104215680D01*
X135621314Y-104168061D01*
X135597504Y-104144252D01*
X135549885Y-104120442D01*
X135454647Y-104120442D01*
X135407028Y-104144252D01*
X135383219Y-104168061D01*
X135359409Y-104215680D01*
X135359409Y-104310919D01*
X135383219Y-104358538D01*
X135407028Y-104382347D01*
X135454647Y-104406157D01*
X135549885Y-104406157D01*
X135597504Y-104382347D01*
X135621314Y-104358538D01*
X135645123Y-104310919D01*
X137381866Y-105004671D02*
X137358057Y-105028480D01*
X137286628Y-105052290D01*
X137239009Y-105052290D01*
X137167580Y-105028480D01*
X137119961Y-104980861D01*
X137096152Y-104933242D01*
X137072342Y-104838004D01*
X137072342Y-104766576D01*
X137096152Y-104671338D01*
X137119961Y-104623719D01*
X137167580Y-104576100D01*
X137239009Y-104552290D01*
X137286628Y-104552290D01*
X137358057Y-104576100D01*
X137381866Y-104599909D01*
X137619961Y-105052290D02*
X137715200Y-105052290D01*
X137762819Y-105028480D01*
X137786628Y-105004671D01*
X137834247Y-104933242D01*
X137858057Y-104838004D01*
X137858057Y-104647528D01*
X137834247Y-104599909D01*
X137810438Y-104576100D01*
X137762819Y-104552290D01*
X137667580Y-104552290D01*
X137619961Y-104576100D01*
X137596152Y-104599909D01*
X137572342Y-104647528D01*
X137572342Y-104766576D01*
X137596152Y-104814195D01*
X137619961Y-104838004D01*
X137667580Y-104861814D01*
X137762819Y-104861814D01*
X137810438Y-104838004D01*
X137834247Y-104814195D01*
X137858057Y-104766576D01*
X141450590Y-110783147D02*
X140950590Y-110783147D01*
X140950590Y-110664100D01*
X140974400Y-110592671D01*
X141022019Y-110545052D01*
X141069638Y-110521242D01*
X141164876Y-110497433D01*
X141236304Y-110497433D01*
X141331542Y-110521242D01*
X141379161Y-110545052D01*
X141426780Y-110592671D01*
X141450590Y-110664100D01*
X141450590Y-110783147D01*
X140998209Y-110306957D02*
X140974400Y-110283147D01*
X140950590Y-110235528D01*
X140950590Y-110116480D01*
X140974400Y-110068861D01*
X140998209Y-110045052D01*
X141045828Y-110021242D01*
X141093447Y-110021242D01*
X141164876Y-110045052D01*
X141450590Y-110330766D01*
X141450590Y-110021242D01*
X141450590Y-109475047D02*
X140950590Y-109475047D01*
X140950590Y-109356000D01*
X140974400Y-109284571D01*
X141022019Y-109236952D01*
X141069638Y-109213142D01*
X141164876Y-109189333D01*
X141236304Y-109189333D01*
X141331542Y-109213142D01*
X141379161Y-109236952D01*
X141426780Y-109284571D01*
X141450590Y-109356000D01*
X141450590Y-109475047D01*
X140950590Y-109022666D02*
X140950590Y-108713142D01*
X141141066Y-108879809D01*
X141141066Y-108808380D01*
X141164876Y-108760761D01*
X141188685Y-108736952D01*
X141236304Y-108713142D01*
X141355352Y-108713142D01*
X141402971Y-108736952D01*
X141426780Y-108760761D01*
X141450590Y-108808380D01*
X141450590Y-108951238D01*
X141426780Y-108998857D01*
X141402971Y-109022666D01*
X141044190Y-107690733D02*
X140806095Y-107857400D01*
X141044190Y-107976447D02*
X140544190Y-107976447D01*
X140544190Y-107785971D01*
X140568000Y-107738352D01*
X140591809Y-107714542D01*
X140639428Y-107690733D01*
X140710857Y-107690733D01*
X140758476Y-107714542D01*
X140782285Y-107738352D01*
X140806095Y-107785971D01*
X140806095Y-107976447D01*
X140591809Y-107500257D02*
X140568000Y-107476447D01*
X140544190Y-107428828D01*
X140544190Y-107309780D01*
X140568000Y-107262161D01*
X140591809Y-107238352D01*
X140639428Y-107214542D01*
X140687047Y-107214542D01*
X140758476Y-107238352D01*
X141044190Y-107524066D01*
X141044190Y-107214542D01*
X135405390Y-107766933D02*
X135167295Y-107933600D01*
X135405390Y-108052647D02*
X134905390Y-108052647D01*
X134905390Y-107862171D01*
X134929200Y-107814552D01*
X134953009Y-107790742D01*
X135000628Y-107766933D01*
X135072057Y-107766933D01*
X135119676Y-107790742D01*
X135143485Y-107814552D01*
X135167295Y-107862171D01*
X135167295Y-108052647D01*
X134905390Y-107600266D02*
X134905390Y-107290742D01*
X135095866Y-107457409D01*
X135095866Y-107385980D01*
X135119676Y-107338361D01*
X135143485Y-107314552D01*
X135191104Y-107290742D01*
X135310152Y-107290742D01*
X135357771Y-107314552D01*
X135381580Y-107338361D01*
X135405390Y-107385980D01*
X135405390Y-107528838D01*
X135381580Y-107576457D01*
X135357771Y-107600266D01*
X133563890Y-102725033D02*
X133325795Y-102891700D01*
X133563890Y-103010747D02*
X133063890Y-103010747D01*
X133063890Y-102820271D01*
X133087700Y-102772652D01*
X133111509Y-102748842D01*
X133159128Y-102725033D01*
X133230557Y-102725033D01*
X133278176Y-102748842D01*
X133301985Y-102772652D01*
X133325795Y-102820271D01*
X133325795Y-103010747D01*
X133230557Y-102296461D02*
X133563890Y-102296461D01*
X133040080Y-102415509D02*
X133397223Y-102534557D01*
X133397223Y-102225033D01*
X135405390Y-110611733D02*
X135167295Y-110778400D01*
X135405390Y-110897447D02*
X134905390Y-110897447D01*
X134905390Y-110706971D01*
X134929200Y-110659352D01*
X134953009Y-110635542D01*
X135000628Y-110611733D01*
X135072057Y-110611733D01*
X135119676Y-110635542D01*
X135143485Y-110659352D01*
X135167295Y-110706971D01*
X135167295Y-110897447D01*
X134905390Y-110159352D02*
X134905390Y-110397447D01*
X135143485Y-110421257D01*
X135119676Y-110397447D01*
X135095866Y-110349828D01*
X135095866Y-110230780D01*
X135119676Y-110183161D01*
X135143485Y-110159352D01*
X135191104Y-110135542D01*
X135310152Y-110135542D01*
X135357771Y-110159352D01*
X135381580Y-110183161D01*
X135405390Y-110230780D01*
X135405390Y-110349828D01*
X135381580Y-110397447D01*
X135357771Y-110421257D01*
X135405390Y-109125833D02*
X135167295Y-109292500D01*
X135405390Y-109411547D02*
X134905390Y-109411547D01*
X134905390Y-109221071D01*
X134929200Y-109173452D01*
X134953009Y-109149642D01*
X135000628Y-109125833D01*
X135072057Y-109125833D01*
X135119676Y-109149642D01*
X135143485Y-109173452D01*
X135167295Y-109221071D01*
X135167295Y-109411547D01*
X134905390Y-108697261D02*
X134905390Y-108792500D01*
X134929200Y-108840119D01*
X134953009Y-108863928D01*
X135024438Y-108911547D01*
X135119676Y-108935357D01*
X135310152Y-108935357D01*
X135357771Y-108911547D01*
X135381580Y-108887738D01*
X135405390Y-108840119D01*
X135405390Y-108744880D01*
X135381580Y-108697261D01*
X135357771Y-108673452D01*
X135310152Y-108649642D01*
X135191104Y-108649642D01*
X135143485Y-108673452D01*
X135119676Y-108697261D01*
X135095866Y-108744880D01*
X135095866Y-108840119D01*
X135119676Y-108887738D01*
X135143485Y-108911547D01*
X135191104Y-108935357D01*
X136436547Y-98862690D02*
X136436547Y-99267452D01*
X136460357Y-99315071D01*
X136484166Y-99338880D01*
X136531785Y-99362690D01*
X136627023Y-99362690D01*
X136674642Y-99338880D01*
X136698452Y-99315071D01*
X136722261Y-99267452D01*
X136722261Y-98862690D01*
X137174642Y-99029357D02*
X137174642Y-99362690D01*
X137055595Y-98838880D02*
X136936547Y-99196023D01*
X137246071Y-99196023D01*
X121486190Y-104890347D02*
X120986190Y-104890347D01*
X120986190Y-104771300D01*
X121010000Y-104699871D01*
X121057619Y-104652252D01*
X121105238Y-104628442D01*
X121200476Y-104604633D01*
X121271904Y-104604633D01*
X121367142Y-104628442D01*
X121414761Y-104652252D01*
X121462380Y-104699871D01*
X121486190Y-104771300D01*
X121486190Y-104890347D01*
X121152857Y-104176061D02*
X121486190Y-104176061D01*
X120962380Y-104295109D02*
X121319523Y-104414157D01*
X121319523Y-104104633D01*
X127171066Y-104823690D02*
X127004400Y-104585595D01*
X126885352Y-104823690D02*
X126885352Y-104323690D01*
X127075828Y-104323690D01*
X127123447Y-104347500D01*
X127147257Y-104371309D01*
X127171066Y-104418928D01*
X127171066Y-104490357D01*
X127147257Y-104537976D01*
X127123447Y-104561785D01*
X127075828Y-104585595D01*
X126885352Y-104585595D01*
X127337733Y-104323690D02*
X127671066Y-104323690D01*
X127456780Y-104823690D01*
X120790547Y-96170290D02*
X120790547Y-96575052D01*
X120814357Y-96622671D01*
X120838166Y-96646480D01*
X120885785Y-96670290D01*
X120981023Y-96670290D01*
X121028642Y-96646480D01*
X121052452Y-96622671D01*
X121076261Y-96575052D01*
X121076261Y-96170290D01*
X121576261Y-96670290D02*
X121290547Y-96670290D01*
X121433404Y-96670290D02*
X121433404Y-96170290D01*
X121385785Y-96241719D01*
X121338166Y-96289338D01*
X121290547Y-96313147D01*
X121260047Y-69208190D02*
X121260047Y-69612952D01*
X121283857Y-69660571D01*
X121307666Y-69684380D01*
X121355285Y-69708190D01*
X121450523Y-69708190D01*
X121498142Y-69684380D01*
X121521952Y-69660571D01*
X121545761Y-69612952D01*
X121545761Y-69208190D01*
X121760047Y-69255809D02*
X121783857Y-69232000D01*
X121831476Y-69208190D01*
X121950523Y-69208190D01*
X121998142Y-69232000D01*
X122021952Y-69255809D01*
X122045761Y-69303428D01*
X122045761Y-69351047D01*
X122021952Y-69422476D01*
X121736238Y-69708190D01*
X122045761Y-69708190D01*
X132470171Y-101445490D02*
X132303504Y-101207395D01*
X132184457Y-101445490D02*
X132184457Y-100945490D01*
X132374933Y-100945490D01*
X132422552Y-100969300D01*
X132446361Y-100993109D01*
X132470171Y-101040728D01*
X132470171Y-101112157D01*
X132446361Y-101159776D01*
X132422552Y-101183585D01*
X132374933Y-101207395D01*
X132184457Y-101207395D01*
X132946361Y-101445490D02*
X132660647Y-101445490D01*
X132803504Y-101445490D02*
X132803504Y-100945490D01*
X132755885Y-101016919D01*
X132708266Y-101064538D01*
X132660647Y-101088347D01*
X133255885Y-100945490D02*
X133303504Y-100945490D01*
X133351123Y-100969300D01*
X133374933Y-100993109D01*
X133398742Y-101040728D01*
X133422552Y-101135966D01*
X133422552Y-101255014D01*
X133398742Y-101350252D01*
X133374933Y-101397871D01*
X133351123Y-101421680D01*
X133303504Y-101445490D01*
X133255885Y-101445490D01*
X133208266Y-101421680D01*
X133184457Y-101397871D01*
X133160647Y-101350252D01*
X133136838Y-101255014D01*
X133136838Y-101135966D01*
X133160647Y-101040728D01*
X133184457Y-100993109D01*
X133208266Y-100969300D01*
X133255885Y-100945490D01*
X135162571Y-99464290D02*
X134995904Y-99226195D01*
X134876857Y-99464290D02*
X134876857Y-98964290D01*
X135067333Y-98964290D01*
X135114952Y-98988100D01*
X135138761Y-99011909D01*
X135162571Y-99059528D01*
X135162571Y-99130957D01*
X135138761Y-99178576D01*
X135114952Y-99202385D01*
X135067333Y-99226195D01*
X134876857Y-99226195D01*
X135638761Y-99464290D02*
X135353047Y-99464290D01*
X135495904Y-99464290D02*
X135495904Y-98964290D01*
X135448285Y-99035719D01*
X135400666Y-99083338D01*
X135353047Y-99107147D01*
X136114952Y-99464290D02*
X135829238Y-99464290D01*
X135972095Y-99464290D02*
X135972095Y-98964290D01*
X135924476Y-99035719D01*
X135876857Y-99083338D01*
X135829238Y-99107147D01*
X133213880Y-95790809D02*
X133166261Y-95767000D01*
X133118642Y-95719380D01*
X133047214Y-95647952D01*
X132999595Y-95624142D01*
X132951976Y-95624142D01*
X132975785Y-95743190D02*
X132928166Y-95719380D01*
X132880547Y-95671761D01*
X132856738Y-95576523D01*
X132856738Y-95409857D01*
X132880547Y-95314619D01*
X132928166Y-95267000D01*
X132975785Y-95243190D01*
X133071023Y-95243190D01*
X133118642Y-95267000D01*
X133166261Y-95314619D01*
X133190071Y-95409857D01*
X133190071Y-95576523D01*
X133166261Y-95671761D01*
X133118642Y-95719380D01*
X133071023Y-95743190D01*
X132975785Y-95743190D01*
X133666261Y-95743190D02*
X133380547Y-95743190D01*
X133523404Y-95743190D02*
X133523404Y-95243190D01*
X133475785Y-95314619D01*
X133428166Y-95362238D01*
X133380547Y-95386047D01*
X166111771Y-66799890D02*
X165945104Y-66561795D01*
X165826057Y-66799890D02*
X165826057Y-66299890D01*
X166016533Y-66299890D01*
X166064152Y-66323700D01*
X166087961Y-66347509D01*
X166111771Y-66395128D01*
X166111771Y-66466557D01*
X166087961Y-66514176D01*
X166064152Y-66537985D01*
X166016533Y-66561795D01*
X165826057Y-66561795D01*
X166587961Y-66799890D02*
X166302247Y-66799890D01*
X166445104Y-66799890D02*
X166445104Y-66299890D01*
X166397485Y-66371319D01*
X166349866Y-66418938D01*
X166302247Y-66442747D01*
X166778438Y-66347509D02*
X166802247Y-66323700D01*
X166849866Y-66299890D01*
X166968914Y-66299890D01*
X167016533Y-66323700D01*
X167040342Y-66347509D01*
X167064152Y-66395128D01*
X167064152Y-66442747D01*
X167040342Y-66514176D01*
X166754628Y-66799890D01*
X167064152Y-66799890D01*
X159927571Y-96876671D02*
X159903761Y-96900480D01*
X159832333Y-96924290D01*
X159784714Y-96924290D01*
X159713285Y-96900480D01*
X159665666Y-96852861D01*
X159641857Y-96805242D01*
X159618047Y-96710004D01*
X159618047Y-96638576D01*
X159641857Y-96543338D01*
X159665666Y-96495719D01*
X159713285Y-96448100D01*
X159784714Y-96424290D01*
X159832333Y-96424290D01*
X159903761Y-96448100D01*
X159927571Y-96471909D01*
X160403761Y-96924290D02*
X160118047Y-96924290D01*
X160260904Y-96924290D02*
X160260904Y-96424290D01*
X160213285Y-96495719D01*
X160165666Y-96543338D01*
X160118047Y-96567147D01*
X160594238Y-96471909D02*
X160618047Y-96448100D01*
X160665666Y-96424290D01*
X160784714Y-96424290D01*
X160832333Y-96448100D01*
X160856142Y-96471909D01*
X160879952Y-96519528D01*
X160879952Y-96567147D01*
X160856142Y-96638576D01*
X160570428Y-96924290D01*
X160879952Y-96924290D01*
X159927571Y-90044071D02*
X159903761Y-90067880D01*
X159832333Y-90091690D01*
X159784714Y-90091690D01*
X159713285Y-90067880D01*
X159665666Y-90020261D01*
X159641857Y-89972642D01*
X159618047Y-89877404D01*
X159618047Y-89805976D01*
X159641857Y-89710738D01*
X159665666Y-89663119D01*
X159713285Y-89615500D01*
X159784714Y-89591690D01*
X159832333Y-89591690D01*
X159903761Y-89615500D01*
X159927571Y-89639309D01*
X160403761Y-90091690D02*
X160118047Y-90091690D01*
X160260904Y-90091690D02*
X160260904Y-89591690D01*
X160213285Y-89663119D01*
X160165666Y-89710738D01*
X160118047Y-89734547D01*
X160570428Y-89591690D02*
X160879952Y-89591690D01*
X160713285Y-89782166D01*
X160784714Y-89782166D01*
X160832333Y-89805976D01*
X160856142Y-89829785D01*
X160879952Y-89877404D01*
X160879952Y-89996452D01*
X160856142Y-90044071D01*
X160832333Y-90067880D01*
X160784714Y-90091690D01*
X160641857Y-90091690D01*
X160594238Y-90067880D01*
X160570428Y-90044071D01*
X157422466Y-95628890D02*
X157255800Y-95390795D01*
X157136752Y-95628890D02*
X157136752Y-95128890D01*
X157327228Y-95128890D01*
X157374847Y-95152700D01*
X157398657Y-95176509D01*
X157422466Y-95224128D01*
X157422466Y-95295557D01*
X157398657Y-95343176D01*
X157374847Y-95366985D01*
X157327228Y-95390795D01*
X157136752Y-95390795D01*
X157708180Y-95343176D02*
X157660561Y-95319366D01*
X157636752Y-95295557D01*
X157612942Y-95247938D01*
X157612942Y-95224128D01*
X157636752Y-95176509D01*
X157660561Y-95152700D01*
X157708180Y-95128890D01*
X157803419Y-95128890D01*
X157851038Y-95152700D01*
X157874847Y-95176509D01*
X157898657Y-95224128D01*
X157898657Y-95247938D01*
X157874847Y-95295557D01*
X157851038Y-95319366D01*
X157803419Y-95343176D01*
X157708180Y-95343176D01*
X157660561Y-95366985D01*
X157636752Y-95390795D01*
X157612942Y-95438414D01*
X157612942Y-95533652D01*
X157636752Y-95581271D01*
X157660561Y-95605080D01*
X157708180Y-95628890D01*
X157803419Y-95628890D01*
X157851038Y-95605080D01*
X157874847Y-95581271D01*
X157898657Y-95533652D01*
X157898657Y-95438414D01*
X157874847Y-95390795D01*
X157851038Y-95366985D01*
X157803419Y-95343176D01*
X157422466Y-91412490D02*
X157255800Y-91174395D01*
X157136752Y-91412490D02*
X157136752Y-90912490D01*
X157327228Y-90912490D01*
X157374847Y-90936300D01*
X157398657Y-90960109D01*
X157422466Y-91007728D01*
X157422466Y-91079157D01*
X157398657Y-91126776D01*
X157374847Y-91150585D01*
X157327228Y-91174395D01*
X157136752Y-91174395D01*
X157660561Y-91412490D02*
X157755800Y-91412490D01*
X157803419Y-91388680D01*
X157827228Y-91364871D01*
X157874847Y-91293442D01*
X157898657Y-91198204D01*
X157898657Y-91007728D01*
X157874847Y-90960109D01*
X157851038Y-90936300D01*
X157803419Y-90912490D01*
X157708180Y-90912490D01*
X157660561Y-90936300D01*
X157636752Y-90960109D01*
X157612942Y-91007728D01*
X157612942Y-91126776D01*
X157636752Y-91174395D01*
X157660561Y-91198204D01*
X157708180Y-91222014D01*
X157803419Y-91222014D01*
X157851038Y-91198204D01*
X157874847Y-91174395D01*
X157898657Y-91126776D01*
D12*
X158542380Y-107982333D02*
X159256666Y-107982333D01*
X159399523Y-108029952D01*
X159494761Y-108125190D01*
X159542380Y-108268047D01*
X159542380Y-108363285D01*
X158542380Y-107601380D02*
X158542380Y-106982333D01*
X158923333Y-107315666D01*
X158923333Y-107172809D01*
X158970952Y-107077571D01*
X159018571Y-107029952D01*
X159113809Y-106982333D01*
X159351904Y-106982333D01*
X159447142Y-107029952D01*
X159494761Y-107077571D01*
X159542380Y-107172809D01*
X159542380Y-107458523D01*
X159494761Y-107553761D01*
X159447142Y-107601380D01*
X168780266Y-92848480D02*
X168780266Y-93562766D01*
X168732647Y-93705623D01*
X168637409Y-93800861D01*
X168494552Y-93848480D01*
X168399314Y-93848480D01*
X169685028Y-93181814D02*
X169685028Y-93848480D01*
X169446933Y-92800861D02*
X169208838Y-93515147D01*
X169827885Y-93515147D01*
X129508180Y-107523295D02*
X128508180Y-107523295D01*
X128508180Y-107285200D01*
X128555800Y-107142342D01*
X128651038Y-107047104D01*
X128746276Y-106999485D01*
X128936752Y-106951866D01*
X129079609Y-106951866D01*
X129270085Y-106999485D01*
X129365323Y-107047104D01*
X129460561Y-107142342D01*
X129508180Y-107285200D01*
X129508180Y-107523295D01*
X129508180Y-105999485D02*
X129508180Y-106570914D01*
X129508180Y-106285200D02*
X128508180Y-106285200D01*
X128651038Y-106380438D01*
X128746276Y-106475676D01*
X128793895Y-106570914D01*
D10*
X136079333Y-70668690D02*
X136079333Y-71025833D01*
X136055523Y-71097261D01*
X136007904Y-71144880D01*
X135936476Y-71168690D01*
X135888857Y-71168690D01*
X136555523Y-70668690D02*
X136317428Y-70668690D01*
X136293619Y-70906785D01*
X136317428Y-70882976D01*
X136365047Y-70859166D01*
X136484095Y-70859166D01*
X136531714Y-70882976D01*
X136555523Y-70906785D01*
X136579333Y-70954404D01*
X136579333Y-71073452D01*
X136555523Y-71121071D01*
X136531714Y-71144880D01*
X136484095Y-71168690D01*
X136365047Y-71168690D01*
X136317428Y-71144880D01*
X136293619Y-71121071D01*
X163912190Y-108633666D02*
X164269333Y-108633666D01*
X164340761Y-108657476D01*
X164388380Y-108705095D01*
X164412190Y-108776523D01*
X164412190Y-108824142D01*
X164412190Y-108395571D02*
X163912190Y-108395571D01*
X163912190Y-108205095D01*
X163936000Y-108157476D01*
X163959809Y-108133666D01*
X164007428Y-108109857D01*
X164078857Y-108109857D01*
X164126476Y-108133666D01*
X164150285Y-108157476D01*
X164174095Y-108205095D01*
X164174095Y-108395571D01*
X164078857Y-107681285D02*
X164412190Y-107681285D01*
X163888380Y-107800333D02*
X164245523Y-107919380D01*
X164245523Y-107609857D01*
X163975690Y-98854666D02*
X164332833Y-98854666D01*
X164404261Y-98878476D01*
X164451880Y-98926095D01*
X164475690Y-98997523D01*
X164475690Y-99045142D01*
X164475690Y-98616571D02*
X163975690Y-98616571D01*
X163975690Y-98426095D01*
X163999500Y-98378476D01*
X164023309Y-98354666D01*
X164070928Y-98330857D01*
X164142357Y-98330857D01*
X164189976Y-98354666D01*
X164213785Y-98378476D01*
X164237595Y-98426095D01*
X164237595Y-98616571D01*
X163975690Y-97878476D02*
X163975690Y-98116571D01*
X164213785Y-98140380D01*
X164189976Y-98116571D01*
X164166166Y-98068952D01*
X164166166Y-97949904D01*
X164189976Y-97902285D01*
X164213785Y-97878476D01*
X164261404Y-97854666D01*
X164380452Y-97854666D01*
X164428071Y-97878476D01*
X164451880Y-97902285D01*
X164475690Y-97949904D01*
X164475690Y-98068952D01*
X164451880Y-98116571D01*
X164428071Y-98140380D01*
X157038333Y-98291190D02*
X157038333Y-98648333D01*
X157014523Y-98719761D01*
X156966904Y-98767380D01*
X156895476Y-98791190D01*
X156847857Y-98791190D01*
X157276428Y-98791190D02*
X157276428Y-98291190D01*
X157466904Y-98291190D01*
X157514523Y-98315000D01*
X157538333Y-98338809D01*
X157562142Y-98386428D01*
X157562142Y-98457857D01*
X157538333Y-98505476D01*
X157514523Y-98529285D01*
X157466904Y-98553095D01*
X157276428Y-98553095D01*
X157990714Y-98291190D02*
X157895476Y-98291190D01*
X157847857Y-98315000D01*
X157824047Y-98338809D01*
X157776428Y-98410238D01*
X157752619Y-98505476D01*
X157752619Y-98695952D01*
X157776428Y-98743571D01*
X157800238Y-98767380D01*
X157847857Y-98791190D01*
X157943095Y-98791190D01*
X157990714Y-98767380D01*
X158014523Y-98743571D01*
X158038333Y-98695952D01*
X158038333Y-98576904D01*
X158014523Y-98529285D01*
X157990714Y-98505476D01*
X157943095Y-98481666D01*
X157847857Y-98481666D01*
X157800238Y-98505476D01*
X157776428Y-98529285D01*
X157752619Y-98576904D01*
X157038333Y-87877190D02*
X157038333Y-88234333D01*
X157014523Y-88305761D01*
X156966904Y-88353380D01*
X156895476Y-88377190D01*
X156847857Y-88377190D01*
X157276428Y-88377190D02*
X157276428Y-87877190D01*
X157466904Y-87877190D01*
X157514523Y-87901000D01*
X157538333Y-87924809D01*
X157562142Y-87972428D01*
X157562142Y-88043857D01*
X157538333Y-88091476D01*
X157514523Y-88115285D01*
X157466904Y-88139095D01*
X157276428Y-88139095D01*
X157728809Y-87877190D02*
X158062142Y-87877190D01*
X157847857Y-88377190D01*
X165642571Y-106871571D02*
X165618761Y-106895380D01*
X165547333Y-106919190D01*
X165499714Y-106919190D01*
X165428285Y-106895380D01*
X165380666Y-106847761D01*
X165356857Y-106800142D01*
X165333047Y-106704904D01*
X165333047Y-106633476D01*
X165356857Y-106538238D01*
X165380666Y-106490619D01*
X165428285Y-106443000D01*
X165499714Y-106419190D01*
X165547333Y-106419190D01*
X165618761Y-106443000D01*
X165642571Y-106466809D01*
X166118761Y-106919190D02*
X165833047Y-106919190D01*
X165975904Y-106919190D02*
X165975904Y-106419190D01*
X165928285Y-106490619D01*
X165880666Y-106538238D01*
X165833047Y-106562047D01*
X166428285Y-106419190D02*
X166475904Y-106419190D01*
X166523523Y-106443000D01*
X166547333Y-106466809D01*
X166571142Y-106514428D01*
X166594952Y-106609666D01*
X166594952Y-106728714D01*
X166571142Y-106823952D01*
X166547333Y-106871571D01*
X166523523Y-106895380D01*
X166475904Y-106919190D01*
X166428285Y-106919190D01*
X166380666Y-106895380D01*
X166356857Y-106871571D01*
X166333047Y-106823952D01*
X166309238Y-106728714D01*
X166309238Y-106609666D01*
X166333047Y-106514428D01*
X166356857Y-106466809D01*
X166380666Y-106443000D01*
X166428285Y-106419190D01*
X165642571Y-100204071D02*
X165618761Y-100227880D01*
X165547333Y-100251690D01*
X165499714Y-100251690D01*
X165428285Y-100227880D01*
X165380666Y-100180261D01*
X165356857Y-100132642D01*
X165333047Y-100037404D01*
X165333047Y-99965976D01*
X165356857Y-99870738D01*
X165380666Y-99823119D01*
X165428285Y-99775500D01*
X165499714Y-99751690D01*
X165547333Y-99751690D01*
X165618761Y-99775500D01*
X165642571Y-99799309D01*
X166118761Y-100251690D02*
X165833047Y-100251690D01*
X165975904Y-100251690D02*
X165975904Y-99751690D01*
X165928285Y-99823119D01*
X165880666Y-99870738D01*
X165833047Y-99894547D01*
X166594952Y-100251690D02*
X166309238Y-100251690D01*
X166452095Y-100251690D02*
X166452095Y-99751690D01*
X166404476Y-99823119D01*
X166356857Y-99870738D01*
X166309238Y-99894547D01*
X130388071Y-62987690D02*
X130221404Y-62749595D01*
X130102357Y-62987690D02*
X130102357Y-62487690D01*
X130292833Y-62487690D01*
X130340452Y-62511500D01*
X130364261Y-62535309D01*
X130388071Y-62582928D01*
X130388071Y-62654357D01*
X130364261Y-62701976D01*
X130340452Y-62725785D01*
X130292833Y-62749595D01*
X130102357Y-62749595D01*
X130864261Y-62987690D02*
X130578547Y-62987690D01*
X130721404Y-62987690D02*
X130721404Y-62487690D01*
X130673785Y-62559119D01*
X130626166Y-62606738D01*
X130578547Y-62630547D01*
X131316642Y-62487690D02*
X131078547Y-62487690D01*
X131054738Y-62725785D01*
X131078547Y-62701976D01*
X131126166Y-62678166D01*
X131245214Y-62678166D01*
X131292833Y-62701976D01*
X131316642Y-62725785D01*
X131340452Y-62773404D01*
X131340452Y-62892452D01*
X131316642Y-62940071D01*
X131292833Y-62963880D01*
X131245214Y-62987690D01*
X131126166Y-62987690D01*
X131078547Y-62963880D01*
X131054738Y-62940071D01*
X131555071Y-65908690D02*
X131388404Y-65670595D01*
X131269357Y-65908690D02*
X131269357Y-65408690D01*
X131459833Y-65408690D01*
X131507452Y-65432500D01*
X131531261Y-65456309D01*
X131555071Y-65503928D01*
X131555071Y-65575357D01*
X131531261Y-65622976D01*
X131507452Y-65646785D01*
X131459833Y-65670595D01*
X131269357Y-65670595D01*
X132031261Y-65908690D02*
X131745547Y-65908690D01*
X131888404Y-65908690D02*
X131888404Y-65408690D01*
X131840785Y-65480119D01*
X131793166Y-65527738D01*
X131745547Y-65551547D01*
X132459833Y-65408690D02*
X132364595Y-65408690D01*
X132316976Y-65432500D01*
X132293166Y-65456309D01*
X132245547Y-65527738D01*
X132221738Y-65622976D01*
X132221738Y-65813452D01*
X132245547Y-65861071D01*
X132269357Y-65884880D01*
X132316976Y-65908690D01*
X132412214Y-65908690D01*
X132459833Y-65884880D01*
X132483642Y-65861071D01*
X132507452Y-65813452D01*
X132507452Y-65694404D01*
X132483642Y-65646785D01*
X132459833Y-65622976D01*
X132412214Y-65599166D01*
X132316976Y-65599166D01*
X132269357Y-65622976D01*
X132245547Y-65646785D01*
X132221738Y-65694404D01*
X151875771Y-86764290D02*
X151709104Y-86526195D01*
X151590057Y-86764290D02*
X151590057Y-86264290D01*
X151780533Y-86264290D01*
X151828152Y-86288100D01*
X151851961Y-86311909D01*
X151875771Y-86359528D01*
X151875771Y-86430957D01*
X151851961Y-86478576D01*
X151828152Y-86502385D01*
X151780533Y-86526195D01*
X151590057Y-86526195D01*
X152351961Y-86764290D02*
X152066247Y-86764290D01*
X152209104Y-86764290D02*
X152209104Y-86264290D01*
X152161485Y-86335719D01*
X152113866Y-86383338D01*
X152066247Y-86407147D01*
X152518628Y-86264290D02*
X152851961Y-86264290D01*
X152637676Y-86764290D01*
X151875771Y-85176790D02*
X151709104Y-84938695D01*
X151590057Y-85176790D02*
X151590057Y-84676790D01*
X151780533Y-84676790D01*
X151828152Y-84700600D01*
X151851961Y-84724409D01*
X151875771Y-84772028D01*
X151875771Y-84843457D01*
X151851961Y-84891076D01*
X151828152Y-84914885D01*
X151780533Y-84938695D01*
X151590057Y-84938695D01*
X152351961Y-85176790D02*
X152066247Y-85176790D01*
X152209104Y-85176790D02*
X152209104Y-84676790D01*
X152161485Y-84748219D01*
X152113866Y-84795838D01*
X152066247Y-84819647D01*
X152637676Y-84891076D02*
X152590057Y-84867266D01*
X152566247Y-84843457D01*
X152542438Y-84795838D01*
X152542438Y-84772028D01*
X152566247Y-84724409D01*
X152590057Y-84700600D01*
X152637676Y-84676790D01*
X152732914Y-84676790D01*
X152780533Y-84700600D01*
X152804342Y-84724409D01*
X152828152Y-84772028D01*
X152828152Y-84795838D01*
X152804342Y-84843457D01*
X152780533Y-84867266D01*
X152732914Y-84891076D01*
X152637676Y-84891076D01*
X152590057Y-84914885D01*
X152566247Y-84938695D01*
X152542438Y-84986314D01*
X152542438Y-85081552D01*
X152566247Y-85129171D01*
X152590057Y-85152980D01*
X152637676Y-85176790D01*
X152732914Y-85176790D01*
X152780533Y-85152980D01*
X152804342Y-85129171D01*
X152828152Y-85081552D01*
X152828152Y-84986314D01*
X152804342Y-84938695D01*
X152780533Y-84914885D01*
X152732914Y-84891076D01*
X151824971Y-83614690D02*
X151658304Y-83376595D01*
X151539257Y-83614690D02*
X151539257Y-83114690D01*
X151729733Y-83114690D01*
X151777352Y-83138500D01*
X151801161Y-83162309D01*
X151824971Y-83209928D01*
X151824971Y-83281357D01*
X151801161Y-83328976D01*
X151777352Y-83352785D01*
X151729733Y-83376595D01*
X151539257Y-83376595D01*
X152301161Y-83614690D02*
X152015447Y-83614690D01*
X152158304Y-83614690D02*
X152158304Y-83114690D01*
X152110685Y-83186119D01*
X152063066Y-83233738D01*
X152015447Y-83257547D01*
X152539257Y-83614690D02*
X152634495Y-83614690D01*
X152682114Y-83590880D01*
X152705923Y-83567071D01*
X152753542Y-83495642D01*
X152777352Y-83400404D01*
X152777352Y-83209928D01*
X152753542Y-83162309D01*
X152729733Y-83138500D01*
X152682114Y-83114690D01*
X152586876Y-83114690D01*
X152539257Y-83138500D01*
X152515447Y-83162309D01*
X152491638Y-83209928D01*
X152491638Y-83328976D01*
X152515447Y-83376595D01*
X152539257Y-83400404D01*
X152586876Y-83424214D01*
X152682114Y-83424214D01*
X152729733Y-83400404D01*
X152753542Y-83376595D01*
X152777352Y-83328976D01*
D12*
X153004180Y-75335604D02*
X153813704Y-75335604D01*
X153908942Y-75287985D01*
X153956561Y-75240366D01*
X154004180Y-75145128D01*
X154004180Y-74954652D01*
X153956561Y-74859414D01*
X153908942Y-74811795D01*
X153813704Y-74764176D01*
X153004180Y-74764176D01*
X153004180Y-73859414D02*
X153004180Y-74049890D01*
X153051800Y-74145128D01*
X153099419Y-74192747D01*
X153242276Y-74287985D01*
X153432752Y-74335604D01*
X153813704Y-74335604D01*
X153908942Y-74287985D01*
X153956561Y-74240366D01*
X154004180Y-74145128D01*
X154004180Y-73954652D01*
X153956561Y-73859414D01*
X153908942Y-73811795D01*
X153813704Y-73764176D01*
X153575609Y-73764176D01*
X153480371Y-73811795D01*
X153432752Y-73859414D01*
X153385133Y-73954652D01*
X153385133Y-74145128D01*
X153432752Y-74240366D01*
X153480371Y-74287985D01*
X153575609Y-74335604D01*
X126228380Y-59820595D02*
X125228380Y-59820595D01*
X125228380Y-59439642D01*
X125276000Y-59344404D01*
X125323619Y-59296785D01*
X125418857Y-59249166D01*
X125561714Y-59249166D01*
X125656952Y-59296785D01*
X125704571Y-59344404D01*
X125752190Y-59439642D01*
X125752190Y-59820595D01*
X126228380Y-58296785D02*
X126228380Y-58868214D01*
X126228380Y-58582500D02*
X125228380Y-58582500D01*
X125371238Y-58677738D01*
X125466476Y-58772976D01*
X125514095Y-58868214D01*
M02*
