M48
INCH,TZ
T1C0.0118
T2C0.0236
T3C0.0335
T4C0.0394
T5C0.0492
%
G90
G05
T1
X47420Y-41330
X47540Y-27530
X47540Y-37530
X48440Y-27530
X48440Y-37530
X49340Y-27530
X49340Y-37530
X49540Y-39970
X49631Y-25400
X50000Y-37710
X50133Y-36978
X50140Y-27710
X50540Y-29930
X50540Y-34930
X50615Y-28730
X50890Y-37580
X50915Y-39930
X50940Y-28430
X51090Y-27405
X51100Y-34330
X51115Y-35230
X51320Y-41810
X51540Y-38690
X51600Y-30240
X51680Y-36830
X51700Y-40430
X51740Y-39930
X51890Y-32180
X51890Y-32855
X51890Y-33555
X51920Y-27330
X52100Y-30530
X52180Y-37980
X52390Y-32180
X52390Y-33555
X52540Y-25370
X52590Y-28380
X52715Y-37580
X53060Y-37960
X53060Y-31230
X53120Y-40450
X53140Y-39405
X53390Y-38205
X53440Y-39670
X53460Y-25030
X53600Y-28360
X53820Y-42630
X53840Y-34930
X53880Y-38630
X53890Y-29905
X53925Y-37955
X53940Y-40990
X54015Y-37255
X54040Y-36505
X54046Y-36942
X54215Y-29905
X54300Y-42350
X54340Y-34330
X54384Y-33812
X54390Y-40330
X54415Y-39680
X54660Y-41550
X54715Y-36980
X54740Y-32030
X54740Y-34330
X54760Y-38330
X54760Y-41162
X54915Y-39680
X54915Y-40330
X55090Y-36455
X55140Y-34330
X55165Y-32305
X55365Y-39255
X55480Y-25950
X55600Y-34645
X55830Y-26570
X55865Y-36705
X55866Y-40325
X55866Y-42264
X56100Y-25714
X56100Y-27021
X56100Y-29540
X56240Y-40670
X56240Y-42330
X56280Y-29910
X56280Y-31230
X56580Y-26330
X56600Y-34750
X56665Y-28005
X57060Y-26910
X57065Y-29530
X57100Y-36210
X57140Y-43430
X57165Y-35180
X57420Y-25410
X57620Y-34210
X57943Y-25714
X58000Y-28230
X58277Y-33813
X58340Y-35150
X58490Y-32266
X58500Y-28130
X58740Y-41450
X58800Y-35150
X58890Y-32030
X58900Y-28130
X59180Y-40030
X59700Y-35130
X59720Y-28130
X59720Y-30770
X59740Y-37970
X60120Y-29370
X60200Y-26010
X60220Y-38330
X60220Y-41450
X60220Y-35410
X60356Y-29582
X60740Y-37450
X60804Y-32410
X60820Y-24610
X60840Y-33030
X60840Y-33650
X61260Y-28690
X61440Y-36450
X61440Y-36980
X61660Y-26390
X61660Y-28230
X61717Y-25247
X61720Y-24910
X61860Y-25890
X61860Y-32250
X61860Y-33030
X61860Y-33810
X62140Y-43430
X62160Y-28210
X62160Y-29090
X62240Y-32050
X62420Y-34630
X62540Y-40030
X62560Y-24370
X62660Y-28926
X62660Y-31730
X63140Y-24910
X63160Y-28446
X63160Y-32870
X63300Y-34970
X63420Y-25654
X63440Y-37705
X63465Y-35730
X63490Y-36320
X63500Y-37110
X63660Y-26154
X63660Y-33870
X63680Y-24910
X63896Y-30654
X63896Y-32090
X64120Y-25146
X64160Y-26890
X64160Y-34850
X64420Y-28450
X64550Y-39900
X64565Y-41430
X64660Y-26890
X64660Y-35870
X64680Y-26390
X64820Y-28930
X65160Y-29330
X65160Y-32250
X65315Y-37255
X65460Y-33350
X65620Y-25150
X65660Y-29610
X66400Y-28210
X66640Y-35380
X66660Y-30346
X66660Y-32250
X66668Y-25890
X66920Y-24570
X67140Y-30110
X67140Y-31910
X67140Y-43430
X67260Y-24950
X67680Y-29870
X67965Y-37255
X68020Y-26030
X68040Y-33870
X68440Y-30510
X68990Y-39455
X69740Y-43330
X69790Y-28680
X71543Y-34333
X72140Y-24930
X72140Y-30930
X72140Y-35930
X72140Y-40930
T3
X50336Y-42305
X52304Y-42305
T4
X57740Y-40655
X58740Y-40655
X59740Y-40655
X60740Y-40655
X61740Y-40655
X53665Y-26155
X53665Y-27155
X70815Y-37255
X70815Y-38255
X50435Y-22761
X50435Y-23761
X51435Y-22761
X51435Y-23761
X52435Y-22761
X52435Y-23761
X53435Y-22761
X53435Y-23761
X54435Y-22761
X54435Y-23761
X55435Y-22761
X55435Y-23761
X56435Y-22761
X56435Y-23761
X57435Y-22761
X57435Y-23761
X58435Y-22761
X58435Y-23761
X59435Y-22761
X59435Y-23761
X60435Y-22761
X60435Y-23761
X61435Y-22761
X61435Y-23761
X62435Y-22761
X62435Y-23761
X63435Y-22761
X63435Y-23761
X64435Y-22761
X64435Y-23761
X65435Y-22761
X65435Y-23761
X66435Y-22761
X66435Y-23761
X67435Y-22761
X67435Y-23761
X68435Y-22761
X68435Y-23761
X69435Y-22761
X69435Y-23761
X66140Y-32880
X66140Y-33880
X66140Y-34880
X66140Y-35880
X67140Y-32880
X67140Y-33880
X67140Y-34880
X67140Y-35880
T5
X68165Y-38190
T2
G00X49942Y-43506
M15
G01X49942Y-43230
M16
G05
G00X52698Y-43230
M15
G01X52698Y-43506
M16
G05
T0
M30
